RobotoFlexCondensed-Light.ufo
<glyph name="exclam" format="2">
  <advance width="538"/>
  <unicode hex="0021"/>
  <outline>
    <contour>
      <point x="186.0" y="74.37647058822667" type="curve" smooth="yes"/>
      <point x="186" y="21"/>
      <point x="216" y="-22"/>
      <point x="269.38300653593336" y="-22.0" type="curve" smooth="yes"/>
      <point x="323" y="-22"/>
      <point x="352" y="21"/>
      <point x="352.0326797385334" y="74.37647058822667" type="curve" smooth="yes"/>
      <point x="352" y="127"/>
      <point x="323" y="171"/>
      <point x="269.38300653593336" y="170.75294117645333" type="curve" smooth="yes"/>
      <point x="215" y="171"/>
      <point x="186" y="127"/>
    </contour>
    <contour>
      <point x="220.83660130718667" y="395.21307189541335" type="line"/>
      <point x="316.63267973853334" y="395.21307189541335" type="line"/>
      <point x="325.43267973853335" y="1456.0" type="line"/>
      <point x="212.26666666666668" y="1456.0" type="line"/>
    </contour>
  </outline>
</glyph>
<glyph name="quotedbl" format="2">
  <advance width="635"/>
  <unicode hex="0022"/>
  <outline>
    <contour>
      <point x="109.55260130718668" y="1067.80271895428" type="line"/>
      <point x="207.89560784312002" y="1067.80271895428" type="line"/>
      <point x="218.01160784312" y="1347.5515294117733" type="line"/>
      <point x="218.01160784312" y="1456.0" type="line"/>
      <point x="100.0" y="1456.0" type="line"/>
      <point x="100.0" y="1347.5515294117733" type="line"/>
    </contour>
    <contour>
      <point x="427.5642091503067" y="1067.80271895428" type="line"/>
      <point x="525.3438169935" y="1067.80271895428" type="line"/>
      <point x="535.4598169935" y="1347.5515294117733" type="line"/>
      <point x="535.4598169935" y="1456.0" type="line"/>
      <point x="418.01160784312" y="1456.0" type="line"/>
      <point x="418.01160784312" y="1347.5515294117733" type="line"/>
    </contour>
  </outline>
</glyph>
<glyph name="numbersign" format="2">
  <advance width="1415"/>
  <unicode hex="0023"/>
  <outline>
    <contour>
      <point x="226.15383006536666" y="-20.0" type="line"/>
      <point x="319.00010457515333" y="-20.0" type="line"/>
      <point x="794.3980130718667" y="1443.4183006535934" type="line"/>
      <point x="702.1151372548933" y="1443.4183006535934" type="line"/>
    </contour>
    <contour>
      <point x="652.8028758169734" y="-20.0" type="line"/>
      <point x="746.65568627454" y="-20.0" type="line"/>
      <point x="1222.1709281045867" y="1443.4183006535934" type="line"/>
      <point x="1128.3181176470932" y="1443.4183006535934" type="line"/>
    </contour>
    <contour>
      <point x="79.89647058822666" y="431.55152941177334" type="line"/>
      <point x="1262.6813071895267" y="431.55152941177334" type="line"/>
      <point x="1262.6813071895267" y="525.9132026143734" type="line"/>
      <point x="79.89647058822666" y="525.9132026143734" type="line"/>
    </contour>
    <contour>
      <point x="185.07351633983333" y="897.50509803922" type="line"/>
      <point x="1367.42175163402" y="897.50509803922" type="line"/>
      <point x="1367.42175163402" y="991.8667712418201" type="line"/>
      <point x="185.07351633983333" y="991.8667712418201" type="line"/>
    </contour>
  </outline>
</glyph>
<glyph name="dollar" format="2">
  <advance width="1096"/>
  <unicode hex="0024"/>
  <outline>
    <contour>
      <point x="133.55294117645332" y="451.10457516338" type="line" smooth="yes"/>
      <point x="134" y="165"/>
      <point x="306" y="8"/>
      <point x="571.52026143792" y="7.81960784312" type="curve" smooth="yes"/>
      <point x="836" y="8"/>
      <point x="1001" y="169"/>
      <point x="1001.1176470587934" y="434.17647058822666" type="curve" smooth="yes"/>
      <point x="1001" y="622"/>
      <point x="879" y="724"/>
      <point x="621.4993464052" y="803.2326797385333" type="curve" smooth="yes"/>
      <point x="339" y="886"/>
      <point x="269" y="909"/>
      <point x="268.95163398692665" y="1076.7516339869267" type="curve" smooth="yes"/>
      <point x="269" y="1244"/>
      <point x="366" y="1342"/>
      <point x="563.1503267974" y="1341.8209150326466" type="curve" smooth="yes"/>
      <point x="755" y="1342"/>
      <point x="855" y="1213"/>
      <point x="854.5490196078733" y="1017.4117647058868" type="curve" smooth="yes"/>
      <point x="854.5490196078733" y="1004.1084967320334" type="line"/>
      <point x="973.7712418300467" y="1004.1084967320334" type="line"/>
      <point x="973.7712418300467" y="1017.4117647058868" type="line" smooth="yes"/>
      <point x="974" y="1273"/>
      <point x="813" y="1453"/>
      <point x="562.0836601307333" y="1453.3934640522934" type="curve" smooth="yes"/>
      <point x="312" y="1453"/>
      <point x="151" y="1295"/>
      <point x="150.93594771238668" y="1061.8183006535933" type="curve" smooth="yes"/>
      <point x="151" y="840"/>
      <point x="297" y="756"/>
      <point x="554.61437908494" y="687.8535947712534" type="curve" smooth="yes"/>
      <point x="836" y="614"/>
      <point x="883" y="571"/>
      <point x="883.89542483662" y="407.93464052286" type="curve" smooth="yes"/>
      <point x="885" y="239"/>
      <point x="775" y="121"/>
      <point x="571.52026143792" y="120.69542483661999" type="curve" smooth="yes"/>
      <point x="368" y="121"/>
      <point x="252" y="227"/>
      <point x="251.5385620915133" y="451.10457516338" type="curve" smooth="yes"/>
      <point x="251.5385620915133" y="464.40784313723333" type="line"/>
      <point x="133.55294117645332" y="464.40784313723333" type="line"/>
    </contour>
    <contour>
      <point x="522.9738562091733" y="-123.93464052286001" type="line"/>
      <point x="616.3333333333334" y="-123.93464052286001" type="line"/>
      <point x="616.3333333333334" y="79.39869281047334" type="line"/>
      <point x="616.90980392156" y="89.39869281047334" type="line"/>
      <point x="616.90980392156" y="688.9019607843268" type="line"/>
      <point x="522.9738562091733" y="688.9019607843268" type="line"/>
    </contour>
    <contour>
      <point x="522.1241830065" y="688.9019607843268" type="line"/>
      <point x="615.3267973856267" y="688.9019607843268" type="line"/>
      <point x="615.3267973856267" y="1632.06535947714" type="line"/>
      <point x="521.9673202614666" y="1632.06535947714" type="line"/>
      <point x="521.9673202614666" y="1363.5686274509933" type="line"/>
      <point x="522.1241830065" y="1353.5686274509933" type="line"/>
    </contour>
  </outline>
</glyph>
<glyph name="ampersand" format="2">
  <advance width="1068"/>
  <unicode hex="0026"/>
  <outline>
    <contour>
      <point x="80.0" y="380.0" type="curve" smooth="yes"/>
      <point x="81" y="151"/>
      <point x="220" y="-20"/>
      <point x="455.99701960787337" y="-20.0" type="curve" smooth="yes"/>
      <point x="752" y="-20"/>
      <point x="978" y="280"/>
      <point x="977.6084705882266" y="674.0" type="curve"/>
      <point x="872.0771241830267" y="674.0" type="line"/>
      <point x="872" y="305"/>
      <point x="684" y="79"/>
      <point x="455.99701960787337" y="79.3856732026" type="curve" smooth="yes"/>
      <point x="294" y="79"/>
      <point x="190" y="198"/>
      <point x="189.95267973853333" y="380.5032679738533" type="curve" smooth="yes"/>
      <point x="190" y="532"/>
      <point x="257" y="626"/>
      <point x="437.81241830068666" y="754.90013071896" type="curve" smooth="yes"/>
      <point x="570.2533333333333" y="854.0751372548933" type="line" smooth="yes"/>
      <point x="673" y="934"/>
      <point x="748" y="1032"/>
      <point x="747.5877647058867" y="1179.1107973856267" type="curve" smooth="yes"/>
      <point x="748" y="1371"/>
      <point x="642" y="1486"/>
      <point x="481.07456209151337" y="1486.0" type="curve" smooth="yes"/>
      <point x="317" y="1486"/>
      <point x="204" y="1362"/>
      <point x="203.65495424839335" y="1158.9934640522933" type="curve" smooth="yes"/>
      <point x="204" y="1032"/>
      <point x="242" y="945"/>
      <point x="374.63806535948004" y="760.2414640522933" type="curve" smooth="yes"/>
      <point x="915.8657254902133" y="0.0" type="line"/>
      <point x="1044.9090196078732" y="0.0" type="line"/>
      <point x="458.7181437908267" y="823.6269281045867" type="line" smooth="yes"/>
      <point x="341" y="988"/>
      <point x="314" y="1059"/>
      <point x="313.52496732026003" y="1158.9934640522933" type="curve" smooth="yes"/>
      <point x="314" y="1296"/>
      <point x="376" y="1387"/>
      <point x="481.07456209151337" y="1386.6143267974" type="curve" smooth="yes"/>
      <point x="585" y="1387"/>
      <point x="639" y="1304"/>
      <point x="638.9873464052" y="1173.98013071896" type="curve" smooth="yes"/>
      <point x="639" y="1069"/>
      <point x="599" y="1003"/>
      <point x="506.1998431372333" y="934.7558692810401" type="curve" smooth="yes"/>
      <point x="381.11500653593333" y="838.94180392156" type="line" smooth="yes"/>
      <point x="181" y="695"/>
      <point x="79" y="579"/>
    </contour>
  </outline>
</glyph>
<glyph name="quotesingle" format="2">
  <advance width="331"/>
  <unicode hex="0027"/>
  <outline>
    <contour>
      <point x="114.16993464052" y="1067.5973856209466" type="line"/>
      <point x="216.05620915030667" y="1067.5973856209466" type="line"/>
      <point x="225.65620915030667" y="1347.7568627451067" type="line"/>
      <point x="225.65620915030667" y="1456.0" type="line"/>
      <point x="105.13333333333333" y="1456.0" type="line"/>
      <point x="105.13333333333333" y="1347.7568627451067" type="line"/>
    </contour>
  </outline>
</glyph>
<glyph name="parenleft" format="2">
  <advance width="619"/>
  <unicode hex="0028"/>
  <outline>
    <contour>
      <point x="561.0483660130734" y="-436.0" type="curve"/>
      <point x="561.0483660130734" y="-358.64575163402003" type="line"/>
      <point x="371" y="-263"/>
      <point x="238" y="-43"/>
      <point x="237.95607843134667" y="508.0" type="curve" smooth="yes"/>
      <point x="237.95607843134667" y="532.0" type="line" smooth="yes"/>
      <point x="238" y="1058"/>
      <point x="371" y="1305"/>
      <point x="561.0483660130734" y="1400.1124183006866" type="curve"/>
      <point x="561.0483660130734" y="1476.0" type="line"/>
      <point x="301" y="1366"/>
      <point x="124" y="1059"/>
      <point x="124.0" y="525.0" type="curve" smooth="yes"/>
      <point x="124.0" y="515.0" type="line" smooth="yes"/>
      <point x="124" y="-49"/>
      <point x="301" y="-326"/>
    </contour>
  </outline>
</glyph>
<glyph name="parenright" format="2">
  <advance width="619"/>
  <unicode hex="0029"/>
  <outline>
    <contour>
      <point x="58.17777777775334" y="-436.0" type="line"/>
      <point x="318" y="-326"/>
      <point x="496" y="-49"/>
      <point x="495.51947712416" y="515.0" type="curve" smooth="yes"/>
      <point x="495.51947712416" y="525.0" type="line" smooth="yes"/>
      <point x="496" y="1059"/>
      <point x="318" y="1366"/>
      <point x="58.17777777775334" y="1476.0" type="curve"/>
      <point x="58.17777777775334" y="1395.7124183006867" type="line"/>
      <point x="249" y="1300"/>
      <point x="381" y="1058"/>
      <point x="381.0" y="532.0" type="curve" smooth="yes"/>
      <point x="381.0" y="508.0" type="line" smooth="yes"/>
      <point x="381" y="-43"/>
      <point x="249" y="-261"/>
      <point x="58.17777777775334" y="-356.44575163402" type="curve"/>
    </contour>
  </outline>
</glyph>
<glyph name="asterisk" format="2">
  <advance width="989"/>
  <unicode hex="002A"/>
  <outline>
    <contour>
      <point x="58.0" y="1114.6694379084868" type="line"/>
      <point x="433.10196078432665" y="1014.2364967320333" type="line"/>
      <point x="190.83014379082667" y="712.9510065359334" type="line"/>
      <point x="279.0223529412067" y="644.0952679738534" type="line"/>
      <point x="494.81416993463336" y="967.6660915032867" type="line"/>
      <point x="710.6059869281333" y="644.0952679738534" type="line"/>
      <point x="799.8648627451066" y="712.9510065359334" type="line"/>
      <point x="556.52637908494" y="1014.2364967320333" type="line"/>
      <point x="931.6283398692667" y="1114.6694379084868" type="line"/>
      <point x="898.19586928104" y="1227.15231372546" type="line"/>
      <point x="534.2518431372333" y="1089.48277124182" type="line"/>
      <point x="550.0771764705667" y="1476.0" type="line"/>
      <point x="439.5511633987" y="1476.0" type="line"/>
      <point x="456.4431633987" y="1089.48277124182" type="line"/>
      <point x="91.43247058822666" y="1227.15231372546" type="line"/>
    </contour>
  </outline>
</glyph>
<glyph name="plus" format="2">
  <advance width="1360"/>
  <unicode hex="002B"/>
  <outline>
    <contour>
      <point x="189.71262745099332" y="622.85406535948" type="line"/>
      <point x="1170.5644967320334" y="622.85406535948" type="line"/>
      <point x="1170.5644967320334" y="727.7524705882266" type="line"/>
      <point x="189.71262745099332" y="727.7524705882266" type="line"/>
    </contour>
    <contour>
      <point x="626.0768888889133" y="133.83979084969332" type="line"/>
      <point x="734.2002352941133" y="133.83979084969332" type="line"/>
      <point x="734.2002352941133" y="1214.1602091503066" type="line"/>
      <point x="626.0768888889133" y="1214.1602091503066" type="line"/>
    </contour>
  </outline>
</glyph>
<glyph name="comma" format="2">
  <advance width="519"/>
  <unicode hex="002C"/>
  <outline>
    <contour>
      <point x="143.64946405229333" y="-171.85453594770667" type="curve"/>
      <point x="217.05247058822667" y="-221.28773856208" type="line"/>
      <point x="286" y="-152"/>
      <point x="329" y="-62"/>
      <point x="329.0181437908267" y="54.91053594770667" type="curve" smooth="yes"/>
      <point x="329.0181437908267" y="174.87027450978667" type="line"/>
      <point x="210.0" y="174.87027450978667" type="line"/>
      <point x="210.0" y="54.91053594770667" type="line" smooth="yes"/>
      <point x="210" y="-39"/>
      <point x="188" y="-106"/>
    </contour>
  </outline>
</glyph>
<glyph name="hyphen" format="2">
  <advance width="512"/>
  <unicode hex="002D"/>
  <outline>
    <contour>
      <point x="13.934640522860008" y="582.0974640522934" type="line"/>
      <point x="497.3936732026" y="582.0974640522934" type="line"/>
      <point x="497.3936732026" y="689.93986928104" type="line"/>
      <point x="13.934640522860008" y="689.93986928104" type="line"/>
    </contour>
  </outline>
</glyph>
<glyph name="period" format="2">
  <advance width="491"/>
  <unicode hex="002E"/>
  <outline>
    <contour>
      <point x="160.0" y="77.44313725489334" type="curve" smooth="yes"/>
      <point x="160" y="23"/>
      <point x="191" y="-22"/>
      <point x="244.85500653593334" y="-22.0" type="curve" smooth="yes"/>
      <point x="301" y="-22"/>
      <point x="330" y="23"/>
      <point x="330.21328104572" y="76.87973856208001" type="curve" smooth="yes"/>
      <point x="330" y="133"/>
      <point x="300" y="177"/>
      <point x="246.42494117645333" y="177.38954248364" type="curve" smooth="yes"/>
      <point x="190" y="177"/>
      <point x="160" y="133"/>
    </contour>
  </outline>
</glyph>
<glyph name="slash" format="2">
  <advance width="483"/>
  <unicode hex="002F"/>
  <outline>
    <contour>
      <point x="-111.43267973853334" y="-125.0" type="line"/>
      <point x="16.258823529433336" y="-125.0" type="line"/>
      <point x="594.59921568624" y="1456.0" type="line"/>
      <point x="465.7838431372333" y="1456.0" type="line"/>
    </contour>
  </outline>
</glyph>
<glyph name="zero" format="2">
  <advance width="1089"/>
  <unicode hex="0030"/>
  <outline>
    <contour>
      <point x="153.1006535948" y="430.06274509801335" type="line" smooth="yes"/>
      <point x="153" y="144"/>
      <point x="296" y="-30"/>
      <point x="544.2562091503066" y="-30.0" type="curve" smooth="yes"/>
      <point x="792" y="-30"/>
      <point x="936" y="144"/>
      <point x="935.91503267974" y="430.06274509801335" type="curve" smooth="yes"/>
      <point x="935.91503267974" y="1024.47058823532" type="line" smooth="yes"/>
      <point x="936" y="1312"/>
      <point x="792" y="1486"/>
      <point x="544.2562091503066" y="1486.0" type="curve" smooth="yes"/>
      <point x="296" y="1486"/>
      <point x="153" y="1312"/>
      <point x="153.1006535948" y="1024.47058823532" type="curve" smooth="yes"/>
    </contour>
    <contour>
      <point x="268.06666666666666" y="422.9960784313467" type="curve" smooth="yes"/>
      <point x="268.06666666666666" y="1029.3372549019866" type="line" smooth="yes"/>
      <point x="268" y="1237"/>
      <point x="362" y="1384"/>
      <point x="544.2562091503066" y="1383.8470588235466" type="curve" smooth="yes"/>
      <point x="727" y="1384"/>
      <point x="821" y="1237"/>
      <point x="821.4522875817268" y="1029.3372549019866" type="curve" smooth="yes"/>
      <point x="821.4522875817268" y="422.9960784313467" type="line" smooth="yes"/>
      <point x="821" y="216"/>
      <point x="726" y="72"/>
      <point x="544.2562091503066" y="72.15294117645334" type="curve" smooth="yes"/>
      <point x="363" y="72"/>
      <point x="268" y="216"/>
    </contour>
  </outline>
</glyph>
<glyph name="one" format="2">
  <advance width="1089"/>
  <unicode hex="0031"/>
  <outline>
    <contour>
      <point x="545.8496732026" y="0.0" type="line"/>
      <point x="659.5490196078733" y="0.0" type="line"/>
      <point x="659.5490196078733" y="1476.0" type="line"/>
      <point x="626.0366013071866" y="1476.0" type="line"/>
      <point x="201.15424836598" y="1318.3333333333333" type="line"/>
      <point x="201.15424836598" y="1206.3869281045866" type="line"/>
      <point x="545.8496732026" y="1331.0431372548933" type="line"/>
    </contour>
  </outline>
</glyph>
<glyph name="two" format="2">
  <advance width="1089"/>
  <unicode hex="0032"/>
  <outline>
    <contour>
      <point x="153.60392156865333" y="0.0" type="line"/>
      <point x="981.9215686274466" y="0.0" type="line"/>
      <point x="981.9215686274466" y="87.85359477125334" type="line"/>
      <point x="275.23529411766003" y="87.85359477125334" type="line"/>
      <point x="731.9241830065" y="661.6967320261467" type="line" smooth="yes"/>
      <point x="882" y="853"/>
      <point x="939" y="958"/>
      <point x="938.9751633987" y="1125.1934640522934" type="curve" smooth="yes"/>
      <point x="939" y="1328"/>
      <point x="800" y="1486"/>
      <point x="565.6928104574934" y="1486.0" type="curve" smooth="yes"/>
      <point x="324" y="1486"/>
      <point x="155" y="1322"/>
      <point x="155.3006535948" y="1039.9934640522933" type="curve" smooth="yes"/>
      <point x="155.3006535948" y="1026.3267973856266" type="line"/>
      <point x="267.73333333333335" y="1026.3267973856266" type="line"/>
      <point x="267.73333333333335" y="1040.7267973856267" type="line" smooth="yes"/>
      <point x="268" y="1279"/>
      <point x="388" y="1383"/>
      <point x="565.6928104574934" y="1383.8470588235466" type="curve" smooth="yes"/>
      <point x="734" y="1385"/>
      <point x="826" y="1269"/>
      <point x="825.8091503268333" y="1121.06013071896" type="curve" smooth="yes"/>
      <point x="826" y="972"/>
      <point x="756" y="859"/>
      <point x="652.7477124182733" y="726.4326797385334" type="curve" smooth="yes"/>
      <point x="153.60392156865333" y="94.01960784312001" type="line"/>
    </contour>
  </outline>
</glyph>
<glyph name="three" format="2">
  <advance width="1089"/>
  <unicode hex="0033"/>
  <outline>
    <contour>
      <point x="124.56732026146666" y="379.53986928104" type="line" smooth="yes"/>
      <point x="125" y="128"/>
      <point x="328" y="-32"/>
      <point x="538.12941176468" y="-30.733333333333334" type="curve" smooth="yes"/>
      <point x="772" y="-30"/>
      <point x="953" y="139"/>
      <point x="953.2915032679667" y="383.16993464052" type="curve" smooth="yes"/>
      <point x="953" y="598"/>
      <point x="834" y="722"/>
      <point x="676.5071895425067" y="759.8" type="curve"/>
      <point x="676.5071895425067" y="763.8" type="line"/>
      <point x="831" y="833"/>
      <point x="903" y="959"/>
      <point x="903.20522875818" y="1099.4967320261467" type="curve" smooth="yes"/>
      <point x="903" y="1327"/>
      <point x="749" y="1486"/>
      <point x="538.1587450980134" y="1486.0" type="curve" smooth="yes"/>
      <point x="341" y="1486"/>
      <point x="162" y="1321"/>
      <point x="161.98039215688" y="1098.9934640522933" type="curve" smooth="yes"/>
      <point x="161.98039215688" y="1081.66013071896" type="line"/>
      <point x="271.6496732026" y="1081.66013071896" type="line"/>
      <point x="271.6496732026" y="1098.9934640522933" type="line" smooth="yes"/>
      <point x="272" y="1272"/>
      <point x="406" y="1384"/>
      <point x="538.1587450980134" y="1384.6729934640666" type="curve" smooth="yes"/>
      <point x="684" y="1385"/>
      <point x="790" y="1283"/>
      <point x="789.5058823529066" y="1095.6967320261467" type="curve" smooth="yes"/>
      <point x="790" y="919"/>
      <point x="666" y="810"/>
      <point x="492.13113725489336" y="809.93986928104" type="curve" smooth="yes"/>
      <point x="388.38504575160664" y="809.93986928104" type="line"/>
      <point x="388.38504575160664" y="707.5568627451066" type="line"/>
      <point x="501.91973856208" y="707.5568627451066" type="line" smooth="yes"/>
      <point x="682" y="708"/>
      <point x="838" y="607"/>
      <point x="837.5921568627667" y="387.0732026143733" type="curve" smooth="yes"/>
      <point x="838" y="180"/>
      <point x="703" y="72"/>
      <point x="538.12941176468" y="71.64967320260001" type="curve" smooth="yes"/>
      <point x="363" y="72"/>
      <point x="235" y="185"/>
      <point x="235.2" y="381.00653594770665" type="curve" smooth="yes"/>
      <point x="235.2" y="391.00653594770665" type="line"/>
      <point x="124.56732026146666" y="391.00653594770665" type="line"/>
    </contour>
  </outline>
</glyph>
<glyph name="four" format="2">
  <advance width="1089"/>
  <unicode hex="0034"/>
  <outline>
    <contour>
      <point x="705.73986928104" y="0.0" type="line"/>
      <point x="814.5424836601667" y="0.0" type="line"/>
      <point x="814.5424836601667" y="1456.0" type="line"/>
      <point x="730.46013071896" y="1456.0" type="line"/>
      <point x="69.24052287584" y="452.75294117645336" type="line"/>
      <point x="69.24052287584" y="357.56339869281334" type="line"/>
      <point x="1008.8575163398334" y="357.56339869281334" type="line"/>
      <point x="1008.8575163398334" y="458.1464052287467" type="line"/>
      <point x="779.72026143792" y="458.1464052287467" type="line"/>
      <point x="743.0875816993133" y="458.1464052287467" type="line"/>
      <point x="190.60915032683334" y="458.1464052287467" type="line"/>
      <point x="696.6732026143733" y="1203.03529411766" type="line"/>
      <point x="705.73986928104" y="1203.03529411766" type="line"/>
      <point x="705.73986928104" y="422.93333333333334" type="line"/>
      <point x="705.73986928104" y="394.3333333333333" type="line"/>
    </contour>
  </outline>
</glyph>
<glyph name="five" format="2">
  <advance width="1089"/>
  <unicode hex="0035"/>
  <outline>
    <contour>
      <point x="129.9006535948" y="363.80653594770666" type="line" smooth="yes"/>
      <point x="130" y="122"/>
      <point x="327" y="-30"/>
      <point x="543.35947712416" y="-30.0" type="curve" smooth="yes"/>
      <point x="789" y="-30"/>
      <point x="954" y="157"/>
      <point x="954.0915032679667" y="465.0" type="curve" smooth="yes"/>
      <point x="954" y="757"/>
      <point x="788" y="926"/>
      <point x="561.2823529412067" y="925.6666666666666" type="curve" smooth="yes"/>
      <point x="455" y="926"/>
      <point x="338" y="867"/>
      <point x="284.78300653593334" y="799.3477124182733" type="curve"/>
      <point x="343.8496732026" y="1349.5137254902133" type="line"/>
      <point x="890.6588235294333" y="1349.5137254902133" type="line"/>
      <point x="890.6588235294333" y="1456.0" type="line"/>
      <point x="249.12026143792" y="1456.0" type="line"/>
      <point x="175.78692810458665" y="716.5267973856267" type="line"/>
      <point x="258.9254901961" y="677.3673202614667" type="line"/>
      <point x="317" y="754"/>
      <point x="441" y="825"/>
      <point x="543.9228758169734" y="823.7503267974" type="curve" smooth="yes"/>
      <point x="725" y="824"/>
      <point x="841" y="699"/>
      <point x="840.9254901961" y="465.0" type="curve" smooth="yes"/>
      <point x="841" y="215"/>
      <point x="725" y="72"/>
      <point x="543.35947712416" y="71.64967320260001" type="curve" smooth="yes"/>
      <point x="361" y="72"/>
      <point x="239" y="183"/>
      <point x="239.26666666666668" y="366.00653594770665" type="curve" smooth="yes"/>
      <point x="239.26666666666668" y="376.00653594770665" type="line"/>
      <point x="129.9006535948" y="376.00653594770665" type="line"/>
    </contour>
  </outline>
</glyph>
<glyph name="six" format="2">
  <advance width="1089"/>
  <unicode hex="0036"/>
  <outline>
    <contour>
      <point x="124.14117647056668" y="614.0" type="line" smooth="yes"/>
      <point x="124" y="180"/>
      <point x="315" y="-30"/>
      <point x="575.81960784312" y="-30.0" type="curve" smooth="yes"/>
      <point x="823" y="-30"/>
      <point x="985" y="169"/>
      <point x="985.1150326797399" y="464.0" type="curve" smooth="yes"/>
      <point x="985" y="746"/>
      <point x="839" y="935"/>
      <point x="595.46928104572" y="934.56993464052" type="curve" smooth="yes"/>
      <point x="358" y="935"/>
      <point x="182" y="742"/>
      <point x="182.49411764709333" y="464.0" type="curve"/>
      <point x="229.30718954250668" y="464.0" type="line"/>
      <point x="229" y="681"/>
      <point x="391" y="833"/>
      <point x="578.9830065359333" y="832.92026143792" type="curve" smooth="yes"/>
      <point x="768" y="833"/>
      <point x="872" y="700"/>
      <point x="871.9490196078733" y="464.0" type="curve" smooth="yes"/>
      <point x="872" y="214"/>
      <point x="770" y="72"/>
      <point x="575.3163398692667" y="71.64967320260001" type="curve" smooth="yes"/>
      <point x="381" y="72"/>
      <point x="235" y="214"/>
      <point x="235.30718954250668" y="604.0" type="curve" smooth="yes"/>
      <point x="235.30718954250668" y="654.0" type="line" smooth="yes"/>
      <point x="235" y="1132"/>
      <point x="471" y="1384"/>
      <point x="787.5267973856267" y="1383.8470588235466" type="curve" smooth="yes"/>
      <point x="806.0666666666666" y="1383.8470588235466" type="line"/>
      <point x="806.0666666666666" y="1486.0" type="line"/>
      <point x="787.5267973856267" y="1486.0" type="line" smooth="yes"/>
      <point x="391" y="1486"/>
      <point x="124" y="1157"/>
      <point x="124.14117647056668" y="644.0" type="curve" smooth="yes"/>
    </contour>
  </outline>
</glyph>
<glyph name="seven" format="2">
  <advance width="1089"/>
  <unicode hex="0037"/>
  <outline>
    <contour>
      <point x="293.88366013073335" y="0.0" type="line"/>
      <point x="414.78954248364" y="0.0" type="line"/>
      <point x="961.48496732026" y="1375.5437908496933" type="line"/>
      <point x="961.48496732026" y="1456.0" type="line"/>
      <point x="91.64705882354667" y="1456.0" type="line"/>
      <point x="91.64705882354667" y="1357.3568627451068" type="line"/>
      <point x="844.9725490195733" y="1357.3568627451068" type="line"/>
    </contour>
  </outline>
</glyph>
<glyph name="eight" format="2">
  <advance width="1073"/>
  <unicode hex="0038"/>
  <outline>
    <contour>
      <point x="121.01732026146666" y="380.8666666666667" type="curve" smooth="yes"/>
      <point x="121" y="118"/>
      <point x="296" y="-30"/>
      <point x="535.4562091503067" y="-30.0" type="curve" smooth="yes"/>
      <point x="775" y="-30"/>
      <point x="953" y="118"/>
      <point x="953.25490196078" y="380.8666666666667" type="curve" smooth="yes"/>
      <point x="953" y="568"/>
      <point x="850" y="691"/>
      <point x="691.5071895425067" y="742.0068627451067" type="curve"/>
      <point x="691.5071895425067" y="746.0068627451067" type="line"/>
      <point x="824" y="798"/>
      <point x="910" y="930"/>
      <point x="910.1320261438067" y="1092.1333333333334" type="curve" smooth="yes"/>
      <point x="910" y="1327"/>
      <point x="751" y="1486"/>
      <point x="535.4562091503067" y="1486.0" type="curve" smooth="yes"/>
      <point x="320" y="1486"/>
      <point x="164" y="1330"/>
      <point x="163.63692810458667" y="1092.1333333333334" type="curve" smooth="yes"/>
      <point x="164" y="930"/>
      <point x="250" y="797"/>
      <point x="380.7084967320333" y="746.0068627451067" type="curve"/>
      <point x="380.7084967320333" y="742.0068627451067" type="line"/>
      <point x="227" y="686"/>
      <point x="121" y="565"/>
    </contour>
    <contour>
      <point x="233.65" y="385.16993464052" type="curve" smooth="yes"/>
      <point x="234" y="570"/>
      <point x="346" y="693"/>
      <point x="535.4562091503067" y="694.26013071896" type="curve" smooth="yes"/>
      <point x="724" y="694"/>
      <point x="840" y="569"/>
      <point x="839.55555555558" y="385.16993464052" type="curve" smooth="yes"/>
      <point x="840" y="188"/>
      <point x="724" y="71"/>
      <point x="535.4562091503067" y="71.14640522874667" type="curve" smooth="yes"/>
      <point x="346" y="70"/>
      <point x="234" y="199"/>
    </contour>
    <contour>
      <point x="273.73627450978665" y="1087.8300653594802" type="curve" smooth="yes"/>
      <point x="274" y="1262"/>
      <point x="372" y="1386"/>
      <point x="535.4562091503067" y="1384.8535947712533" type="curve" smooth="yes"/>
      <point x="698" y="1385"/>
      <point x="800" y="1262"/>
      <point x="800.0326797385334" y="1087.8300653594802" type="curve" smooth="yes"/>
      <point x="800" y="917"/>
      <point x="698" y="796"/>
      <point x="535.4562091503067" y="795.73986928104" type="curve" smooth="yes"/>
      <point x="372" y="797"/>
      <point x="274" y="917"/>
    </contour>
  </outline>
</glyph>
<glyph name="nine" format="2">
  <advance width="1089"/>
  <unicode hex="0039"/>
  <outline>
    <contour>
      <point x="103.90065359479999" y="994.6666666666666" type="curve" smooth="yes"/>
      <point x="104" y="715"/>
      <point x="251" y="527"/>
      <point x="493.04313725489334" y="526.7633986928133" type="curve" smooth="yes"/>
      <point x="730" y="527"/>
      <point x="908" y="718"/>
      <point x="907.5882352941132" y="994.6666666666666" type="curve"/>
      <point x="859.20522875818" y="994.6666666666666" type="line"/>
      <point x="859" y="778"/>
      <point x="698" y="628"/>
      <point x="509.52941176468" y="628.4130718954134" type="curve" smooth="yes"/>
      <point x="320" y="628"/>
      <point x="218" y="760"/>
      <point x="218.13333333333333" y="994.6666666666666" type="curve" smooth="yes"/>
      <point x="218" y="1243"/>
      <point x="326" y="1384"/>
      <point x="519.7960784313467" y="1384.3503267974002" type="curve" smooth="yes"/>
      <point x="715" y="1384"/>
      <point x="853" y="1242"/>
      <point x="853.20522875818" y="852.0" type="curve" smooth="yes"/>
      <point x="853.20522875818" y="802.0" type="line" smooth="yes"/>
      <point x="853" y="324"/>
      <point x="618" y="72"/>
      <point x="301.4888888889133" y="72.15294117645334" type="curve" smooth="yes"/>
      <point x="282.44575163402" y="72.15294117645334" type="line"/>
      <point x="282.44575163402" y="-30.0" type="line"/>
      <point x="301.4888888889133" y="-30.0" type="line" smooth="yes"/>
      <point x="690" y="-30"/>
      <point x="965" y="299"/>
      <point x="964.8745098039" y="812.0" type="curve" smooth="yes"/>
      <point x="964.8745098039" y="842.0" type="line" smooth="yes"/>
      <point x="965" y="1276"/>
      <point x="781" y="1486"/>
      <point x="519.7960784313467" y="1486.0" type="curve" smooth="yes"/>
      <point x="273" y="1486"/>
      <point x="104" y="1288"/>
    </contour>
  </outline>
</glyph>
<glyph name="colon" format="2">
  <advance width="518"/>
  <unicode hex="003A"/>
  <outline>
    <contour>
      <point x="176.0" y="74.37647058822667" type="curve" smooth="yes"/>
      <point x="176" y="15"/>
      <point x="209" y="-22"/>
      <point x="259.38300653593336" y="-22.0" type="curve" smooth="yes"/>
      <point x="310" y="-22"/>
      <point x="342" y="15"/>
      <point x="342.0326797385334" y="74.37647058822667" type="curve" smooth="yes"/>
      <point x="342" y="133"/>
      <point x="310" y="171"/>
      <point x="259.38300653593336" y="170.75294117645333" type="curve" smooth="yes"/>
      <point x="208" y="171"/>
      <point x="176" y="133"/>
    </contour>
    <contour>
      <point x="176.0" y="971.6235294117733" type="curve" smooth="yes"/>
      <point x="176" y="913"/>
      <point x="209" y="875"/>
      <point x="259.38300653593336" y="875.2470588235467" type="curve" smooth="yes"/>
      <point x="310" y="875"/>
      <point x="342" y="913"/>
      <point x="342.0326797385334" y="971.6235294117733" type="curve" smooth="yes"/>
      <point x="342" y="1031"/>
      <point x="310" y="1068"/>
      <point x="259.38300653593336" y="1068.0" type="curve" smooth="yes"/>
      <point x="208" y="1068"/>
      <point x="176" y="1031"/>
    </contour>
  </outline>
</glyph>
<glyph name="semicolon" format="2">
  <advance width="518"/>
  <unicode hex="003B"/>
  <outline>
    <contour>
      <point x="148.16266666666667" y="-171.85453594770667" type="curve"/>
      <point x="221.5656732026" y="-221.28773856208" type="line"/>
      <point x="292" y="-150"/>
      <point x="333" y="-62"/>
      <point x="332.52481045749334" y="55.97720261437334" type="curve" smooth="yes"/>
      <point x="332.52481045749334" y="174.36700653593334" type="line"/>
      <point x="215.57986928104" y="174.36700653593334" type="line"/>
      <point x="215.57986928104" y="54.91053594770667" type="line" smooth="yes"/>
      <point x="216" y="-39"/>
      <point x="192" y="-106"/>
    </contour>
    <contour>
      <point x="176.0" y="971.6235294117733" type="curve" smooth="yes"/>
      <point x="176" y="913"/>
      <point x="209" y="875"/>
      <point x="259.38300653593336" y="875.2470588235467" type="curve" smooth="yes"/>
      <point x="310" y="875"/>
      <point x="342" y="913"/>
      <point x="342.0326797385334" y="971.6235294117733" type="curve" smooth="yes"/>
      <point x="342" y="1031"/>
      <point x="310" y="1068"/>
      <point x="259.38300653593336" y="1068.0" type="curve" smooth="yes"/>
      <point x="208" y="1068"/>
      <point x="176" y="1031"/>
    </contour>
  </outline>
</glyph>
<glyph name="less" format="2">
  <advance width="1327"/>
  <unicode hex="003C"/>
  <outline>
    <contour>
      <point x="1051.3111633987" y="243.10619607844" type="line"/>
      <point x="1051.3111633987" y="346.4206535948" type="line"/>
      <point x="370.53824836598" y="670.09019607844" type="line"/>
      <point x="1051.3111633987" y="993.75973856208" type="line"/>
      <point x="1051.3111633987" y="1110.1068758169733" type="line"/>
      <point x="264.8287581699533" y="727.0390065359333" type="line"/>
      <point x="264.8287581699533" y="626.17406535948" type="line"/>
    </contour>
  </outline>
</glyph>
<glyph name="equal" format="2">
  <advance width="1325"/>
  <unicode hex="003D"/>
  <outline>
    <contour>
      <point x="313.37045751636" y="435.33427450978667" type="line"/>
      <point x="1011.4036078431201" y="435.33427450978667" type="line"/>
      <point x="1011.4036078431201" y="533.1529411764533" type="line"/>
      <point x="313.37045751636" y="533.1529411764533" type="line"/>
    </contour>
    <contour>
      <point x="313.37045751636" y="843.5189542483934" type="line"/>
      <point x="1011.4036078431201" y="843.5189542483934" type="line"/>
      <point x="1011.4036078431201" y="941.3376209150599" type="line"/>
      <point x="313.37045751636" y="941.3376209150599" type="line"/>
    </contour>
  </outline>
</glyph>
<glyph name="greater" format="2">
  <advance width="1327"/>
  <unicode hex="003E"/>
  <outline>
    <contour>
      <point x="275.43529411765996" y="243.10619607844" type="line"/>
      <point x="1061.9176993464066" y="626.17406535948" type="line"/>
      <point x="1061.9176993464066" y="727.0390065359333" type="line"/>
      <point x="275.43529411765996" y="1110.1068758169733" type="line"/>
      <point x="275.43529411765996" y="1006.7924183006867" type="line"/>
      <point x="956.2082091503066" y="683.1228758169733" type="line"/>
      <point x="275.43529411765996" y="359.4533333333333" type="line"/>
    </contour>
  </outline>
</glyph>
<glyph name="question" format="2">
  <advance width="820"/>
  <unicode hex="003F"/>
  <outline>
    <contour>
      <point x="279.75973856208" y="74.43513725489333" type="curve" smooth="yes"/>
      <point x="280" y="22"/>
      <point x="309" y="-22"/>
      <point x="363.4406797385334" y="-22.0" type="curve" smooth="yes"/>
      <point x="417" y="-22"/>
      <point x="446" y="22"/>
      <point x="445.55168627454" y="74.43513725489333" type="curve" smooth="yes"/>
      <point x="446" y="127"/>
      <point x="416" y="171"/>
      <point x="362.37401307186667" y="170.87027450978667" type="curve" smooth="yes"/>
      <point x="310" y="171"/>
      <point x="280" y="127"/>
    </contour>
    <contour>
      <point x="75.77913725489334" y="1093.49019607844" type="line"/>
      <point x="187.23508496735334" y="1093.49019607844" type="line"/>
      <point x="187.23508496735334" y="1113.49019607844" type="line" smooth="yes"/>
      <point x="187" y="1281"/>
      <point x="259" y="1373"/>
      <point x="395.46975163402" y="1373.1709281045867" type="curve" smooth="yes"/>
      <point x="532" y="1373"/>
      <point x="598" y="1277"/>
      <point x="597.6931503268333" y="1126.06013071896" type="curve" smooth="yes"/>
      <point x="598" y="978"/>
      <point x="550" y="899"/>
      <point x="450.33924183004666" y="784.9927320261467" type="curve" smooth="yes"/>
      <point x="342" y="659"/>
      <point x="302" y="577"/>
      <point x="302.2630065359333" y="421.00653594770665" type="curve" smooth="yes"/>
      <point x="302.2630065359333" y="411.00653594770665" type="line"/>
      <point x="414.1762875817267" y="411.00653594770665" type="line"/>
      <point x="414.1762875817267" y="421.00653594770665" type="line" smooth="yes"/>
      <point x="414" y="521"/>
      <point x="432" y="606"/>
      <point x="536.3607320261467" y="723.63586928104" type="curve" smooth="yes"/>
      <point x="637" y="835"/>
      <point x="709" y="941"/>
      <point x="709.1031633987" y="1126.06013071896" type="curve" smooth="yes"/>
      <point x="709" y="1336"/>
      <point x="593" y="1476"/>
      <point x="395.46975163402" y="1476.0" type="curve" smooth="yes"/>
      <point x="196" y="1476"/>
      <point x="76" y="1339"/>
      <point x="75.77913725489334" y="1113.49019607844" type="curve" smooth="yes"/>
    </contour>
  </outline>
</glyph>
<glyph name="at" format="2">
  <advance width="1891"/>
  <unicode hex="0040"/>
  <outline>
    <contour>
      <point x="589.7026928104733" y="400.0" type="curve" smooth="yes"/>
      <point x="590" y="159"/>
      <point x="686" y="0"/>
      <point x="839.5916862745399" y="0.0" type="curve" smooth="yes"/>
      <point x="942" y="0"/>
      <point x="1030" y="71"/>
      <point x="1076.7327581699533" y="184.98666666666668" type="curve"/>
      <point x="1121" y="73"/>
      <point x="1219" y="0"/>
      <point x="1356.2831895425068" y="0.0" type="curve" smooth="yes"/>
      <point x="1592" y="0"/>
      <point x="1777" y="261"/>
      <point x="1777.2944836601669" y="650.0" type="curve" smooth="yes"/>
      <point x="1777" y="1119"/>
      <point x="1468" y="1486"/>
      <point x="988.0735163398333" y="1486.0" type="curve" smooth="yes"/>
      <point x="506" y="1486"/>
      <point x="114" y="1023"/>
      <point x="114.0" y="460.0" type="curve" smooth="yes"/>
      <point x="114" y="-103"/>
      <point x="460" y="-446"/>
      <point x="892.4643660130735" y="-446.0" type="curve" smooth="yes"/>
      <point x="1071" y="-446"/>
      <point x="1185" y="-415"/>
      <point x="1276.0277647058867" y="-356.0" type="curve"/>
      <point x="1276.0277647058867" y="-256.17892810458665" type="line"/>
      <point x="1191" y="-304"/>
      <point x="1071" y="-346"/>
      <point x="892.4643660130735" y="-346.17892810458665" type="curve" smooth="yes"/>
      <point x="508" y="-346"/>
      <point x="224" y="-58"/>
      <point x="224.36407843134668" y="460.0" type="curve" smooth="yes"/>
      <point x="224" y="973"/>
      <point x="553" y="1386"/>
      <point x="988.0735163398333" y="1386.1789281045867" type="curve" smooth="yes"/>
      <point x="1422" y="1386"/>
      <point x="1670" y="1041"/>
      <point x="1670.2751372548933" y="650.0" type="curve" smooth="yes"/>
      <point x="1670" y="315"/>
      <point x="1542" y="90"/>
      <point x="1356.1498562091733" y="90.35780392155999" type="curve" smooth="yes"/>
      <point x="1236" y="90"/>
      <point x="1146" y="154"/>
      <point x="1185.0590326797399" y="350.0" type="curve" smooth="yes"/>
      <point x="1300.6313202614665" y="946.0" type="line"/>
      <point x="1240.2471633987" y="946.0" type="line"/>
      <point x="1194" y="992"/>
      <point x="1106" y="1052"/>
      <point x="1012.9801830064999" y="1052.0" type="curve" smooth="yes"/>
      <point x="781" y="1052"/>
      <point x="590" y="775"/>
    </contour>
    <contour>
      <point x="701.3928366013" y="400.0" type="curve" smooth="yes"/>
      <point x="701" y="722"/>
      <point x="838" y="959"/>
      <point x="1027.0120522876134" y="959.1335947712533" type="curve" smooth="yes"/>
      <point x="1084" y="959"/>
      <point x="1148" y="940"/>
      <point x="1186.7519738561934" y="906.0935947712534" type="curve"/>
      <point x="1082.3792941176598" y="391.00653594770665" type="line" smooth="yes"/>
      <point x="1036" y="176"/>
      <point x="960" y="99"/>
      <point x="862.7126274509933" y="99.31780392156" type="curve" smooth="yes"/>
      <point x="758" y="99"/>
      <point x="701" y="202"/>
    </contour>
  </outline>
</glyph>
<glyph name="A" format="2">
  <advance width="1068"/>
  <unicode hex="0041"/>
  <outline>
    <contour>
      <point x="0.0" y="0.0" type="line"/>
      <point x="111.17254901957334" y="0.0" type="line"/>
      <point x="477.6261437908267" y="1199.38039215688" type="line" smooth="yes"/>
      <point x="497" y="1257"/>
      <point x="514" y="1306"/>
      <point x="527.2379084967133" y="1357.5477124182732" type="curve"/>
      <point x="536.1111111110866" y="1357.5477124182732" type="line"/>
      <point x="549" y="1306"/>
      <point x="565" y="1257"/>
      <point x="584.0928104574933" y="1199.38039215688" type="curve" smooth="yes"/>
      <point x="950.1464052287466" y="0.0" type="line"/>
      <point x="1068.29542483662" y="0.0" type="line"/>
      <point x="613.2732026143733" y="1466.0" type="line"/>
      <point x="454.2287581699534" y="1466.0" type="line"/>
    </contour>
    <contour>
      <point x="182.00522875818" y="410.1869281045867" type="line"/>
      <point x="210.40130718952668" y="508.5032679738533" type="line"/>
      <point x="853.8209150326466" y="508.5032679738533" type="line"/>
      <point x="881.72026143792" y="410.1869281045867" type="line"/>
    </contour>
  </outline>
</glyph>
<glyph name="B" format="2">
  <advance width="1071"/>
  <unicode hex="0042"/>
  <outline>
    <contour>
      <point x="170.0" y="0.0" type="line"/>
      <point x="576.3431633987" y="0.0" type="line" smooth="yes"/>
      <point x="818" y="0"/>
      <point x="971" y="141"/>
      <point x="970.5252549019867" y="403.904" type="curve" smooth="yes"/>
      <point x="971" y="602"/>
      <point x="880" y="727"/>
      <point x="741.0420130718667" y="763.0026666666666" type="curve"/>
      <point x="741.0420130718667" y="767.0026666666666" type="line"/>
      <point x="850" y="801"/>
      <point x="928" y="914"/>
      <point x="928.33231372546" y="1083.0346666666667" type="curve" smooth="yes"/>
      <point x="928" y="1347"/>
      <point x="786" y="1456"/>
      <point x="543.39142483662" y="1456.0" type="curve" smooth="yes"/>
      <point x="170.0" y="1456.0" type="line"/>
    </contour>
    <contour>
      <point x="281.7820130718667" y="100.82373856208" type="line"/>
      <point x="281.7820130718667" y="707.5561307189599" type="line"/>
      <point x="576.3431633987" y="707.5561307189599" type="line" smooth="yes"/>
      <point x="771" y="708"/>
      <point x="857" y="591"/>
      <point x="857.2859084967133" y="405.47393464052" type="curve" smooth="yes"/>
      <point x="857" y="212"/>
      <point x="771" y="101"/>
      <point x="576.3431633987" y="100.82373856208" type="curve" smooth="yes"/>
    </contour>
    <contour>
      <point x="281.7820130718667" y="808.4438692810401" type="line"/>
      <point x="281.7820130718667" y="1355.17626143792" type="line"/>
      <point x="543.39142483662" y="1355.17626143792" type="line" smooth="yes"/>
      <point x="737" y="1355"/>
      <point x="815" y="1265"/>
      <point x="815.09296732026" y="1082.5313986928134" type="curve" smooth="yes"/>
      <point x="815" y="909"/>
      <point x="737" y="808"/>
      <point x="543.39142483662" y="808.4438692810401" type="curve" smooth="yes"/>
    </contour>
  </outline>
</glyph>
<glyph name="C" format="2">
  <advance width="1070"/>
  <unicode hex="0043"/>
  <outline>
    <contour>
      <point x="115.0" y="693.0690196078733" type="line" smooth="yes"/>
      <point x="115" y="186"/>
      <point x="308" y="-30"/>
      <point x="615.9677124182733" y="-30.0" type="curve" smooth="yes"/>
      <point x="898" y="-30"/>
      <point x="1065" y="149"/>
      <point x="1064.22321568624" y="457.00653594770665" type="curve" smooth="yes"/>
      <point x="1064.1565490195735" y="467.00653594770665" type="line"/>
      <point x="950.0025359477066" y="467.00653594770665" type="line"/>
      <point x="950.0692026143734" y="457.00653594770665" type="line"/>
      <point x="943" y="290"/>
      <point x="855" y="74"/>
      <point x="614.9010457516067" y="74.33500653593333" type="curve" smooth="yes"/>
      <point x="380" y="74"/>
      <point x="229" y="262"/>
      <point x="229.00201307186666" y="650.4023529412067" type="curve" smooth="yes"/>
      <point x="229.00201307186666" y="806.66431372546" type="line" smooth="yes"/>
      <point x="229" y="1159"/>
      <point x="358" y="1382"/>
      <point x="615.9677124182733" y="1381.6649934640668" type="curve" smooth="yes"/>
      <point x="856" y="1382"/>
      <point x="921" y="1170"/>
      <point x="948.5159346405201" y="998.9934640522933" type="curve" smooth="yes"/>
      <point x="950.0025359477066" y="988.9934640522933" type="line"/>
      <point x="1064.1565490195735" y="988.9934640522933" type="line"/>
      <point x="1062.6699477123866" y="998.9934640522933" type="line" smooth="yes"/>
      <point x="1021" y="1304"/>
      <point x="898" y="1486"/>
      <point x="615.9677124182733" y="1486.0" type="curve" smooth="yes"/>
      <point x="311" y="1486"/>
      <point x="115" y="1270"/>
      <point x="115.0" y="762.9309803921267" type="curve" smooth="yes"/>
    </contour>
  </outline>
</glyph>
<glyph name="D" format="2">
  <advance width="1173"/>
  <unicode hex="0044"/>
  <outline>
    <contour>
      <point x="170.0" y="0.0" type="line"/>
      <point x="499.4598169935" y="0.0" type="line" smooth="yes"/>
      <point x="827" y="0"/>
      <point x="1058" y="227"/>
      <point x="1057.6852026143733" y="693.0690196078733" type="curve" smooth="yes"/>
      <point x="1057.6852026143733" y="762.9309803921267" type="line" smooth="yes"/>
      <point x="1058" y="1229"/>
      <point x="827" y="1456"/>
      <point x="499.4598169935" y="1456.0" type="curve" smooth="yes"/>
      <point x="170.0" y="1456.0" type="line"/>
    </contour>
    <contour>
      <point x="283.61134640520004" y="101.32700653593334" type="line"/>
      <point x="283.61134640520004" y="1354.6729934640666" type="line"/>
      <point x="499.4598169935" y="1354.6729934640666" type="line" smooth="yes"/>
      <point x="772" y="1355"/>
      <point x="943" y="1173"/>
      <point x="942.61652287584" y="762.9309803921267" type="curve" smooth="yes"/>
      <point x="942.61652287584" y="693.0690196078733" type="line" smooth="yes"/>
      <point x="943" y="283"/>
      <point x="772" y="101"/>
      <point x="499.4598169935" y="101.32700653593334" type="curve" smooth="yes"/>
    </contour>
  </outline>
</glyph>
<glyph name="E" format="2">
  <advance width="982"/>
  <unicode hex="0045"/>
  <outline>
    <contour>
      <point x="170.0" y="0.0" type="line"/>
      <point x="913.7841045751534" y="0.0" type="line"/>
      <point x="913.7841045751534" y="101.32700653593334" type="line"/>
      <point x="283.61134640520004" y="101.32700653593334" type="line"/>
      <point x="283.61134640520004" y="700.0547973856267" type="line"/>
      <point x="802.3082875817267" y="700.0547973856267" type="line"/>
      <point x="802.3082875817267" y="801.9452026143733" type="line"/>
      <point x="283.61134640520004" y="801.9452026143733" type="line"/>
      <point x="283.61134640520004" y="1354.6729934640666" type="line"/>
      <point x="903.0461699346333" y="1354.6729934640666" type="line"/>
      <point x="903.0461699346333" y="1456.0" type="line"/>
      <point x="170.0" y="1456.0" type="line"/>
    </contour>
  </outline>
</glyph>
<glyph name="F" format="2">
  <advance width="948"/>
  <unicode hex="0046"/>
  <outline>
    <contour>
      <point x="170.0" y="0.0" type="line"/>
      <point x="283.61134640520004" y="0.0" type="line"/>
      <point x="283.61134640520004" y="670.6116601307333" type="line"/>
      <point x="803.14175163402" y="670.6116601307333" type="line"/>
      <point x="803.14175163402" y="770.872" type="line"/>
      <point x="283.61134640520004" y="770.872" type="line"/>
      <point x="283.61134640520004" y="1354.6729934640666" type="line"/>
      <point x="889.6876339869267" y="1354.6729934640666" type="line"/>
      <point x="889.6876339869267" y="1456.0" type="line"/>
      <point x="170.0" y="1456.0" type="line"/>
    </contour>
  </outline>
</glyph>
<glyph name="G" format="2">
  <advance width="1074"/>
  <unicode hex="0047"/>
  <outline>
    <contour>
      <point x="115.0" y="693.0690196078733" type="line" smooth="yes"/>
      <point x="115" y="157"/>
      <point x="318" y="-30"/>
      <point x="616.9194509804267" y="-30.0" type="curve" smooth="yes"/>
      <point x="852" y="-30"/>
      <point x="973" y="46"/>
      <point x="1058.1771503268335" y="128.63320261437335" type="curve"/>
      <point x="1058.1771503268335" y="698.4538039215599" type="line"/>
      <point x="622.5563137254601" y="698.4538039215599" type="line"/>
      <point x="622.5563137254601" y="596.06013071896" type="line"/>
      <point x="949.4804705882266" y="596.06013071896" type="line"/>
      <point x="949.4804705882266" y="173.0763398692667" type="line"/>
      <point x="870" y="106"/>
      <point x="768" y="74"/>
      <point x="622.25278431376" y="74.33500653593333" type="curve" smooth="yes"/>
      <point x="375" y="74"/>
      <point x="229" y="250"/>
      <point x="229.00201307186666" y="650.4023529412067" type="curve" smooth="yes"/>
      <point x="229.00201307186666" y="805.5976470587933" type="line" smooth="yes"/>
      <point x="229" y="1215"/>
      <point x="366" y="1382"/>
      <point x="597.36509803922" y="1381.6649934640668" type="curve" smooth="yes"/>
      <point x="834" y="1382"/>
      <point x="921" y="1244"/>
      <point x="942.2832679738533" y="1038.9934640522933" type="curve" smooth="yes"/>
      <point x="944.0231372548933" y="1028.9934640522933" type="line"/>
      <point x="1058.1771503268335" y="1028.9934640522933" type="line"/>
      <point x="1056.6738823529067" y="1037.44019607844" type="line" smooth="yes"/>
      <point x="1023" y="1319"/>
      <point x="895" y="1486"/>
      <point x="594.7585620915133" y="1486.0" type="curve" smooth="yes"/>
      <point x="320" y="1486"/>
      <point x="115" y="1265"/>
      <point x="115.0" y="762.9309803921267" type="curve" smooth="yes"/>
    </contour>
  </outline>
</glyph>
<glyph name="H" format="2">
  <advance width="1255"/>
  <unicode hex="0048"/>
  <outline>
    <contour>
      <point x="170.0" y="0.0" type="line"/>
      <point x="283.8" y="0.0" type="line"/>
      <point x="283.8" y="699.8" type="line"/>
      <point x="971.8666666666667" y="699.8" type="line"/>
      <point x="971.8666666666667" y="0.0" type="line"/>
      <point x="1084.9333333333334" y="0.0" type="line"/>
      <point x="1084.9333333333334" y="1456.0" type="line"/>
      <point x="971.8666666666667" y="1456.0" type="line"/>
      <point x="971.8666666666667" y="802.2" type="line"/>
      <point x="283.8" y="802.2" type="line"/>
      <point x="283.8" y="1456.0" type="line"/>
      <point x="170.0" y="1456.0" type="line"/>
    </contour>
  </outline>
</glyph>
<glyph name="I" format="2">
  <advance width="464"/>
  <unicode hex="0049"/>
  <outline>
    <contour>
      <point x="175.0" y="0.0" type="line"/>
      <point x="287.04141176468" y="0.0" type="line"/>
      <point x="287.04141176468" y="1456.0" type="line"/>
      <point x="175.0" y="1456.0" type="line"/>
    </contour>
  </outline>
</glyph>
<glyph name="J" format="2">
  <advance width="900"/>
  <unicode hex="004A"/>
  <outline>
    <contour>
      <point x="25.0" y="420.96470588234" type="line" smooth="yes"/>
      <point x="25" y="101"/>
      <point x="162" y="-30"/>
      <point x="385.3189542483933" y="-30.0" type="curve" smooth="yes"/>
      <point x="607" y="-30"/>
      <point x="744" y="113"/>
      <point x="743.8379084967133" y="445.96470588234" type="curve" smooth="yes"/>
      <point x="743.8379084967133" y="1456.0" type="line"/>
      <point x="631.7084967320334" y="1456.0" type="line"/>
      <point x="631.7084967320334" y="413.96470588234" type="line" smooth="yes"/>
      <point x="632" y="175"/>
      <point x="545" y="74"/>
      <point x="385.3189542483933" y="73.98300653593333" type="curve" smooth="yes"/>
      <point x="225" y="74"/>
      <point x="139" y="161"/>
      <point x="138.92941176468003" y="388.96470588234" type="curve" smooth="yes"/>
      <point x="138.92941176468003" y="430.96470588234" type="line"/>
      <point x="25.0" y="430.96470588234" type="line"/>
    </contour>
  </outline>
</glyph>
<glyph name="K" format="2">
  <advance width="1079"/>
  <unicode hex="004B"/>
  <outline>
    <contour>
      <point x="170.0" y="0.0" type="line"/>
      <point x="283.61134640520004" y="0.0" type="line"/>
      <point x="283.61134640520004" y="550.4723660130734" type="line"/>
      <point x="1084.5008627451068" y="1456.0" type="line"/>
      <point x="952.7824313725534" y="1456.0" type="line"/>
      <point x="282.96601307186666" y="692.03529411766" type="line"/>
      <point x="282.96601307186666" y="1456.0" type="line"/>
      <point x="170.0" y="1456.0" type="line"/>
    </contour>
    <contour>
      <point x="969.5060392156732" y="0.0" type="line"/>
      <point x="1098.4164705882267" y="0.0" type="line"/>
      <point x="486.3019607843267" y="852.976" type="line"/>
      <point x="416.7107450980133" y="774.8305359477066" type="line"/>
    </contour>
  </outline>
</glyph>
<glyph name="L" format="2">
  <advance width="865"/>
  <unicode hex="004C"/>
  <outline>
    <contour>
      <point x="170.0" y="0.0" type="line"/>
      <point x="879.9210980392199" y="0.0" type="line"/>
      <point x="879.9210980392199" y="101.32700653593334" type="line"/>
      <point x="283.61134640520004" y="101.32700653593334" type="line"/>
      <point x="283.61134640520004" y="1456.0" type="line"/>
      <point x="170.0" y="1456.0" type="line"/>
    </contour>
  </outline>
</glyph>
<glyph name="M" format="2">
  <advance width="1560"/>
  <unicode hex="004D"/>
  <outline>
    <contour>
      <point x="170.0" y="0.0" type="line"/>
      <point x="276.81960784312" y="0.0" type="line"/>
      <point x="276.81960784312" y="1112.6078431372332" type="line" smooth="yes"/>
      <point x="277" y="1161"/>
      <point x="269" y="1225"/>
      <point x="268.07973856208" y="1272.1411764705667" type="curve"/>
      <point x="277.07973856208" y="1272.1411764705667" type="line"/>
      <point x="284" y="1225"/>
      <point x="304" y="1161"/>
      <point x="320.0326797385334" y="1112.6078431372332" type="curve" smooth="yes"/>
      <point x="722.7843137254599" y="0.0" type="line"/>
      <point x="832.8732026143733" y="0.0" type="line"/>
      <point x="1233.2614379084866" y="1113.3411764705666" type="line" smooth="yes"/>
      <point x="1249" y="1162"/>
      <point x="1271" y="1226"/>
      <point x="1278.9111111110867" y="1272.8745098038999" type="curve"/>
      <point x="1287.9111111110867" y="1272.8745098038999" type="line"/>
      <point x="1287" y="1226"/>
      <point x="1279" y="1162"/>
      <point x="1278.6078431372332" y="1113.3411764705666" type="curve" smooth="yes"/>
      <point x="1278.6078431372332" y="0.0" type="line"/>
      <point x="1389.9738562091734" y="0.0" type="line"/>
      <point x="1389.9738562091734" y="1456.0" type="line"/>
      <point x="1243.99477124182" y="1456.0" type="line"/>
      <point x="818.2065359477067" y="256.76470588234" type="line" smooth="yes"/>
      <point x="802" y="209"/>
      <point x="791" y="177"/>
      <point x="781.52026143792" y="129.3503267974" type="curve"/>
      <point x="775.6535947712533" y="129.3503267974" type="line"/>
      <point x="767" y="177"/>
      <point x="754" y="208"/>
      <point x="737.9176470587932" y="255.69803921567333" type="curve" smooth="yes"/>
      <point x="319.24575163402" y="1456.0" type="line"/>
      <point x="170.0" y="1456.0" type="line"/>
    </contour>
  </outline>
</glyph>
<glyph name="N" format="2">
  <advance width="1245"/>
  <unicode hex="004E"/>
  <outline>
    <contour>
      <point x="170.0" y="0.0" type="line"/>
      <point x="276.6862745097867" y="0.0" type="line"/>
      <point x="276.6862745097867" y="1162.5673202614666" type="line" smooth="yes"/>
      <point x="277" y="1208"/>
      <point x="275" y="1266"/>
      <point x="266.1065359477067" y="1313.93071895428" type="curve"/>
      <point x="276.15980392156" y="1313.93071895428" type="line"/>
      <point x="282" y="1274"/>
      <point x="313" y="1224"/>
      <point x="332.5359477123867" y="1182.5673202614666" type="curve" smooth="yes"/>
      <point x="928.3908496731667" y="0.0" type="line"/>
      <point x="1074.6552679738534" y="0.0" type="line"/>
      <point x="1074.6552679738534" y="1456.0" type="line"/>
      <point x="965.2104575163601" y="1456.0" type="line"/>
      <point x="965.2104575163601" y="284.22614379082665" type="line" smooth="yes"/>
      <point x="965" y="241"/>
      <point x="965" y="186"/>
      <point x="971.7901960784401" y="138.79607843134667" type="curve"/>
      <point x="963.2901960784401" y="138.79607843134667" type="line"/>
      <point x="948" y="183"/>
      <point x="920" y="248"/>
      <point x="904.9673202614666" y="282.4928104574933" type="curve" smooth="yes"/>
      <point x="315.63921568624" y="1456.0" type="line"/>
      <point x="170.0" y="1456.0" type="line"/>
    </contour>
  </outline>
</glyph>
<glyph name="O" format="2">
  <advance width="1234"/>
  <unicode hex="004F"/>
  <outline>
    <contour>
      <point x="115.0" y="693.0690196078733" type="line" smooth="yes"/>
      <point x="115" y="197"/>
      <point x="316" y="-30"/>
      <point x="617.2229803921267" y="-30.0" type="curve" smooth="yes"/>
      <point x="919" y="-30"/>
      <point x="1118" y="197"/>
      <point x="1118.3792941176598" y="693.0690196078733" type="curve" smooth="yes"/>
      <point x="1118.3792941176598" y="762.9309803921267" type="line" smooth="yes"/>
      <point x="1118" y="1259"/>
      <point x="919" y="1486"/>
      <point x="617.2229803921267" y="1486.0" type="curve" smooth="yes"/>
      <point x="315" y="1486"/>
      <point x="115" y="1259"/>
      <point x="115.0" y="762.9309803921267" type="curve" smooth="yes"/>
    </contour>
    <contour>
      <point x="229.00201307186666" y="661.0690196078733" type="curve" smooth="yes"/>
      <point x="229.00201307186666" y="795.9976470587933" type="line" smooth="yes"/>
      <point x="229" y="1198"/>
      <point x="377" y="1382"/>
      <point x="617.2229803921267" y="1381.6649934640668" type="curve" smooth="yes"/>
      <point x="858" y="1382"/>
      <point x="1003" y="1198"/>
      <point x="1003.3106143790533" y="795.9976470587933" type="curve" smooth="yes"/>
      <point x="1003.3106143790533" y="661.0690196078733" type="line" smooth="yes"/>
      <point x="1003" y="259"/>
      <point x="858" y="74"/>
      <point x="617.2229803921267" y="74.33500653593333" type="curve" smooth="yes"/>
      <point x="377" y="74"/>
      <point x="229" y="259"/>
    </contour>
  </outline>
</glyph>
<glyph name="P" format="2">
  <advance width="1027"/>
  <unicode hex="0050"/>
  <outline>
    <contour>
      <point x="170.0" y="0.0" type="line"/>
      <point x="283.61134640520004" y="0.0" type="line"/>
      <point x="283.61134640520004" y="595.0535947712533" type="line"/>
      <point x="543.3380915032866" y="595.0535947712533" type="line" smooth="yes"/>
      <point x="815" y="595"/>
      <point x="950" y="736"/>
      <point x="949.5107189542799" y="1026.02619607844" type="curve" smooth="yes"/>
      <point x="950" y="1317"/>
      <point x="815" y="1456"/>
      <point x="543.3380915032866" y="1456.0" type="curve" smooth="yes"/>
      <point x="170.0" y="1456.0" type="line"/>
    </contour>
    <contour>
      <point x="283.61134640520004" y="696.944" type="line"/>
      <point x="283.61134640520004" y="1354.6729934640666" type="line"/>
      <point x="543.3380915032866" y="1354.6729934640666" type="line" smooth="yes"/>
      <point x="761" y="1355"/>
      <point x="835" y="1228"/>
      <point x="835.35670588234" y="1026.02619607844" type="curve" smooth="yes"/>
      <point x="835" y="826"/>
      <point x="761" y="697"/>
      <point x="543.3380915032866" y="696.944" type="curve" smooth="yes"/>
    </contour>
  </outline>
</glyph>
<glyph name="Q" format="2">
  <advance width="1234"/>
  <unicode hex="0051"/>
  <outline>
    <contour>
      <point x="115.0" y="693.0690196078733" type="line" smooth="yes"/>
      <point x="115" y="197"/>
      <point x="316" y="-30"/>
      <point x="617.2229803921267" y="-30.0" type="curve" smooth="yes"/>
      <point x="919" y="-30"/>
      <point x="1118" y="197"/>
      <point x="1118.3792941176598" y="693.0690196078733" type="curve" smooth="yes"/>
      <point x="1118.3792941176598" y="762.9309803921267" type="line" smooth="yes"/>
      <point x="1118" y="1259"/>
      <point x="919" y="1486"/>
      <point x="617.2229803921267" y="1486.0" type="curve" smooth="yes"/>
      <point x="315" y="1486"/>
      <point x="115" y="1259"/>
      <point x="115.0" y="762.9309803921267" type="curve" smooth="yes"/>
    </contour>
    <contour>
      <point x="229.00201307186666" y="650.4023529412067" type="curve" smooth="yes"/>
      <point x="229.00201307186666" y="805.5976470587933" type="line" smooth="yes"/>
      <point x="229" y="1207"/>
      <point x="377" y="1382"/>
      <point x="617.2229803921267" y="1381.6649934640668" type="curve" smooth="yes"/>
      <point x="858" y="1382"/>
      <point x="1003" y="1207"/>
      <point x="1003.3106143790533" y="805.5976470587933" type="curve" smooth="yes"/>
      <point x="1003.3106143790533" y="650.4023529412067" type="line" smooth="yes"/>
      <point x="1003" y="249"/>
      <point x="858" y="74"/>
      <point x="617.2229803921267" y="74.33500653593333" type="curve" smooth="yes"/>
      <point x="377" y="74"/>
      <point x="229" y="249"/>
    </contour>
    <contour>
      <point x="1056.6833986928134" y="-228.92653594770667" type="line"/>
      <point x="1137.9611503268334" y="-147.04826143792" type="line"/>
      <point x="658.0715555555801" y="240.30833986926666" type="line"/>
      <point x="578.7517385620799" y="161.44" type="line"/>
    </contour>
  </outline>
</glyph>
<glyph name="R" format="2">
  <advance width="1041"/>
  <unicode hex="0052"/>
  <outline>
    <contour>
      <point x="170.0" y="0.0" type="line"/>
      <point x="283.61134640520004" y="0.0" type="line"/>
      <point x="283.61134640520004" y="621.5423267974" type="line"/>
      <point x="534.6001568627667" y="621.5423267974" type="line" smooth="yes"/>
      <point x="800" y="622"/>
      <point x="936" y="755"/>
      <point x="936.4348496731667" y="1040.0235294117733" type="curve" smooth="yes"/>
      <point x="936" y="1325"/>
      <point x="800" y="1456"/>
      <point x="534.6001568627667" y="1456.0" type="curve" smooth="yes"/>
      <point x="170.0" y="1456.0" type="line"/>
    </contour>
    <contour>
      <point x="283.61134640520004" y="722.9333333333334" type="line"/>
      <point x="283.61134640520004" y="1355.6756601307334" type="line"/>
      <point x="534.6001568627667" y="1355.6756601307334" type="line" smooth="yes"/>
      <point x="749" y="1356"/>
      <point x="822" y="1235"/>
      <point x="822.2808366013" y="1040.0235294117733" type="curve" smooth="yes"/>
      <point x="822" y="847"/>
      <point x="749" y="723"/>
      <point x="534.6001568627667" y="722.9333333333334" type="curve" smooth="yes"/>
    </contour>
    <contour>
      <point x="868.8117647058867" y="0.0" type="line"/>
      <point x="1000.8771241830268" y="0.0" type="line"/>
      <point x="654.1694640522933" y="672.0" type="line"/>
      <point x="529.4679738561933" y="672.0" type="line"/>
    </contour>
  </outline>
</glyph>
<glyph name="S" format="2">
  <advance width="1017"/>
  <unicode hex="0053"/>
  <outline>
    <contour>
      <point x="90.0" y="383.35320261437334" type="line" smooth="yes"/>
      <point x="90" y="98"/>
      <point x="258" y="-30"/>
      <point x="517.89903267974" y="-30.0" type="curve" smooth="yes"/>
      <point x="777" y="-30"/>
      <point x="938" y="103"/>
      <point x="937.65819607844" y="359.80313725489333" type="curve" smooth="yes"/>
      <point x="938" y="583"/>
      <point x="808" y="684"/>
      <point x="560.15424836598" y="794.9570718954133" type="curve" smooth="yes"/>
      <point x="290" y="914"/>
      <point x="228" y="1009"/>
      <point x="228.1630849673533" y="1131.7337908496934" type="curve" smooth="yes"/>
      <point x="228" y="1273"/>
      <point x="309" y="1382"/>
      <point x="509.17709803922" y="1381.6649934640668" type="curve" smooth="yes"/>
      <point x="702" y="1382"/>
      <point x="800" y="1255"/>
      <point x="799.5336470587933" y="1078.6467973856265" type="curve" smooth="yes"/>
      <point x="799.5336470587933" y="1055.98013071896" type="line"/>
      <point x="912.6417254902134" y="1055.98013071896" type="line"/>
      <point x="912.6417254902134" y="1078.6467973856265" type="line" smooth="yes"/>
      <point x="913" y="1318"/>
      <point x="757" y="1486"/>
      <point x="509.17709803922" y="1486.0" type="curve" smooth="yes"/>
      <point x="262" y="1486"/>
      <point x="115" y="1354"/>
      <point x="115.46640522874667" y="1110.7001307189598" type="curve" smooth="yes"/>
      <point x="115" y="898"/>
      <point x="246" y="796"/>
      <point x="501.0130196078733" y="688.9895947712533" type="curve" smooth="yes"/>
      <point x="776" y="575"/>
      <point x="825" y="512"/>
      <point x="825.46478431376" y="358.7966013071867" type="curve" smooth="yes"/>
      <point x="825" y="196"/>
      <point x="718" y="74"/>
      <point x="517.89903267974" y="74.33500653593333" type="curve" smooth="yes"/>
      <point x="318" y="74"/>
      <point x="204" y="183"/>
      <point x="203.6113464052" y="383.35320261437334" type="curve" smooth="yes"/>
      <point x="203.6113464052" y="406.01986928104" type="line"/>
      <point x="90.0" y="406.01986928104" type="line"/>
    </contour>
  </outline>
</glyph>
<glyph name="T" format="2">
  <advance width="994"/>
  <unicode hex="0054"/>
  <outline>
    <contour>
      <point x="24.0" y="1354.6729934640666" type="line"/>
      <point x="440.78583006536667" y="1354.6729934640666" type="line"/>
      <point x="440.78583006536667" y="0.0" type="line"/>
      <point x="552.8272418300467" y="0.0" type="line"/>
      <point x="552.8272418300467" y="1354.6729934640666" type="line"/>
      <point x="970.1764705882266" y="1354.6729934640666" type="line"/>
      <point x="970.1764705882266" y="1456.0" type="line"/>
      <point x="24.0" y="1456.0" type="line"/>
    </contour>
  </outline>
</glyph>
<glyph name="U" format="2">
  <advance width="1166"/>
  <unicode hex="0055"/>
  <outline>
    <contour>
      <point x="155.0" y="490.96470588234" type="line" smooth="yes"/>
      <point x="155" y="113"/>
      <point x="333" y="-30"/>
      <point x="582.4784313725534" y="-30.0" type="curve" smooth="yes"/>
      <point x="833" y="-30"/>
      <point x="1009" y="113"/>
      <point x="1009.3934640522933" y="490.96470588234" type="curve" smooth="yes"/>
      <point x="1009.3934640522933" y="1456.0" type="line"/>
      <point x="895.7821176470934" y="1456.0" type="line"/>
      <point x="895.7821176470934" y="448.2980392156733" type="line" smooth="yes"/>
      <point x="896" y="195"/>
      <point x="772" y="74"/>
      <point x="582.9816993464067" y="74.33500653593333" type="curve" smooth="yes"/>
      <point x="391" y="74"/>
      <point x="267" y="193"/>
      <point x="267.04141176468" y="448.2980392156733" type="curve" smooth="yes"/>
      <point x="267.04141176468" y="1456.0" type="line"/>
      <point x="155.0" y="1456.0" type="line"/>
    </contour>
  </outline>
</glyph>
<glyph name="V" format="2">
  <advance width="1022"/>
  <unicode hex="0056"/>
  <outline>
    <contour>
      <point x="0.0" y="1456.0" type="line"/>
      <point x="435.35555555558005" y="-10.0" type="line"/>
      <point x="585.8666666666667" y="-10.0" type="line"/>
      <point x="1021.95555555558" y="1456.0" type="line"/>
      <point x="911.0562091503066" y="1456.0" type="line"/>
      <point x="564.43921568624" y="271.6862745097867" type="line" smooth="yes"/>
      <point x="548" y="218"/>
      <point x="528" y="151"/>
      <point x="518.23431372546" y="91.77320261437333" type="curve"/>
      <point x="511.2875816993133" y="91.77320261437333" type="line"/>
      <point x="500" y="151"/>
      <point x="478" y="218"/>
      <point x="462.46274509801333" y="271.6862745097867" type="curve" smooth="yes"/>
      <point x="117.64575163402" y="1456.0" type="line"/>
    </contour>
  </outline>
</glyph>
<glyph name="W" format="2">
  <advance width="1621"/>
  <unicode hex="0057"/>
  <outline>
    <contour>
      <point x="379.39607843134667" y="-10.0" type="line"/>
      <point x="500.53790849671327" y="-10.0" type="line"/>
      <point x="783.1330065359333" y="1200.1816993464067" type="line" smooth="yes"/>
      <point x="794" y="1249"/>
      <point x="799" y="1285"/>
      <point x="803.0526143790534" y="1322.2130718954133" type="curve"/>
      <point x="810.5526143790534" y="1322.2130718954133" type="line"/>
      <point x="815" y="1285"/>
      <point x="821" y="1249"/>
      <point x="832.0421568627667" y="1200.1816993464067" type="curve" smooth="yes"/>
      <point x="1119.83986928104" y="-10.0" type="line"/>
      <point x="1243.11503267974" y="-10.0" type="line"/>
      <point x="1571.44444444442" y="1456.0" type="line"/>
      <point x="1462.1052287581801" y="1456.0" type="line"/>
      <point x="1217.30490196078" y="262.18431372546" type="line" smooth="yes"/>
      <point x="1209" y="214"/>
      <point x="1205" y="188"/>
      <point x="1197.58529411766" y="139.11895424839332" type="curve"/>
      <point x="1191.6385620915134" y="139.11895424839332" type="line"/>
      <point x="1182" y="188"/>
      <point x="1178" y="214"/>
      <point x="1166.3490196078733" y="262.18431372546" type="curve" smooth="yes"/>
      <point x="881.6176470587933" y="1456.0" type="line"/>
      <point x="744.00980392156" y="1456.0" type="line"/>
      <point x="466.3385620915134" y="262.18431372546" type="line" smooth="yes"/>
      <point x="456" y="214"/>
      <point x="451" y="188"/>
      <point x="444.31568627454004" y="139.11895424839332" type="curve"/>
      <point x="439.92222222224666" y="139.11895424839332" type="line"/>
      <point x="433" y="188"/>
      <point x="427" y="214"/>
      <point x="416.73954248364" y="262.18431372546" type="curve" smooth="yes"/>
      <point x="163.01895424839333" y="1456.0" type="line"/>
      <point x="50.0" y="1456.0" type="line"/>
    </contour>
  </outline>
</glyph>
<glyph name="X" format="2">
  <advance width="1081"/>
  <unicode hex="0058"/>
  <outline>
    <contour>
      <point x="25.0" y="0.0" type="line"/>
      <point x="147.26996078432666" y="0.0" type="line"/>
      <point x="569.4573856209466" y="693.576" type="line"/>
      <point x="578.3768627451067" y="693.576" type="line"/>
      <point x="1032.12277124182" y="1456.0" type="line"/>
      <point x="909.34954248364" y="1456.0" type="line"/>
      <point x="512.9597908496934" y="782.424" type="line"/>
      <point x="501.9069803921267" y="782.424" type="line"/>
    </contour>
    <contour>
      <point x="48.68507189541334" y="1456.0" type="line"/>
      <point x="501.36431372545997" y="693.576" type="line"/>
      <point x="505.7449150326467" y="693.576" type="line"/>
      <point x="924.7344052287466" y="0.0" type="line"/>
      <point x="1055.30457516338" y="0.0" type="line"/>
      <point x="579.98619607844" y="782.424" type="line"/>
      <point x="575.1023267974" y="782.424" type="line"/>
      <point x="178.18857516338" y="1456.0" type="line"/>
    </contour>
  </outline>
</glyph>
<glyph name="Y" format="2">
  <advance width="1023"/>
  <unicode hex="0059"/>
  <outline>
    <contour>
      <point x="454.4556339869266" y="0.0" type="line"/>
      <point x="567.5637124182733" y="0.0" type="line"/>
      <point x="567.5637124182733" y="572.5488627451067" type="line"/>
      <point x="1007.5226143790534" y="1456.0" type="line"/>
      <point x="887.65045751636" y="1456.0" type="line"/>
      <point x="576.7372549019867" y="823.06013071896" type="line" smooth="yes"/>
      <point x="557" y="783"/>
      <point x="538" y="720"/>
      <point x="518.9712418300467" y="673.2676470587933" type="curve"/>
      <point x="508.8679738561933" y="673.2676470587933" type="line"/>
      <point x="489" y="720"/>
      <point x="468" y="783"/>
      <point x="448.9019607843267" y="823.06013071896" type="curve" smooth="yes"/>
      <point x="141.63529411766" y="1456.0" type="line"/>
      <point x="15.0" y="1456.0" type="line"/>
      <point x="454.4556339869266" y="572.5488627451067" type="line"/>
    </contour>
  </outline>
</glyph>
<glyph name="Z" format="2">
  <advance width="926"/>
  <unicode hex="005A"/>
  <outline>
    <contour>
      <point x="-9.044771241820001" y="0.0" type="line"/>
      <point x="936.91175163402" y="0.0" type="line"/>
      <point x="936.91175163402" y="101.32700653593334" type="line"/>
      <point x="126.93800000000002" y="101.32700653593334" type="line"/>
      <point x="901.9600130718666" y="1373.17626143792" type="line"/>
      <point x="901.9600130718666" y="1456.0" type="line"/>
      <point x="4.313764705886669" y="1456.0" type="line"/>
      <point x="4.313764705886669" y="1354.6729934640666" type="line"/>
      <point x="765.9772418300466" y="1354.6729934640666" type="line"/>
      <point x="-9.044771241820001" y="82.82373856208" type="line"/>
    </contour>
  </outline>
</glyph>
<glyph name="bracketleft" format="2">
  <advance width="511"/>
  <unicode hex="005B"/>
  <outline>
    <contour>
      <point x="144.0" y="-310.0" type="line"/>
      <point x="525.6081568627667" y="-310.0" type="line"/>
      <point x="525.6081568627667" y="-208.17359477125333" type="line"/>
      <point x="254.44941176468" y="-208.17359477125333" type="line"/>
      <point x="254.44941176468" y="1354.1735947712532" type="line"/>
      <point x="525.6081568627667" y="1354.1735947712532" type="line"/>
      <point x="525.6081568627667" y="1456.0" type="line"/>
      <point x="144.0" y="1456.0" type="line"/>
    </contour>
  </outline>
</glyph>
<glyph name="backslash" format="2">
  <advance width="482"/>
  <unicode hex="005C"/>
  <outline>
    <contour>
      <point x="-113.96601307186667" y="1456.0" type="line"/>
      <point x="463.07450980389996" y="-125.0" type="line"/>
      <point x="596.5058823529066" y="-125.0" type="line"/>
      <point x="19.29542483662" y="1456.0" type="line"/>
    </contour>
  </outline>
</glyph>
<glyph name="bracketright" format="2">
  <advance width="511"/>
  <unicode hex="005D"/>
  <outline>
    <contour>
      <point x="366.78928104572003" y="-310.0" type="line"/>
      <point x="366.78928104572003" y="1456.0" type="line"/>
      <point x="-15.322143790826658" y="1456.0" type="line"/>
      <point x="-15.322143790826658" y="1354.1735947712532" type="line"/>
      <point x="255.83660130718667" y="1354.1735947712532" type="line"/>
      <point x="255.83660130718667" y="-208.17359477125333" type="line"/>
      <point x="-15.322143790826658" y="-208.17359477125333" type="line"/>
      <point x="-15.322143790826658" y="-310.0" type="line"/>
    </contour>
  </outline>
</glyph>
<glyph name="asciicircum" format="2">
  <advance width="1051"/>
  <unicode hex="005E"/>
  <outline>
    <contour>
      <point x="25.0" y="720.0" type="line"/>
      <point x="151.95921568624" y="720.0" type="line"/>
      <point x="525.4683660130734" y="1335.3138823529066" type="line"/>
      <point x="898.9775163398333" y="720.0" type="line"/>
      <point x="1025.9367320261467" y="720.0" type="line"/>
      <point x="573.9479738561934" y="1456.0" type="line"/>
      <point x="476.98875816995337" y="1456.0" type="line"/>
    </contour>
  </outline>
</glyph>
<glyph name="underscore" format="2">
  <advance width="755"/>
  <unicode hex="005F"/>
  <outline>
    <contour>
      <point x="0.0" y="-9.256209150306688" type="line"/>
      <point x="755.4522875817268" y="-9.256209150306688" type="line"/>
      <point x="755.4522875817268" y="87.67058823532" type="line"/>
      <point x="0.0" y="87.67058823532" type="line"/>
    </contour>
  </outline>
</glyph>
<glyph name="grave" format="2">
  <advance width="1003"/>
  <unicode hex="0060"/>
  <outline>
    <contour>
      <point x="619.8" y="1204.0" type="line"/>
      <point x="677.8666666666667" y="1247.0666666666666" type="line"/>
      <point x="423.93333333333334" y="1550.2666666666667" type="line"/>
      <point x="321.5333333333333" y="1479.7333333333333" type="line"/>
    </contour>
  </outline>
</glyph>
<glyph name="a" format="2">
  <advance width="951"/>
  <unicode hex="0061"/>
  <outline>
    <contour>
      <point x="90.0" y="300.7" type="curve" smooth="yes"/>
      <point x="90" y="68"/>
      <point x="212" y="-20"/>
      <point x="388.36209150328665" y="-20.0" type="curve" smooth="yes"/>
      <point x="547" y="-20"/>
      <point x="654" y="67"/>
      <point x="699.9790849673534" y="150.8" type="curve"/>
      <point x="706" y="95"/>
      <point x="722" y="35"/>
      <point x="741.1019607843267" y="0.0" type="curve"/>
      <point x="845.79477124182" y="0.0" type="line"/>
      <point x="845.79477124182" y="16.0" type="line"/>
      <point x="822" y="75"/>
      <point x="808" y="153"/>
      <point x="807.5751633987" y="240.0" type="curve" smooth="yes"/>
      <point x="807.5751633987" y="749.0" type="line" smooth="yes"/>
      <point x="808" y="1004"/>
      <point x="692" y="1111"/>
      <point x="486.81045751636" y="1111.0" type="curve" smooth="yes"/>
      <point x="276" y="1111"/>
      <point x="153" y="985"/>
      <point x="153.40261437905335" y="788.4967320261467" type="curve" smooth="yes"/>
      <point x="153.40261437905335" y="783.4967320261467" type="line"/>
      <point x="261.06535947714" y="783.4967320261467" type="line"/>
      <point x="261.06535947714" y="788.4967320261467" type="line" smooth="yes"/>
      <point x="261" y="916"/>
      <point x="324" y="1014"/>
      <point x="481.64052287584" y="1014.3869281045867" type="curve" smooth="yes"/>
      <point x="641" y="1014"/>
      <point x="697" y="908"/>
      <point x="696.9424836601668" y="749.0" type="curve" smooth="yes"/>
      <point x="696.9424836601668" y="636.93986928104" type="line"/>
      <point x="462.0941176470933" y="636.93986928104" type="line" smooth="yes"/>
      <point x="229" y="637"/>
      <point x="90" y="524"/>
    </contour>
    <contour>
      <point x="200.12941176468001" y="294.9" type="curve" smooth="yes"/>
      <point x="200" y="474"/>
      <point x="299" y="548"/>
      <point x="481.64052287584" y="548.26013071896" type="curve" smooth="yes"/>
      <point x="696.9424836601668" y="548.26013071896" type="line"/>
      <point x="696.9424836601668" y="331.50980392156" type="line" smooth="yes"/>
      <point x="697" y="176"/>
      <point x="554" y="77"/>
      <point x="410.19477124182004" y="76.61307189541334" type="curve" smooth="yes"/>
      <point x="271" y="77"/>
      <point x="200" y="135"/>
    </contour>
  </outline>
</glyph>
<glyph name="b" format="2">
  <advance width="1012"/>
  <unicode hex="0062"/>
  <outline>
    <contour>
      <point x="148.0" y="0.0" type="line"/>
      <point x="250.69667973853333" y="0.0" type="line"/>
      <point x="254.14394771238665" y="132.06901960787334" type="line"/>
      <point x="253.74347712416" y="132.06901960787334" type="line"/>
      <point x="309" y="48"/>
      <point x="421" y="-20"/>
      <point x="560.65406535948" y="-20.0" type="curve" smooth="yes"/>
      <point x="790" y="-20"/>
      <point x="926" y="208"/>
      <point x="926.0177777777533" y="524.5" type="curve" smooth="yes"/>
      <point x="926.0177777777533" y="556.5" type="line" smooth="yes"/>
      <point x="926" y="873"/>
      <point x="790" y="1101"/>
      <point x="560.65406535948" y="1101.0" type="curve" smooth="yes"/>
      <point x="421" y="1101"/>
      <point x="323" y="1045"/>
      <point x="258.3640784313467" y="961.9309803921267" type="curve"/>
      <point x="258.3640784313467" y="1536.0" type="line"/>
      <point x="148.0" y="1536.0" type="line"/>
    </contour>
    <contour>
      <point x="258.3640784313467" y="250.11869281047333" type="curve"/>
      <point x="258.3640784313467" y="830.8813071895266" type="line"/>
      <point x="295" y="911"/>
      <point x="403" y="1001"/>
      <point x="531.3253856209467" y="1001.1110588235467" type="curve"/>
      <point x="724" y="1001"/>
      <point x="813" y="848"/>
      <point x="813.32109803922" y="588.5" type="curve" smooth="yes"/>
      <point x="813.32109803922" y="492.5" type="line" smooth="yes"/>
      <point x="813" y="233"/>
      <point x="726" y="80"/>
      <point x="527.05871895428" y="79.88894117645334" type="curve" smooth="yes"/>
      <point x="395" y="80"/>
      <point x="301" y="158"/>
    </contour>
  </outline>
</glyph>
<glyph name="c" format="2">
  <advance width="833"/>
  <unicode hex="0063"/>
  <outline>
    <contour>
      <point x="85.0" y="524.5" type="line" smooth="yes"/>
      <point x="85" y="168"/>
      <point x="240" y="-30"/>
      <point x="482.0169934640667" y="-30.0" type="curve" smooth="yes"/>
      <point x="728" y="-30"/>
      <point x="841" y="135"/>
      <point x="841.4980392156733" y="343.00653594770665" type="curve" smooth="yes"/>
      <point x="841.4980392156733" y="348.00653594770665" type="line"/>
      <point x="735.9019607843267" y="348.00653594770665" type="line"/>
      <point x="735.9019607843267" y="343.00653594770665" type="line" smooth="yes"/>
      <point x="736" y="191"/>
      <point x="667" y="70"/>
      <point x="479.88366013073335" y="69.64967320260001" type="curve" smooth="yes"/>
      <point x="293" y="70"/>
      <point x="197" y="228"/>
      <point x="196.92941176468003" y="492.5" type="curve" smooth="yes"/>
      <point x="196.92941176468003" y="588.5" type="line" smooth="yes"/>
      <point x="197" y="852"/>
      <point x="293" y="1010"/>
      <point x="489.48366013073337" y="1010.2836601307333" type="curve" smooth="yes"/>
      <point x="673" y="1010"/>
      <point x="736" y="890"/>
      <point x="735.9019607843267" y="737.9934640522933" type="curve" smooth="yes"/>
      <point x="735.9019607843267" y="732.9934640522933" type="line"/>
      <point x="841.4980392156733" y="732.9934640522933" type="line"/>
      <point x="841.4980392156733" y="737.9934640522933" type="line" smooth="yes"/>
      <point x="841" y="946"/>
      <point x="725" y="1111"/>
      <point x="490.5503267974" y="1111.0" type="curve" smooth="yes"/>
      <point x="238" y="1111"/>
      <point x="85" y="912"/>
      <point x="85.0" y="556.5" type="curve" smooth="yes"/>
    </contour>
  </outline>
</glyph>
<glyph name="d" format="2">
  <advance width="1012"/>
  <unicode hex="0064"/>
  <outline>
    <contour>
      <point x="85.0" y="524.5" type="line" smooth="yes"/>
      <point x="85" y="208"/>
      <point x="221" y="-20"/>
      <point x="450.3637124182733" y="-20.0" type="curve" smooth="yes"/>
      <point x="590" y="-20"/>
      <point x="702" y="48"/>
      <point x="756.77103267974" y="132.06901960787334" type="curve"/>
      <point x="756.8738300653666" y="132.06901960787334" type="line"/>
      <point x="760.8243660130732" y="0.0" type="line"/>
      <point x="863.5210457516066" y="0.0" type="line"/>
      <point x="863.5210457516066" y="1536.0" type="line"/>
      <point x="752.6536993464067" y="1536.0" type="line"/>
      <point x="752.6536993464067" y="961.9309803921267" type="line"/>
      <point x="689" y="1045"/>
      <point x="591" y="1101"/>
      <point x="450.3637124182733" y="1101.0" type="curve" smooth="yes"/>
      <point x="221" y="1101"/>
      <point x="85" y="873"/>
      <point x="85.0" y="556.5" type="curve" smooth="yes"/>
    </contour>
    <contour>
      <point x="197.19341176467998" y="492.5" type="curve" smooth="yes"/>
      <point x="197.19341176467998" y="588.5" type="line" smooth="yes"/>
      <point x="197" y="848"/>
      <point x="286" y="1001"/>
      <point x="483.45579084969336" y="1001.1110588235467" type="curve" smooth="yes"/>
      <point x="617" y="1001"/>
      <point x="711" y="921"/>
      <point x="752.6536993464067" y="830.8813071895266" type="curve"/>
      <point x="752.6536993464067" y="250.11869281047333" type="line"/>
      <point x="711" y="160"/>
      <point x="617" y="80"/>
      <point x="483.45579084969336" y="79.88894117645334" type="curve" smooth="yes"/>
      <point x="286" y="80"/>
      <point x="197" y="233"/>
    </contour>
  </outline>
</glyph>
<glyph name="e" format="2">
  <advance width="906"/>
  <unicode hex="0065"/>
  <outline>
    <contour>
      <point x="85.0" y="524.5" type="line" smooth="yes"/>
      <point x="85" y="168"/>
      <point x="235" y="-30"/>
      <point x="509.5934640522933" y="-30.0" type="curve" smooth="yes"/>
      <point x="670" y="-30"/>
      <point x="786" y="42"/>
      <point x="851.5882352941132" y="159.6" type="curve"/>
      <point x="760.60522875818" y="212.72941176468" type="line"/>
      <point x="701" y="129"/>
      <point x="629" y="70"/>
      <point x="498.9267973856267" y="70.15294117645334" type="curve" smooth="yes"/>
      <point x="282" y="70"/>
      <point x="193" y="211"/>
      <point x="192.72287581697333" y="492.5" type="curve" smooth="yes"/>
      <point x="192.72287581697333" y="588.5" type="line" smooth="yes"/>
      <point x="193" y="883"/>
      <point x="295" y="1011"/>
      <point x="468.18431372545996" y="1010.8470588235466" type="curve" smooth="yes"/>
      <point x="677" y="1011"/>
      <point x="734" y="876"/>
      <point x="734.0552287581801" y="614.85490196078" type="curve" smooth="yes"/>
      <point x="734.0552287581801" y="620.43986928104" type="line"/>
      <point x="133.36339869281335" y="620.43986928104" type="line"/>
      <point x="133.36339869281335" y="524.0568627451066" type="line"/>
      <point x="847.0013071895266" y="524.0568627451066" type="line"/>
      <point x="847.0013071895266" y="574.5" type="line" smooth="yes"/>
      <point x="847" y="945"/>
      <point x="717" y="1111"/>
      <point x="480.61045751636" y="1111.0" type="curve" smooth="yes"/>
      <point x="242" y="1111"/>
      <point x="85" y="912"/>
      <point x="85.0" y="556.5" type="curve" smooth="yes"/>
    </contour>
  </outline>
</glyph>
<glyph name="f" format="2">
  <advance width="521"/>
  <unicode hex="0066"/>
  <outline>
    <contour>
      <point x="195.03686274510665" y="0.0" type="line"/>
      <point x="304.8976732026" y="0.0" type="line"/>
      <point x="304.8976732026" y="1026.0574640522934" type="line"/>
      <point x="304.8976732026" y="1042.0734640522933" type="line"/>
      <point x="304.8976732026" y="1183.2282352941133" type="line" smooth="yes"/>
      <point x="305" y="1367"/>
      <point x="372" y="1458"/>
      <point x="490.94833986926665" y="1458.1735947712532" type="curve" smooth="yes"/>
      <point x="526" y="1458"/>
      <point x="564" y="1452"/>
      <point x="588.2471633987" y="1444.6135947712535" type="curve"/>
      <point x="598.15309803922" y="1540.0" type="line"/>
      <point x="564" y="1549"/>
      <point x="521" y="1556"/>
      <point x="484.80386928104" y="1556.0" type="curve" smooth="yes"/>
      <point x="304" y="1556"/>
      <point x="195" y="1427"/>
      <point x="195.03686274510665" y="1183.2282352941133" type="curve" smooth="yes"/>
    </contour>
    <contour>
      <point x="25.0" y="986.12439215688" type="line"/>
      <point x="530.8978823529067" y="986.12439215688" type="line"/>
      <point x="530.8978823529067" y="1081.0" type="line"/>
      <point x="261.8843398692667" y="1081.0" type="line"/>
      <point x="236.57432679739998" y="1081.0" type="line"/>
      <point x="25.0" y="1081.0" type="line"/>
    </contour>
  </outline>
</glyph>
<glyph name="g" format="2">
  <advance width="1012"/>
  <unicode hex="0067"/>
  <outline>
    <contour>
      <point x="123.1713464052" y="-311.06666666666666" type="line"/>
      <point x="207" y="-386"/>
      <point x="326" y="-436"/>
      <point x="470.06258823532005" y="-436.0" type="curve" smooth="yes"/>
      <point x="705" y="-436"/>
      <point x="864" y="-274"/>
      <point x="863.5210457516066" y="22.013071895413333" type="curve" smooth="yes"/>
      <point x="863.5210457516066" y="1081.0" type="line"/>
      <point x="760.8243660130732" y="1081.0" type="line"/>
      <point x="756.8738300653666" y="948.9309803921267" type="line"/>
      <point x="756.77103267974" y="948.9309803921267" type="line"/>
      <point x="702" y="1033"/>
      <point x="590" y="1101"/>
      <point x="450.3637124182733" y="1101.0" type="curve" smooth="yes"/>
      <point x="221" y="1101"/>
      <point x="85" y="873"/>
      <point x="85.0" y="556.5" type="curve" smooth="yes"/>
      <point x="85.0" y="524.5" type="line" smooth="yes"/>
      <point x="85" y="194"/>
      <point x="211" y="-20"/>
      <point x="436.49704575160666" y="-20.0" type="curve" smooth="yes"/>
      <point x="595" y="-20"/>
      <point x="689" y="36"/>
      <point x="752.6536993464067" y="119.06901960787334" type="curve"/>
      <point x="752.6536993464067" y="22.013071895413333" type="line" smooth="yes"/>
      <point x="753" y="-204"/>
      <point x="643" y="-333"/>
      <point x="464.94525490198663" y="-333.17092810458666" type="curve" smooth="yes"/>
      <point x="344" y="-333"/>
      <point x="237" y="-283"/>
      <point x="179.21986928104" y="-220.69359477125334" type="curve"/>
    </contour>
    <contour>
      <point x="197.19341176467998" y="488.23333333333335" type="curve" smooth="yes"/>
      <point x="197.19341176467998" y="584.2333333333333" type="line" smooth="yes"/>
      <point x="197" y="844"/>
      <point x="283" y="1001"/>
      <point x="490.92245751636" y="1001.1110588235467" type="curve" smooth="yes"/>
      <point x="624" y="1001"/>
      <point x="716" y="906"/>
      <point x="752.6536993464067" y="830.8813071895266" type="curve"/>
      <point x="752.6536993464067" y="250.11869281047333" type="line"/>
      <point x="721" y="160"/>
      <point x="623" y="80"/>
      <point x="475.98912418302666" y="79.88894117645334" type="curve" smooth="yes"/>
      <point x="284" y="80"/>
      <point x="197" y="228"/>
    </contour>
  </outline>
</glyph>
<glyph name="h" format="2">
  <advance width="982"/>
  <unicode hex="0068"/>
  <outline>
    <contour>
      <point x="148.0" y="0.0" type="line"/>
      <point x="258.3640784313467" y="0.0" type="line"/>
      <point x="258.3640784313467" y="798.2122875817267" type="line"/>
      <point x="305" y="906"/>
      <point x="402" y="1001"/>
      <point x="537.4034509804267" y="1000.6756601307334" type="curve" smooth="yes"/>
      <point x="670" y="1001"/>
      <point x="733" y="922"/>
      <point x="732.98541176468" y="768.4535947712534" type="curve" smooth="yes"/>
      <point x="732.98541176468" y="0.0" type="line"/>
      <point x="843.8527581699534" y="0.0" type="line"/>
      <point x="843.8527581699534" y="766.4535947712534" type="line" smooth="yes"/>
      <point x="844" y="992"/>
      <point x="740" y="1101"/>
      <point x="562.9461176470934" y="1101.0" type="curve" smooth="yes"/>
      <point x="412" y="1101"/>
      <point x="323" y="1035"/>
      <point x="258.3640784313467" y="918.7354248366199" type="curve"/>
      <point x="258.3640784313467" y="1536.0" type="line"/>
      <point x="148.0" y="1536.0" type="line"/>
    </contour>
  </outline>
</glyph>
<glyph name="i" format="2">
  <advance width="424"/>
  <unicode hex="0069"/>
  <outline>
    <contour>
      <point x="157.0" y="0.0" type="line"/>
      <point x="267.3640784313467" y="0.0" type="line"/>
      <point x="267.3640784313467" y="1081.0" type="line"/>
      <point x="157.0" y="1081.0" type="line"/>
    </contour>
    <contour>
      <point x="146.81307189541334" y="1396.5675294117734" type="curve" smooth="yes"/>
      <point x="147" y="1352"/>
      <point x="171" y="1319"/>
      <point x="212.4336732026" y="1318.6513986928132" type="curve" smooth="yes"/>
      <point x="253" y="1319"/>
      <point x="277" y="1352"/>
      <point x="277.04773856208" y="1396.5675294117734" type="curve" smooth="yes"/>
      <point x="277" y="1441"/>
      <point x="254" y="1474"/>
      <point x="211.93040522874668" y="1474.4836601307334" type="curve" smooth="yes"/>
      <point x="170" y="1474"/>
      <point x="147" y="1441"/>
    </contour>
  </outline>
</glyph>
<glyph name="j" format="2">
  <advance width="424"/>
  <unicode hex="006A"/>
  <outline>
    <contour>
      <point x="-92.93594771238668" y="-412.93333333333334" type="line"/>
      <point x="-67" y="-422"/>
      <point x="-18" y="-436"/>
      <point x="24.916339869266665" y="-436.0" type="curve" smooth="yes"/>
      <point x="184" y="-436"/>
      <point x="267" y="-331"/>
      <point x="267.12941176468" y="-90.0" type="curve" smooth="yes"/>
      <point x="267.12941176468" y="1081.0" type="line"/>
      <point x="157.0" y="1081.0" type="line"/>
      <point x="157.0" y="-127.98692810458667" type="line" smooth="yes"/>
      <point x="157" y="-277"/>
      <point x="105" y="-336"/>
      <point x="12.439215686240004" y="-336.12026143792" type="curve" smooth="yes"/>
      <point x="-23" y="-336"/>
      <point x="-68" y="-325"/>
      <point x="-92.93594771238668" y="-316.8535947712533" type="curve"/>
    </contour>
    <contour>
      <point x="146.81307189541334" y="1396.89019607844" type="curve" smooth="yes"/>
      <point x="147" y="1352"/>
      <point x="171" y="1319"/>
      <point x="212.31633986926667" y="1318.5633986928135" type="curve" smooth="yes"/>
      <point x="253" y="1319"/>
      <point x="277" y="1352"/>
      <point x="276.8130718954133" y="1396.89019607844" type="curve" smooth="yes"/>
      <point x="277" y="1440"/>
      <point x="253" y="1474"/>
      <point x="211.81307189541334" y="1474.4836601307334" type="curve" smooth="yes"/>
      <point x="170" y="1474"/>
      <point x="147" y="1440"/>
    </contour>
  </outline>
</glyph>
<glyph name="k" format="2">
  <advance width="890"/>
  <unicode hex="006B"/>
  <outline>
    <contour>
      <point x="148.0" y="0.0" type="line"/>
      <point x="258.12941176468" y="0.0" type="line"/>
      <point x="258.12941176468" y="458.16307189541334" type="line"/>
      <point x="859.3244183006867" y="1081.0" type="line"/>
      <point x="702.8124183006867" y="1081.0" type="line"/>
      <point x="258.3640784313467" y="617.5486013071867" type="line"/>
      <point x="258.3640784313467" y="1536.0" type="line"/>
      <point x="148.0" y="1536.0" type="line"/>
    </contour>
    <contour>
      <point x="761.7571241830267" y="0.0" type="line"/>
      <point x="905.9084967320333" y="0.0" type="line"/>
      <point x="463.37903267974" y="741.1124183006867" type="line"/>
      <point x="376.4084705882267" y="646.39955555558" type="line"/>
    </contour>
  </outline>
</glyph>
<glyph name="m" format="2">
  <advance width="1527"/>
  <unicode hex="006D"/>
  <outline>
    <contour>
      <point x="148.0" y="0.0" type="line"/>
      <point x="258.3640784313467" y="0.0" type="line"/>
      <point x="258.3640784313467" y="840.8789542483934" type="line"/>
      <point x="303" y="921"/>
      <point x="403" y="1001"/>
      <point x="514.6034509804267" y="1000.6756601307334" type="curve" smooth="yes"/>
      <point x="625" y="1001"/>
      <point x="711" y="937"/>
      <point x="711.9187450980132" y="789.7869281045867" type="curve" smooth="yes"/>
      <point x="711.9187450980132" y="0.0" type="line"/>
      <point x="823.8527581699534" y="0.0" type="line"/>
      <point x="823.8527581699534" y="840.8789542483934" type="line"/>
      <point x="863" y="921"/>
      <point x="949" y="1001"/>
      <point x="1075.8254640522935" y="1000.6756601307334" type="curve" smooth="yes"/>
      <point x="1201" y="1001"/>
      <point x="1276" y="938"/>
      <point x="1277.9106928104734" y="787.6535947712533" type="curve" smooth="yes"/>
      <point x="1277.9106928104734" y="0.0" type="line"/>
      <point x="1388.8381699346335" y="0.0" type="line"/>
      <point x="1388.8381699346335" y="818.72026143792" type="line" smooth="yes"/>
      <point x="1389" y="974"/>
      <point x="1280" y="1101"/>
      <point x="1110.6776732025999" y="1101.0" type="curve" smooth="yes"/>
      <point x="974" y="1101"/>
      <point x="865" y="1031"/>
      <point x="799.7708758169733" y="919.86264052286" type="curve"/>
      <point x="800.0540130718666" y="919.86264052286" type="line"/>
      <point x="763" y="1038"/>
      <point x="674" y="1101"/>
      <point x="548.1186666666667" y="1101.0" type="curve" smooth="yes"/>
      <point x="423" y="1101"/>
      <point x="327" y="1046"/>
      <point x="253.74347712416" y="939.8619607843267" type="curve"/>
      <point x="254.14394771238665" y="939.8619607843267" type="line"/>
      <point x="250.69667973853333" y="1081.0" type="line"/>
      <point x="148.0" y="1081.0" type="line"/>
    </contour>
  </outline>
</glyph>
<glyph name="n" format="2">
  <advance width="982"/>
  <unicode hex="006E"/>
  <outline>
    <contour>
      <point x="148.0" y="0.0" type="line"/>
      <point x="258.3640784313467" y="0.0" type="line"/>
      <point x="258.3640784313467" y="830.2122875817267" type="line"/>
      <point x="302" y="915"/>
      <point x="389" y="1001"/>
      <point x="518.2034509804266" y="1000.6756601307334" type="curve" smooth="yes"/>
      <point x="665" y="1001"/>
      <point x="733" y="925"/>
      <point x="732.98541176468" y="751.3869281045867" type="curve" smooth="yes"/>
      <point x="732.98541176468" y="0.0" type="line"/>
      <point x="843.8527581699534" y="0.0" type="line"/>
      <point x="843.8527581699534" y="738.72026143792" type="line" smooth="yes"/>
      <point x="844" y="1001"/>
      <point x="736" y="1101"/>
      <point x="558.1186666666667" y="1101.0" type="curve" smooth="yes"/>
      <point x="429" y="1101"/>
      <point x="326" y="1046"/>
      <point x="253.74347712416" y="939.8619607843267" type="curve"/>
      <point x="254.14394771238665" y="939.8619607843267" type="line"/>
      <point x="250.69667973853333" y="1081.0" type="line"/>
      <point x="148.0" y="1081.0" type="line"/>
    </contour>
  </outline>
</glyph>
<glyph name="o" format="2">
  <advance width="1000"/>
  <unicode hex="006F"/>
  <outline>
    <contour>
      <point x="85.0" y="524.5" type="line" smooth="yes"/>
      <point x="85" y="168"/>
      <point x="246" y="-30"/>
      <point x="500.15686274510665" y="-30.0" type="curve" smooth="yes"/>
      <point x="754" y="-30"/>
      <point x="916" y="168"/>
      <point x="916.38039215688" y="524.5" type="curve" smooth="yes"/>
      <point x="916.38039215688" y="556.5" type="line" smooth="yes"/>
      <point x="916" y="912"/>
      <point x="754" y="1111"/>
      <point x="500.15686274510665" y="1111.0" type="curve" smooth="yes"/>
      <point x="246" y="1111"/>
      <point x="85" y="912"/>
      <point x="85.0" y="556.5" type="curve" smooth="yes"/>
    </contour>
    <contour>
      <point x="197.19341176467998" y="588.5" type="line" smooth="yes"/>
      <point x="197" y="852"/>
      <point x="292" y="1011"/>
      <point x="500.15686274510665" y="1011.1110588235467" type="curve" smooth="yes"/>
      <point x="709" y="1011"/>
      <point x="804" y="859"/>
      <point x="804.1869803921268" y="588.5" type="curve" smooth="yes"/>
      <point x="804.1869803921268" y="492.5" type="line" smooth="yes"/>
      <point x="804" y="230"/>
      <point x="700" y="70"/>
      <point x="500.15686274510665" y="69.88894117645334" type="curve" smooth="yes"/>
      <point x="300" y="70"/>
      <point x="197" y="230"/>
      <point x="197.19341176467998" y="492.5" type="curve" smooth="yes"/>
    </contour>
  </outline>
</glyph>
<glyph name="p" format="2">
  <advance width="1012"/>
  <unicode hex="0070"/>
  <outline>
    <contour>
      <point x="148.0" y="-416.0" type="line"/>
      <point x="258.3640784313467" y="-416.0" type="line"/>
      <point x="258.3640784313467" y="111.60235294120668" type="line"/>
      <point x="323" y="28"/>
      <point x="421" y="-20"/>
      <point x="560.65406535948" y="-20.0" type="curve" smooth="yes"/>
      <point x="790" y="-20"/>
      <point x="926" y="208"/>
      <point x="926.0177777777533" y="524.5" type="curve" smooth="yes"/>
      <point x="926.0177777777533" y="556.5" type="line" smooth="yes"/>
      <point x="926" y="873"/>
      <point x="790" y="1101"/>
      <point x="560.65406535948" y="1101.0" type="curve" smooth="yes"/>
      <point x="421" y="1101"/>
      <point x="310" y="1033"/>
      <point x="253.74347712416" y="948.9309803921267" type="curve"/>
      <point x="254.14394771238665" y="948.9309803921267" type="line"/>
      <point x="250.69667973853333" y="1081.0" type="line"/>
      <point x="148.0" y="1081.0" type="line"/>
    </contour>
    <contour>
      <point x="258.3640784313467" y="237.31869281047335" type="curve"/>
      <point x="258.3640784313467" y="841.5479738561933" type="line"/>
      <point x="298" y="919"/>
      <point x="396" y="1001"/>
      <point x="532.3920522876133" y="1001.1110588235467" type="curve" smooth="yes"/>
      <point x="723" y="1001"/>
      <point x="813" y="848"/>
      <point x="813.32109803922" y="588.5" type="curve" smooth="yes"/>
      <point x="813.32109803922" y="492.5" type="line" smooth="yes"/>
      <point x="813" y="233"/>
      <point x="721" y="80"/>
      <point x="527.05871895428" y="79.88894117645334" type="curve" smooth="yes"/>
      <point x="380" y="80"/>
      <point x="293" y="171"/>
    </contour>
  </outline>
</glyph>
<glyph name="q" format="2">
  <advance width="1012"/>
  <unicode hex="0071"/>
  <outline>
    <contour>
      <point x="85.0" y="524.5" type="line" smooth="yes"/>
      <point x="85" y="208"/>
      <point x="221" y="-20"/>
      <point x="450.48104575160664" y="-20.0" type="curve" smooth="yes"/>
      <point x="591" y="-20"/>
      <point x="689" y="36"/>
      <point x="752.4483660130734" y="119.21568627453999" type="curve"/>
      <point x="752.4483660130734" y="119.46568627453999" type="line"/>
      <point x="752.4483660130734" y="-416.0" type="line"/>
      <point x="863.81437908494" y="-416.0" type="line"/>
      <point x="863.81437908494" y="1081.0" type="line"/>
      <point x="760.6483660130734" y="1081.0" type="line"/>
      <point x="757.1084967320334" y="948.7843137254599" type="line"/>
      <point x="756.4483660130734" y="948.7843137254599" type="line"/>
      <point x="702" y="1034"/>
      <point x="591" y="1101"/>
      <point x="450.48104575160664" y="1101.0" type="curve" smooth="yes"/>
      <point x="221" y="1101"/>
      <point x="85" y="873"/>
      <point x="85.0" y="556.5" type="curve" smooth="yes"/>
    </contour>
    <contour>
      <point x="197.19341176467998" y="492.5" type="curve" smooth="yes"/>
      <point x="197.19341176467998" y="588.5" type="line" smooth="yes"/>
      <point x="197" y="864"/>
      <point x="297" y="1001"/>
      <point x="494.12245751636" y="1001.1110588235467" type="curve" smooth="yes"/>
      <point x="630" y="1001"/>
      <point x="716" y="919"/>
      <point x="752.6536993464067" y="841.5479738561933" type="curve"/>
      <point x="752.6536993464067" y="250.11869281047333" type="line"/>
      <point x="711" y="160"/>
      <point x="617" y="80"/>
      <point x="483.45579084969336" y="79.88894117645334" type="curve" smooth="yes"/>
      <point x="286" y="80"/>
      <point x="197" y="233"/>
    </contour>
  </outline>
</glyph>
<glyph name="r" format="2">
  <advance width="621"/>
  <unicode hex="0072"/>
  <outline>
    <contour>
      <point x="148.0" y="0.0" type="line"/>
      <point x="258.3640784313467" y="0.0" type="line"/>
      <point x="258.3640784313467" y="826.6883660130733" type="line"/>
      <point x="304" y="925"/>
      <point x="390" y="1000"/>
      <point x="502.18964705879335" y="1000.2097254902133" type="curve" smooth="yes"/>
      <point x="536" y="1000"/>
      <point x="563" y="996"/>
      <point x="591.1966013071867" y="990.2150588235467" type="curve"/>
      <point x="591.1966013071867" y="1097.0" type="line"/>
      <point x="577" y="1102"/>
      <point x="541" y="1111"/>
      <point x="510.9115816993134" y="1111.0" type="curve" smooth="yes"/>
      <point x="393" y="1111"/>
      <point x="310" y="1038"/>
      <point x="253.74347712416" y="952.57464052286" type="curve"/>
      <point x="254.14394771238665" y="952.57464052286" type="line"/>
      <point x="250.69667973853333" y="1081.0" type="line"/>
      <point x="148.0" y="1081.0" type="line"/>
    </contour>
  </outline>
</glyph>
<glyph name="s" format="2">
  <advance width="855"/>
  <unicode hex="0073"/>
  <outline>
    <contour>
      <point x="80.0" y="316.00653594770665" type="line"/>
      <point x="80.0" y="310.5032679738533" type="line" smooth="yes"/>
      <point x="80" y="92"/>
      <point x="191" y="-30"/>
      <point x="431.48104575160664" y="-30.0" type="curve" smooth="yes"/>
      <point x="662" y="-30"/>
      <point x="775" y="93"/>
      <point x="775.09542483662" y="284.67320261437334" type="curve" smooth="yes"/>
      <point x="775" y="461"/>
      <point x="674" y="543"/>
      <point x="475.86405228761333" y="603.60980392156" type="curve" smooth="yes"/>
      <point x="276" y="664"/>
      <point x="236" y="726"/>
      <point x="235.68137254900668" y="836.43006535948" type="curve" smooth="yes"/>
      <point x="236" y="955"/>
      <point x="311" y="1016"/>
      <point x="447.5169934640667" y="1016.12026143792" type="curve" smooth="yes"/>
      <point x="585" y="1016"/>
      <point x="660" y="946"/>
      <point x="660.1522875817267" y="790.3473856209466" type="curve" smooth="yes"/>
      <point x="660.1522875817267" y="770.73039215688" type="line"/>
      <point x="770.01503267974" y="770.73039215688" type="line"/>
      <point x="770.01503267974" y="775.73039215688" type="line" smooth="yes"/>
      <point x="770" y="994"/>
      <point x="650" y="1111"/>
      <point x="447.5169934640667" y="1111.0" type="curve" smooth="yes"/>
      <point x="253" y="1111"/>
      <point x="125" y="1000"/>
      <point x="124.51535947714" y="821.66013071896" type="curve" smooth="yes"/>
      <point x="125" y="669"/>
      <point x="210" y="569"/>
      <point x="408.3111111110867" y="512.59019607844" type="curve" smooth="yes"/>
      <point x="607" y="456"/>
      <point x="659" y="390"/>
      <point x="659.06960784312" y="267.76993464052" type="curve" smooth="yes"/>
      <point x="659" y="138"/>
      <point x="577" y="65"/>
      <point x="431.48104575160664" y="64.87973856208001" type="curve" smooth="yes"/>
      <point x="288" y="65"/>
      <point x="190" y="147"/>
      <point x="190.12941176468001" y="310.5032679738533" type="curve" smooth="yes"/>
      <point x="190.12941176468001" y="316.00653594770665" type="line"/>
    </contour>
  </outline>
</glyph>
<glyph name="t" format="2">
  <advance width="576"/>
  <unicode hex="0074"/>
  <outline>
    <contour>
      <point x="0.0" y="986.12439215688" type="line"/>
      <point x="526.1943529412067" y="986.12439215688" type="line"/>
      <point x="526.1943529412067" y="1081.0" type="line"/>
      <point x="0.0" y="1081.0" type="line"/>
    </contour>
    <contour>
      <point x="185.6783267974" y="262.01307189541336" type="line" smooth="yes"/>
      <point x="186" y="60"/>
      <point x="264" y="-30"/>
      <point x="388.88303267974" y="-30.0" type="curve" smooth="yes"/>
      <point x="440" y="-30"/>
      <point x="482" y="-18"/>
      <point x="508.43346405229335" y="-4.986666666666666" type="curve"/>
      <point x="508.43346405229335" y="87.49573856208" type="line"/>
      <point x="477" y="77"/>
      <point x="450" y="72"/>
      <point x="416.9281045751533" y="71.82640522874667" type="curve" smooth="yes"/>
      <point x="332" y="72"/>
      <point x="296" y="113"/>
      <point x="296.0424052287467" y="254.54640522874666" type="curve" smooth="yes"/>
      <point x="296.2" y="1322.0" type="line"/>
      <point x="185.46666666666667" y="1322.0" type="line"/>
      <point x="185.6783267974" y="1044.0787973856268" type="line"/>
      <point x="185.6783267974" y="1024.0521307189601" type="line"/>
    </contour>
  </outline>
</glyph>
<glyph name="u" format="2">
  <advance width="982"/>
  <unicode hex="0075"/>
  <outline>
    <contour>
      <point x="138.0" y="342.27973856208" type="line" smooth="yes"/>
      <point x="138" y="80"/>
      <point x="251" y="-20"/>
      <point x="413.06742483662003" y="-20.0" type="curve" smooth="yes"/>
      <point x="568" y="-20"/>
      <point x="657" y="32"/>
      <point x="726.5393464052" y="119.80470588233999" type="curve"/>
      <point x="728.2722091503067" y="119.80470588233999" type="line"/>
      <point x="731.1560784313467" y="0.0" type="line"/>
      <point x="833.8527581699534" y="0.0" type="line"/>
      <point x="833.8527581699534" y="1081.0" type="line"/>
      <point x="722.98541176468" y="1081.0" type="line"/>
      <point x="722.98541176468" y="240.1210457516067" type="line"/>
      <point x="662" y="141"/>
      <point x="589" y="80"/>
      <point x="462.07937254900673" y="80.32433986926668" type="curve" smooth="yes"/>
      <point x="315" y="80"/>
      <point x="248" y="154"/>
      <point x="248.36407843134668" y="340.27973856208" type="curve" smooth="yes"/>
      <point x="248.36407843134668" y="1081.0" type="line"/>
      <point x="138.0" y="1081.0" type="line"/>
    </contour>
  </outline>
</glyph>
<glyph name="v" format="2">
  <advance width="857"/>
  <unicode hex="0076"/>
  <outline>
    <contour>
      <point x="0.0" y="1081.0" type="line"/>
      <point x="376.73464052286" y="0.0" type="line"/>
      <point x="480.4393986928133" y="0.0" type="line"/>
      <point x="856.6313725490066" y="1081.0" type="line"/>
      <point x="734.7424836601667" y="1081.0" type="line"/>
      <point x="472.63267973853334" y="295.5130718954133" type="line" smooth="yes"/>
      <point x="455" y="242"/>
      <point x="443" y="211"/>
      <point x="432.8506535948" y="136.98169934640669" type="curve"/>
      <point x="426.11732026146666" y="136.98169934640669" type="line"/>
      <point x="415" y="211"/>
      <point x="404" y="242"/>
      <point x="386.33529411766" y="295.5130718954133" type="curve" smooth="yes"/>
      <point x="126.03529411766" y="1081.0" type="line"/>
    </contour>
  </outline>
</glyph>
<glyph name="w" format="2">
  <advance width="1394"/>
  <unicode hex="0077"/>
  <outline>
    <contour>
      <point x="25.0" y="1081.0" type="line"/>
      <point x="294.95947712416" y="0.0" type="line"/>
      <point x="428.10031372545996" y="0.0" type="line"/>
      <point x="655.5777777777532" y="754.4862745097867" type="line" smooth="yes"/>
      <point x="672" y="808"/>
      <point x="681" y="854"/>
      <point x="692.4470588235466" y="907.1529411764534" type="curve"/>
      <point x="699.9137254902133" y="907.1529411764534" type="line"/>
      <point x="710" y="854"/>
      <point x="722" y="808"/>
      <point x="737.8496732026" y="754.4862745097867" type="curve" smooth="yes"/>
      <point x="966.0631372548934" y="0.0" type="line"/>
      <point x="1098.87670588234" y="0.0" type="line"/>
      <point x="1367.5935163398333" y="1081.0" type="line"/>
      <point x="1255.2704313725533" y="1081.0" type="line"/>
      <point x="1068.8882352941132" y="323.21372549021333" type="line" smooth="yes"/>
      <point x="1057" y="270"/>
      <point x="1031" y="188"/>
      <point x="1023.8026143790532" y="134.61568627454" type="curve"/>
      <point x="1017.8026143790532" y="134.61568627454" type="line"/>
      <point x="1010" y="188"/>
      <point x="989" y="270"/>
      <point x="975.1434640522933" y="323.21372549021333" type="curve" smooth="yes"/>
      <point x="758.3960784313467" y="1081.0" type="line"/>
      <point x="640.44444444442" y="1081.0" type="line"/>
      <point x="413.38758169931333" y="323.21372549021333" type="line" smooth="yes"/>
      <point x="398" y="270"/>
      <point x="377" y="188"/>
      <point x="368.6117647058867" y="134.61568627454" type="curve"/>
      <point x="361.87843137255334" y="134.61568627454" type="line"/>
      <point x="355" y="188"/>
      <point x="335" y="270"/>
      <point x="321.6993464052" y="323.21372549021333" type="curve" smooth="yes"/>
      <point x="142.26415686276667" y="1081.0" type="line"/>
    </contour>
  </outline>
</glyph>
<glyph name="x" format="2">
  <advance width="875"/>
  <unicode hex="0078"/>
  <outline>
    <contour>
      <point x="20.0" y="0.0" type="line"/>
      <point x="139.8379607843267" y="0.0" type="line"/>
      <point x="461.7281045751533" y="515.3" type="line"/>
      <point x="476.07471895428006" y="515.5933333333334" type="line"/>
      <point x="836.1630849673534" y="1081.0" type="line"/>
      <point x="715.3757908496933" y="1081.0" type="line"/>
      <point x="402.4745098039" y="579.7" type="line"/>
      <point x="390.40789542484663" y="579.4066666666666" type="line"/>
    </contour>
    <contour>
      <point x="40.81840522874667" y="1081.0" type="line"/>
      <point x="401.97343790848663" y="515.5933333333334" type="line"/>
      <point x="404.39738562094664" y="515.3" type="line"/>
      <point x="731.5098562091733" y="0.0" type="line"/>
      <point x="855.9148235294333" y="0.0" type="line"/>
      <point x="484.1869281045867" y="584.8333333333334" type="line"/>
      <point x="482.9176470587933" y="584.1" type="line"/>
      <point x="164.72010457515333" y="1081.0" type="line"/>
    </contour>
  </outline>
</glyph>
<glyph name="y" format="2">
  <advance width="947"/>
  <unicode hex="0079"/>
  <outline>
    <contour>
      <point x="115.83267973853333" y="-416.0" type="line"/>
      <point x="149" y="-428"/>
      <point x="183" y="-436"/>
      <point x="233.51764705879333" y="-436.0" type="curve" smooth="yes"/>
      <point x="374" y="-436"/>
      <point x="426" y="-366"/>
      <point x="551.1843137254599" y="-13.133333333333354" type="curve" smooth="yes"/>
      <point x="945.44444444442" y="1081.0" type="line"/>
      <point x="826.0888888889134" y="1081.0" type="line"/>
      <point x="546.9065359477066" y="276.31372549021336" type="line" smooth="yes"/>
      <point x="532" y="233"/>
      <point x="524" y="202"/>
      <point x="518.5872549019866" y="136.98169934640669" type="curve"/>
      <point x="511.85392156865333" y="136.98169934640669" type="line"/>
      <point x="503" y="202"/>
      <point x="497" y="233"/>
      <point x="480.97483660129996" y="276.31372549021336" type="curve" smooth="yes"/>
      <point x="210.23529411766" y="1081.0" type="line"/>
      <point x="82.73333333333333" y="1081.0" type="line"/>
      <point x="462.53790849671327" y="11.899673202599999" type="line"/>
      <point x="452.78790849671327" y="-15.616993464066667" type="line"/>
      <point x="324" y="-368"/>
      <point x="315" y="-337"/>
      <point x="228.20784313723334" y="-337.25359477125335" type="curve" smooth="yes"/>
      <point x="194" y="-337"/>
      <point x="150" y="-329"/>
      <point x="115.83267973853333" y="-317.78692810458665" type="curve"/>
    </contour>
  </outline>
</glyph>
<glyph name="z" format="2">
  <advance width="835"/>
  <unicode hex="007A"/>
  <outline>
    <contour>
      <point x="54.0" y="0.0" type="line"/>
      <point x="786.1650196078733" y="0.0" type="line"/>
      <point x="786.1650196078733" y="99.88894117645334" type="line"/>
      <point x="181.86951633983332" y="99.88894117645334" type="line"/>
      <point x="756.12141176468" y="983.0916601307333" type="line"/>
      <point x="756.12141176468" y="1081.0" type="line"/>
      <point x="62.29186928104001" y="1081.0" type="line"/>
      <point x="62.29186928104001" y="981.1110588235467" type="line"/>
      <point x="627.1025620915133" y="981.1110588235467" type="line"/>
      <point x="54.0" y="99.41233986926666" type="line"/>
    </contour>
  </outline>
</glyph>
<glyph name="braceleft" format="2">
  <advance width="625"/>
  <unicode hex="007B"/>
  <outline>
    <contour>
      <point x="578.3350065359334" y="-312.0" type="curve"/>
      <point x="578.3350065359334" y="-216.12559477125333" type="line"/>
      <point x="382" y="-216"/>
      <point x="285" y="-103"/>
      <point x="337.9323398692667" y="117.43189542484667" type="curve" smooth="yes"/>
      <point x="386.9461437908267" y="334.0" type="line" smooth="yes"/>
      <point x="413" y="446"/>
      <point x="367" y="537"/>
      <point x="235.74854901957332" y="574.0" type="curve"/>
      <point x="367" y="611"/>
      <point x="414" y="702"/>
      <point x="386.9461437908267" y="814.0" type="curve" smooth="yes"/>
      <point x="337.9323398692667" y="1030.5681045751533" type="line" smooth="yes"/>
      <point x="285" y="1251"/>
      <point x="382" y="1364"/>
      <point x="578.3350065359334" y="1364.1255947712534" type="curve"/>
      <point x="578.3350065359334" y="1460.0" type="line"/>
      <point x="325" y="1460"/>
      <point x="167" y="1285"/>
      <point x="226.48292810458665" y="1031.57464052286" type="curve" smooth="yes"/>
      <point x="274.99346405229335" y="815.0065359477067" type="line" smooth="yes"/>
      <point x="312" y="655"/>
      <point x="215" y="619"/>
      <point x="72.42969934640666" y="618.9265359477066" type="curve"/>
      <point x="72.42969934640666" y="529.0734640522934" type="line"/>
      <point x="215" y="529"/>
      <point x="312" y="493"/>
      <point x="274.99346405229335" y="332.99346405229335" type="curve" smooth="yes"/>
      <point x="226.48292810458665" y="116.42535947714" type="line" smooth="yes"/>
      <point x="167" y="-137"/>
      <point x="325" y="-312"/>
    </contour>
  </outline>
</glyph>
<glyph name="braceright" format="2">
  <advance width="625"/>
  <unicode hex="007D"/>
  <outline>
    <contour>
      <point x="46.10786928104" y="-312.0" type="line"/>
      <point x="300" y="-312"/>
      <point x="460" y="-137"/>
      <point x="398.46321568624" y="116.42535947714" type="curve" smooth="yes"/>
      <point x="349.44941176468" y="332.99346405229335" type="line" smooth="yes"/>
      <point x="313" y="493"/>
      <point x="409" y="529"/>
      <point x="552.51644444442" y="529.0734640522934" type="curve"/>
      <point x="552.51644444442" y="618.9265359477066" type="line"/>
      <point x="409" y="619"/>
      <point x="313" y="655"/>
      <point x="349.44941176468" y="815.0065359477067" type="curve" smooth="yes"/>
      <point x="398.46321568624" y="1031.57464052286" type="line" smooth="yes"/>
      <point x="460" y="1285"/>
      <point x="300" y="1460"/>
      <point x="46.10786928104" y="1460.0" type="curve"/>
      <point x="46.10786928104" y="1364.1255947712534" type="line"/>
      <point x="242" y="1364"/>
      <point x="340" y="1251"/>
      <point x="286.51053594770667" y="1030.5681045751533" type="curve" smooth="yes"/>
      <point x="238.0" y="814.0" type="line" smooth="yes"/>
      <point x="212" y="702"/>
      <point x="258" y="611"/>
      <point x="389.1975947712533" y="574.0" type="curve"/>
      <point x="258" y="537"/>
      <point x="212" y="446"/>
      <point x="238.0" y="334.0" type="curve" smooth="yes"/>
      <point x="286.51053594770667" y="117.43189542484667" type="line" smooth="yes"/>
      <point x="340" y="-103"/>
      <point x="242" y="-216"/>
      <point x="46.10786928104" y="-216.12559477125333" type="curve"/>
    </contour>
  </outline>
</glyph>
<glyph name="asciitilde" format="2">
  <advance width="1465"/>
  <unicode hex="007E"/>
  <outline>
    <contour>
      <point x="457.30326797385334" y="577.4666666666667" type="line"/>
      <point x="489" y="632"/>
      <point x="525" y="655"/>
      <point x="583.8117647058866" y="655.4" type="curve" smooth="yes"/>
      <point x="576" y="655"/>
      <point x="688" y="635"/>
      <point x="761.9372549019866" y="612.2967320261466" type="curve" smooth="yes"/>
      <point x="814" y="601"/>
      <point x="905" y="592"/>
      <point x="889.81568627454" y="592.4" type="curve" smooth="yes"/>
      <point x="948" y="592"/>
      <point x="988" y="614"/>
      <point x="1016.0209150326466" y="653.8666666666667" type="curve"/>
      <point x="1016.0209150326466" y="781.3333333333334" type="line"/>
      <point x="986" y="730"/>
      <point x="950" y="702"/>
      <point x="886.6823529412067" y="702.4" type="curve" smooth="yes"/>
      <point x="898" y="702"/>
      <point x="798" y="717"/>
      <point x="737.5137254902133" y="732.8967320261467" type="curve" smooth="yes"/>
      <point x="670" y="753"/>
      <point x="568" y="766"/>
      <point x="579.54509803922" y="765.7333333333333" type="curve" smooth="yes"/>
      <point x="524" y="766"/>
      <point x="487" y="747"/>
      <point x="457.30326797385334" y="703.2" type="curve"/>
    </contour>
  </outline>
</glyph>
<glyph name="exclamdown" format="2">
  <advance width="533"/>
  <unicode hex="00A1"/>
  <outline>
    <contour>
      <point x="347.0" y="1075.6666666666667" type="curve" smooth="yes"/>
      <point x="347" y="1128"/>
      <point x="318" y="1171"/>
      <point x="266.1333333333333" y="1170.5333333333333" type="curve" smooth="yes"/>
      <point x="214" y="1171"/>
      <point x="186" y="1128"/>
      <point x="186.0" y="1075.6666666666667" type="curve" smooth="yes"/>
      <point x="186" y="1023"/>
      <point x="214" y="981"/>
      <point x="266.1333333333333" y="980.8" type="curve" smooth="yes"/>
      <point x="318" y="981"/>
      <point x="347" y="1023"/>
    </contour>
    <contour>
      <point x="312.6666666666667" y="738.5333333333333" type="line"/>
      <point x="221.4" y="738.5333333333333" type="line"/>
      <point x="212.6" y="-307.46666666666664" type="line"/>
      <point x="320.73333333333335" y="-307.46666666666664" type="line"/>
    </contour>
  </outline>
</glyph>
<glyph name="cent" format="2">
  <advance width="906"/>
  <unicode hex="00A2"/>
  <outline>
    <contour>
      <point x="499.4" y="235.8" type="curve" smooth="yes"/>
      <point x="719" y="236"/>
      <point x="757" y="362"/>
      <point x="749.2" y="517.2" type="curve"/>
      <point x="858.6" y="517.2" type="line"/>
      <point x="867" y="305"/>
      <point x="789" y="136"/>
      <point x="501.5333333333333" y="136.46666666666667" type="curve" smooth="yes"/>
      <point x="277" y="136"/>
      <point x="101" y="305"/>
      <point x="101.0" y="676.4666666666667" type="curve" smooth="yes"/>
      <point x="101.0" y="700.4666666666667" type="line" smooth="yes"/>
      <point x="101" y="1072"/>
      <point x="274" y="1240"/>
      <point x="510.06666666666666" y="1240.4666666666667" type="curve" smooth="yes"/>
      <point x="767" y="1240"/>
      <point x="866" y="1073"/>
      <point x="858.6" y="883.7333333333333" type="curve"/>
      <point x="749.2" y="883.7333333333333" type="line"/>
      <point x="757" y="1030"/>
      <point x="714" y="1140"/>
      <point x="509.0" y="1140.0666666666666" type="curve" smooth="yes"/>
      <point x="331" y="1140"/>
      <point x="216" y="1012"/>
      <point x="216.0" y="732.4666666666667" type="curve" smooth="yes"/>
      <point x="216.0" y="644.4666666666667" type="line" smooth="yes"/>
      <point x="216" y="366"/>
      <point x="334" y="236"/>
    </contour>
    <contour>
      <point x="408.6" y="0.0" type="line"/>
      <point x="508.73333333333335" y="0.0" type="line"/>
      <point x="508.73333333333335" y="210.66666666666666" type="line"/>
      <point x="506.6666666666667" y="220.66666666666666" type="line"/>
      <point x="506.6666666666667" y="708.0" type="line"/>
      <point x="410.6666666666667" y="708.0" type="line"/>
      <point x="410.6666666666667" y="221.66666666666666" type="line"/>
      <point x="408.6" y="207.66666666666666" type="line"/>
    </contour>
    <contour>
      <point x="410.6666666666667" y="708.0" type="line"/>
      <point x="506.6666666666667" y="708.0" type="line"/>
      <point x="506.6666666666667" y="1179.0" type="line"/>
      <point x="508.73333333333335" y="1192.0" type="line"/>
      <point x="508.73333333333335" y="1402.0" type="line"/>
      <point x="408.6" y="1402.0" type="line"/>
      <point x="408.6" y="1192.0" type="line"/>
      <point x="410.6666666666667" y="1182.0" type="line"/>
    </contour>
  </outline>
</glyph>
<glyph name="sterling" format="2">
  <advance width="862"/>
  <unicode hex="00A3"/>
  <outline>
    <contour>
      <point x="855.3333333333333" y="0.0" type="line"/>
      <point x="855.3333333333333" y="105.13333333333334" type="line"/>
      <point x="277.26666666666665" y="105.13333333333334" type="line"/>
      <point x="371" y="160"/>
      <point x="423" y="280"/>
      <point x="404.6666666666667" y="462.53333333333336" type="curve" smooth="yes"/>
      <point x="347.06666666666666" y="1039.0" type="line" smooth="yes"/>
      <point x="323" y="1283"/>
      <point x="378" y="1376"/>
      <point x="521.6" y="1376.4666666666667" type="curve" smooth="yes"/>
      <point x="651" y="1376"/>
      <point x="706" y="1291"/>
      <point x="710.2666666666667" y="1132.3333333333333" type="curve" smooth="yes"/>
      <point x="710.2666666666667" y="1116.3333333333333" type="line"/>
      <point x="822.3333333333334" y="1116.3333333333333" type="line"/>
      <point x="822.3333333333334" y="1132.3333333333333" type="line" smooth="yes"/>
      <point x="822" y="1375"/>
      <point x="719" y="1483"/>
      <point x="519.6" y="1482.6" type="curve" smooth="yes"/>
      <point x="293" y="1483"/>
      <point x="193" y="1351"/>
      <point x="228.73333333333335" y="1039.0" type="curve" smooth="yes"/>
      <point x="299.8666666666667" y="436.2" type="line" smooth="yes"/>
      <point x="324" y="235"/>
      <point x="228" y="96"/>
      <point x="77.33333333333333" y="96.2" type="curve" smooth="yes"/>
      <point x="36.0" y="96.2" type="line"/>
      <point x="36.0" y="0.0" type="line"/>
    </contour>
    <contour>
      <point x="680.6666666666666" y="685.0" type="line"/>
      <point x="680.6666666666666" y="768.4" type="line"/>
      <point x="66.66666666666667" y="768.4" type="line"/>
      <point x="66.66666666666667" y="685.0" type="line"/>
    </contour>
  </outline>
</glyph>
<glyph name="currency" format="2">
  <advance width="1051"/>
  <unicode hex="00A4"/>
  <guideline x="0" y="901.0" angle="0" identifier="bRYxxRaQQf"/>
  <guideline x="0" y="555.0" angle="0" identifier="917FhrihjR"/>
  <outline>
    <contour>
      <point x="235.33333333333334" y="712.0" type="curve"/>
      <point x="235" y="914"/>
      <point x="332" y="1068"/>
      <point x="522.6666666666666" y="1068.0666666666666" type="curve" smooth="yes"/>
      <point x="712" y="1068"/>
      <point x="808" y="914"/>
      <point x="808.0" y="712.0" type="curve" smooth="yes"/>
      <point x="808" y="507"/>
      <point x="712" y="354"/>
      <point x="522.6666666666666" y="353.93333333333334" type="curve" smooth="yes"/>
      <point x="332" y="354"/>
      <point x="235" y="507"/>
    </contour>
    <contour>
      <point x="119.06666666666666" y="718.0" type="curve"/>
      <point x="119" y="455"/>
      <point x="274" y="252"/>
      <point x="521.6666666666666" y="251.53333333333333" type="curve" smooth="yes"/>
      <point x="769" y="252"/>
      <point x="924" y="455"/>
      <point x="924.2666666666667" y="718.0" type="curve" smooth="yes"/>
      <point x="924" y="982"/>
      <point x="769" y="1182"/>
      <point x="521.6666666666666" y="1182.4666666666667" type="curve" smooth="yes"/>
      <point x="274" y="1182"/>
      <point x="119" y="982"/>
    </contour>
    <contour>
      <point x="990.3333333333333" y="1199.4666666666667" type="line"/>
      <point x="913.0666666666666" y="1280.2666666666667" type="line"/>
      <point x="711.0666666666666" y="1074.2666666666667" type="line"/>
      <point x="788.3333333333333" y="993.4666666666667" type="line"/>
    </contour>
    <contour>
      <point x="313.0" y="377.46666666666664" type="line"/>
      <point x="111.0" y="171.46666666666667" type="line"/>
      <point x="34.733333333333334" y="251.26666666666668" type="line"/>
      <point x="236.73333333333332" y="456.26666666666665" type="line"/>
    </contour>
    <contour>
      <point x="939.0666666666666" y="178.46666666666667" type="line"/>
      <point x="1017.3333333333333" y="259.26666666666665" type="line"/>
      <point x="815.3333333333333" y="464.26666666666665" type="line"/>
      <point x="737.0666666666666" y="384.46666666666664" type="line"/>
    </contour>
    <contour>
      <point x="253.73333333333332" y="1007.4666666666667" type="line"/>
      <point x="51.733333333333334" y="1213.4666666666667" type="line"/>
      <point x="128.0" y="1293.2666666666667" type="line"/>
      <point x="330.0" y="1087.2666666666667" type="line"/>
    </contour>
  </outline>
</glyph>
<glyph name="yen" format="2">
  <advance width="969"/>
  <unicode hex="00A5"/>
  <outline>
    <contour>
      <point x="73.66666666666667" y="340.3333333333333" type="line"/>
      <point x="902.8666666666667" y="340.3333333333333" type="line"/>
      <point x="902.8666666666667" y="440.6666666666667" type="line"/>
      <point x="73.66666666666667" y="440.6666666666667" type="line"/>
    </contour>
    <contour>
      <point x="73.66666666666667" y="643.0" type="line"/>
      <point x="902.8666666666667" y="643.0" type="line"/>
      <point x="902.8666666666667" y="738.3333333333334" type="line"/>
      <point x="598.7333333333333" y="738.3333333333334" type="line"/>
      <point x="550.7333333333333" y="669.0" type="line"/>
      <point x="441.73333333333335" y="669.0" type="line"/>
      <point x="388.73333333333335" y="738.3333333333334" type="line"/>
      <point x="73.66666666666667" y="738.3333333333334" type="line"/>
    </contour>
    <contour>
      <point x="437.1333333333333" y="0.0" type="line"/>
      <point x="547.8" y="0.0" type="line"/>
      <point x="547.8" y="572.9333333333333" type="line"/>
      <point x="958.2" y="1456.0" type="line"/>
      <point x="830.5333333333333" y="1456.0" type="line"/>
      <point x="557.7333333333333" y="805.0" type="line" smooth="yes"/>
      <point x="538" y="765"/>
      <point x="533" y="754"/>
      <point x="503.73333333333335" y="679.0" type="curve"/>
      <point x="483.73333333333335" y="679.0" type="line"/>
      <point x="465" y="729"/>
      <point x="448" y="764"/>
      <point x="429.73333333333335" y="805.0" type="curve" smooth="yes"/>
      <point x="142.33333333333334" y="1456.0" type="line"/>
      <point x="10.333333333333332" y="1456.0" type="line"/>
      <point x="437.1333333333333" y="572.9333333333333" type="line"/>
    </contour>
  </outline>
</glyph>
<glyph name="section" format="2">
  <advance width="1256"/>
  <unicode hex="00A7"/>
  <guideline x="0" y="1658.0" angle="0" identifier="QzZ5gIiCyn"/>
  <guideline x="0" y="578.0" angle="0" identifier="9Hxjf2sdFw"/>
  <outline>
    <contour>
      <point x="710.8" y="135.2" type="curve"/>
      <point x="710.8" y="224.13333333333333" type="line"/>
      <point x="867" y="240"/>
      <point x="945" y="339"/>
      <point x="944.6666666666666" y="481.3333333333333" type="curve"/>
      <point x="945" y="616"/>
      <point x="919" y="690"/>
      <point x="630.2" y="771.4" type="curve" smooth="yes"/>
      <point x="342" y="851"/>
      <point x="266" y="987"/>
      <point x="266.2" y="1142.2" type="curve" smooth="yes"/>
      <point x="266" y="1346"/>
      <point x="402" y="1490"/>
      <point x="624.4666666666667" y="1490.2666666666667" type="curve" smooth="yes"/>
      <point x="842" y="1491"/>
      <point x="974" y="1335"/>
      <point x="973.9333333333334" y="1105.1333333333334" type="curve"/>
      <point x="867.6" y="1105.1333333333334" type="line"/>
      <point x="868" y="1292"/>
      <point x="769" y="1392"/>
      <point x="624.4666666666667" y="1392.0" type="curve" smooth="yes"/>
      <point x="476" y="1392"/>
      <point x="378" y="1290"/>
      <point x="377.6666666666667" y="1145.1333333333334" type="curve" smooth="yes"/>
      <point x="378" y="1030"/>
      <point x="479" y="927"/>
      <point x="692.8" y="871.3333333333334" type="curve" smooth="yes"/>
      <point x="981" y="792"/>
      <point x="1060" y="690"/>
      <point x="1060.4" y="485.3333333333333" type="curve" smooth="yes"/>
      <point x="1060" y="304"/>
      <point x="942" y="151"/>
    </contour>
    <contour>
      <point x="517.6" y="912.3333333333334" type="curve"/>
      <point x="517.3333333333334" y="816.1333333333333" type="line"/>
      <point x="376" y="801"/>
      <point x="307" y="702"/>
      <point x="306.6666666666667" y="563.3333333333334" type="curve" smooth="yes"/>
      <point x="307" y="435"/>
      <point x="334" y="364"/>
      <point x="619.1333333333333" y="276.6666666666667" type="curve" smooth="yes"/>
      <point x="922" y="183"/>
      <point x="971" y="55"/>
      <point x="971.2" y="-126.93333333333334" type="curve" smooth="yes"/>
      <point x="971" y="-363"/>
      <point x="843" y="-506"/>
      <point x="586.5333333333333" y="-506.06666666666666" type="curve" smooth="yes"/>
      <point x="318" y="-506"/>
      <point x="201" y="-333"/>
      <point x="201.2" y="-90.33333333333333" type="curve"/>
      <point x="308.0" y="-89.8" type="line"/>
      <point x="308" y="-255"/>
      <point x="379" y="-406"/>
      <point x="586.5333333333333" y="-405.6" type="curve" smooth="yes"/>
      <point x="782" y="-406"/>
      <point x="861" y="-291"/>
      <point x="860.7333333333333" y="-133.06666666666666" type="curve" smooth="yes"/>
      <point x="861" y="16"/>
      <point x="777" y="110"/>
      <point x="553.2" y="175.66666666666666" type="curve" smooth="yes"/>
      <point x="268" y="259"/>
      <point x="191" y="367"/>
      <point x="191.4" y="566.0" type="curve" smooth="yes"/>
      <point x="191" y="741"/>
      <point x="285" y="896"/>
    </contour>
  </outline>
</glyph>
<glyph name="dieresis" format="2">
  <advance width="1024"/>
  <unicode hex="00A8"/>
  <outline>
    <contour>
      <point x="252.39999999999998" y="1290.4666666666667" type="curve" smooth="yes"/>
      <point x="252" y="1244"/>
      <point x="282" y="1207"/>
      <point x="338.6666666666667" y="1207.0" type="curve" smooth="yes"/>
      <point x="396" y="1207"/>
      <point x="426" y="1244"/>
      <point x="425.93333333333334" y="1290.4666666666667" type="curve" smooth="yes"/>
      <point x="426" y="1338"/>
      <point x="396" y="1375"/>
      <point x="338.6666666666667" y="1375.4666666666667" type="curve" smooth="yes"/>
      <point x="282" y="1375"/>
      <point x="252" y="1338"/>
    </contour>
    <contour>
      <point x="598.0666666666667" y="1288.4666666666667" type="curve" smooth="yes"/>
      <point x="598" y="1242"/>
      <point x="628" y="1205"/>
      <point x="684.3333333333334" y="1205.0" type="curve" smooth="yes"/>
      <point x="741" y="1205"/>
      <point x="772" y="1242"/>
      <point x="771.6" y="1288.4666666666667" type="curve" smooth="yes"/>
      <point x="772" y="1336"/>
      <point x="741" y="1373"/>
      <point x="684.3333333333334" y="1373.4666666666667" type="curve" smooth="yes"/>
      <point x="628" y="1373"/>
      <point x="598" y="1336"/>
    </contour>
  </outline>
</glyph>
<glyph name="copyright" format="2">
  <advance width="1541"/>
  <unicode hex="00A9"/>
  <guideline x="0" y="901.0" angle="0" identifier="0Pjz0qKr8z"/>
  <guideline x="0" y="555.0" angle="0" identifier="sJo8BlDiJ7"/>
  <outline>
    <contour>
      <point x="982.4666666666667" y="529.1333333333333" type="line"/>
      <point x="982" y="402"/>
      <point x="916" y="300"/>
      <point x="784.4" y="299.6666666666667" type="curve" smooth="yes"/>
      <point x="618" y="300"/>
      <point x="540" y="447"/>
      <point x="539.8666666666667" y="659.1333333333333" type="curve" smooth="yes"/>
      <point x="539.8666666666667" y="713.2666666666667" type="line" smooth="yes"/>
      <point x="540" y="925"/>
      <point x="620" y="1072"/>
      <point x="782.0" y="1072.0" type="curve" smooth="yes"/>
      <point x="921" y="1072"/>
      <point x="983" y="967"/>
      <point x="982.7333333333333" y="844.4" type="curve"/>
      <point x="1092.8666666666668" y="844.4" type="line"/>
      <point x="1093" y="1036"/>
      <point x="985" y="1169"/>
      <point x="782.2666666666667" y="1168.5333333333333" type="curve" smooth="yes"/>
      <point x="545" y="1169"/>
      <point x="423" y="981"/>
      <point x="423.1333333333333" y="701.5333333333333" type="curve" smooth="yes"/>
      <point x="423.1333333333333" y="670.6" type="line" smooth="yes"/>
      <point x="423" y="396"/>
      <point x="535" y="205"/>
      <point x="777.7333333333333" y="205.0" type="curve" smooth="yes"/>
      <point x="1017" y="205"/>
      <point x="1093" y="356"/>
      <point x="1092.6" y="529.1333333333333" type="curve"/>
    </contour>
    <contour>
      <point x="146.86666666666667" y="687.0" type="curve" smooth="yes"/>
      <point x="147" y="1106"/>
      <point x="380" y="1410"/>
      <point x="771.4666666666667" y="1409.5333333333333" type="curve" smooth="yes"/>
      <point x="1162" y="1410"/>
      <point x="1394" y="1106"/>
      <point x="1394.3333333333333" y="687.0" type="curve" smooth="yes"/>
      <point x="1394" y="267"/>
      <point x="1162" y="-38"/>
      <point x="771.4666666666667" y="-37.8" type="curve" smooth="yes"/>
      <point x="380" y="-38"/>
      <point x="147" y="267"/>
    </contour>
    <contour>
      <point x="42.13333333333333" y="687.0" type="curve" smooth="yes"/>
      <point x="42" y="218"/>
      <point x="334" y="-140"/>
      <point x="770.4666666666667" y="-139.66666666666666" type="curve" smooth="yes"/>
      <point x="1206" y="-140"/>
      <point x="1499" y="218"/>
      <point x="1498.8" y="687.0" type="curve" smooth="yes"/>
      <point x="1499" y="1159"/>
      <point x="1206" y="1512"/>
      <point x="770.4666666666667" y="1511.6666666666667" type="curve" smooth="yes"/>
      <point x="334" y="1512"/>
      <point x="42" y="1159"/>
    </contour>
  </outline>
</glyph>
<glyph name="ordfeminine" format="2">
  <advance width="798"/>
  <unicode hex="00AA"/>
  <guideline x="0" y="1681.0" angle="0" identifier="3CJlALCfkl"/>
  <guideline x="0" y="909.0" angle="0" identifier="Zdl6NZVQAy"/>
  <outline>
    <contour>
      <point x="518.8" y="862.0" type="curve"/>
      <point x="518.8" y="1202.0" type="line" smooth="yes"/>
      <point x="519" y="1314"/>
      <point x="477" y="1386"/>
      <point x="400.93333333333334" y="1386.3333333333333" type="curve" smooth="yes"/>
      <point x="317" y="1386"/>
      <point x="270" y="1338"/>
      <point x="269.73333333333335" y="1247.0" type="curve" smooth="yes"/>
      <point x="269.73333333333335" y="1234.0" type="line"/>
      <point x="171.93333333333334" y="1234.0" type="line"/>
      <point x="171.93333333333334" y="1253.6666666666667" type="line" smooth="yes"/>
      <point x="172" y="1398"/>
      <point x="245" y="1477"/>
      <point x="398.93333333333334" y="1477.0" type="curve" smooth="yes"/>
      <point x="548" y="1477"/>
      <point x="621" y="1375"/>
      <point x="620.9333333333334" y="1201.0" type="curve" smooth="yes"/>
      <point x="620.9333333333334" y="887.0" type="line" smooth="yes"/>
      <point x="621" y="821"/>
      <point x="628" y="764"/>
      <point x="646.9333333333334" y="706.0" type="curve"/>
      <point x="561.8" y="706.0" type="line"/>
      <point x="531" y="746"/>
      <point x="519" y="807"/>
    </contour>
    <contour>
      <point x="556.6" y="1141.6666666666667" type="line"/>
      <point x="556.6" y="1056.6666666666667" type="line"/>
      <point x="412.93333333333334" y="1056.6666666666667" type="line" smooth="yes"/>
      <point x="314" y="1062"/>
      <point x="250" y="1021"/>
      <point x="249.93333333333334" y="922.0" type="curve" smooth="yes"/>
      <point x="250" y="836"/>
      <point x="301" y="782"/>
      <point x="360.93333333333334" y="781.6666666666666" type="curve" smooth="yes"/>
      <point x="482" y="782"/>
      <point x="540" y="882"/>
      <point x="540.2" y="963.6666666666666" type="curve"/>
      <point x="558.2" y="859.0" type="line"/>
      <point x="537" y="767"/>
      <point x="468" y="692"/>
      <point x="343.93333333333334" y="692.0" type="curve" smooth="yes"/>
      <point x="228" y="692"/>
      <point x="148" y="774"/>
      <point x="147.93333333333334" y="918.0" type="curve" smooth="yes"/>
      <point x="148" y="1063"/>
      <point x="248" y="1142"/>
      <point x="411.93333333333334" y="1141.6666666666667" type="curve" smooth="yes"/>
    </contour>
  </outline>
</glyph>
<glyph name="guillemotleft" format="2">
  <advance width="1031"/>
  <unicode hex="00AB"/>
  <guideline x="0" y="901.0" angle="0" identifier="ZftBQarVKw"/>
  <guideline x="0" y="555.0" angle="0" identifier="MVJpdoVRVd"/>
  <outline>
    <contour>
      <point x="122.66666666666667" y="529.3333333333334" type="line"/>
      <point x="364.3333333333333" y="153.0" type="line"/>
      <point x="481.6" y="153.0" type="line"/>
      <point x="244.66666666666669" y="551.0" type="line"/>
      <point x="481.6" y="949.0" type="line"/>
      <point x="364.3333333333333" y="949.0" type="line"/>
      <point x="122.66666666666667" y="573.6666666666666" type="line"/>
    </contour>
    <contour>
      <point x="562.6666666666666" y="529.3333333333334" type="line"/>
      <point x="804.3333333333334" y="153.0" type="line"/>
      <point x="921.6" y="153.0" type="line"/>
      <point x="684.6666666666666" y="551.0" type="line"/>
      <point x="921.6" y="949.0" type="line"/>
      <point x="804.3333333333334" y="949.0" type="line"/>
      <point x="562.6666666666666" y="573.6666666666666" type="line"/>
    </contour>
  </outline>
</glyph>
<glyph name="logicalnot" format="2">
  <advance width="943"/>
  <unicode hex="00AC"/>
  <outline>
    <contour>
      <point x="806.6666666666666" y="786.3333333333334" type="line"/>
      <point x="58.0" y="786.3333333333334" type="line"/>
      <point x="58.0" y="685.2" type="line"/>
      <point x="702.1333333333333" y="685.2" type="line"/>
      <point x="702.1333333333333" y="376.0" type="line"/>
      <point x="806.6666666666666" y="376.0" type="line"/>
    </contour>
  </outline>
</glyph>
<glyph name="registered" format="2">
  <advance width="1541"/>
  <unicode hex="00AE"/>
  <outline>
    <contour>
      <point x="42.13333333333333" y="687.0" type="curve" smooth="yes"/>
      <point x="42" y="218"/>
      <point x="334" y="-140"/>
      <point x="770.4666666666667" y="-139.66666666666666" type="curve" smooth="yes"/>
      <point x="1206" y="-140"/>
      <point x="1499" y="218"/>
      <point x="1498.8" y="687.0" type="curve" smooth="yes"/>
      <point x="1499" y="1159"/>
      <point x="1206" y="1512"/>
      <point x="770.4666666666667" y="1511.6666666666667" type="curve" smooth="yes"/>
      <point x="334" y="1512"/>
      <point x="42" y="1159"/>
    </contour>
    <contour>
      <point x="146.86666666666667" y="687.0" type="curve" smooth="yes"/>
      <point x="147" y="1106"/>
      <point x="380" y="1410"/>
      <point x="771.4666666666667" y="1409.5333333333333" type="curve" smooth="yes"/>
      <point x="1162" y="1410"/>
      <point x="1394" y="1106"/>
      <point x="1394.3333333333333" y="687.0" type="curve" smooth="yes"/>
      <point x="1394" y="267"/>
      <point x="1162" y="-38"/>
      <point x="771.4666666666667" y="-37.8" type="curve" smooth="yes"/>
      <point x="380" y="-38"/>
      <point x="147" y="267"/>
    </contour>
    <contour>
      <point x="830.7333333333333" y="605.0666666666667" type="line"/>
      <point x="972.4666666666667" y="225.0" type="line"/>
      <point x="1083.2666666666667" y="225.0" type="line"/>
      <point x="1083.2666666666667" y="243.0" type="line"/>
      <point x="974.8666666666667" y="522.6666666666666" type="line" smooth="yes"/>
      <point x="957" y="566"/>
      <point x="933" y="595"/>
      <point x="904.0666666666667" y="626.0666666666667" type="curve"/>
      <point x="1003" y="648"/>
      <point x="1072" y="747"/>
      <point x="1072.4666666666667" y="885.0666666666667" type="curve" smooth="yes"/>
      <point x="1072" y="1055"/>
      <point x="974" y="1158"/>
      <point x="764.4666666666667" y="1158.0" type="curve" smooth="yes"/>
      <point x="510.46666666666664" y="1158.0" type="line"/>
      <point x="510.46666666666664" y="225.0" type="line"/>
      <point x="618.2666666666667" y="225.0" type="line"/>
      <point x="618.2666666666667" y="605.0666666666667" type="line"/>
    </contour>
    <contour>
      <point x="765.4666666666667" y="1056.1333333333334" type="line" smooth="yes"/>
      <point x="864" y="1056"/>
      <point x="960" y="981"/>
      <point x="959.6666666666666" y="875.1333333333333" type="curve" smooth="yes"/>
      <point x="960" y="773"/>
      <point x="923" y="703"/>
      <point x="790.4666666666667" y="702.8" type="curve" smooth="yes"/>
      <point x="618.2666666666667" y="702.8" type="line"/>
      <point x="618.2666666666667" y="1056.1333333333334" type="line"/>
    </contour>
  </outline>
</glyph>
<glyph name="macron" format="2">
  <advance width="1024"/>
  <unicode hex="00AF"/>
  <outline>
    <contour>
      <point x="758.0" y="1380.1333333333334" type="line"/>
      <point x="266.0" y="1380.1333333333334" type="line"/>
      <point x="266.0" y="1278.0" type="line"/>
      <point x="758.0" y="1278.0" type="line"/>
    </contour>
  </outline>
</glyph>
<glyph name="degree" format="2">
  <advance width="765"/>
  <unicode hex="00B0"/>
  <outline>
    <contour>
      <point x="156.33333333333334" y="1233.1333333333334" type="curve" smooth="yes"/>
      <point x="156" y="1091"/>
      <point x="250" y="992"/>
      <point x="385.26666666666665" y="992.2666666666667" type="curve" smooth="yes"/>
      <point x="517" y="992"/>
      <point x="610" y="1091"/>
      <point x="610.2" y="1233.1333333333334" type="curve" smooth="yes"/>
      <point x="610" y="1376"/>
      <point x="517" y="1477"/>
      <point x="385.26666666666665" y="1477.0" type="curve" smooth="yes"/>
      <point x="251" y="1477"/>
      <point x="156" y="1376"/>
    </contour>
    <contour>
      <point x="251.0" y="1233.1333333333334" type="curve" smooth="yes"/>
      <point x="251" y="1319"/>
      <point x="307" y="1379"/>
      <point x="385.26666666666665" y="1379.0666666666666" type="curve" smooth="yes"/>
      <point x="462" y="1379"/>
      <point x="516" y="1319"/>
      <point x="515.5333333333333" y="1233.1333333333334" type="curve" smooth="yes"/>
      <point x="516" y="1151"/>
      <point x="462" y="1090"/>
      <point x="385.26666666666665" y="1090.2" type="curve" smooth="yes"/>
      <point x="307" y="1090"/>
      <point x="251" y="1151"/>
    </contour>
  </outline>
</glyph>
<glyph name="plusminus" format="2">
  <advance width="1024"/>
  <unicode hex="00B1"/>
  <outline>
    <contour>
      <point x="84.73333333333333" y="642.4666666666667" type="line"/>
      <point x="939.2666666666667" y="642.4666666666667" type="line"/>
      <point x="939.2666666666667" y="745.0" type="line"/>
      <point x="84.73333333333333" y="745.0" type="line"/>
    </contour>
    <contour>
      <point x="462.2" y="248.0" type="line"/>
      <point x="564.7333333333333" y="248.0" type="line"/>
      <point x="564.7333333333333" y="1160.0" type="line"/>
      <point x="462.2" y="1160.0" type="line"/>
    </contour>
    <contour>
      <point x="84.73333333333333" y="1.0" type="line"/>
      <point x="939.2666666666667" y="1.0" type="line"/>
      <point x="939.2666666666667" y="107.80000000000001" type="line"/>
      <point x="84.73333333333333" y="107.80000000000001" type="line"/>
    </contour>
  </outline>
</glyph>
<glyph name="twosuperior" format="2">
  <advance width="641"/>
  <unicode hex="00B2"/>
  <outline>
    <contour>
      <point x="92.2" y="697.0" type="line"/>
      <point x="566.8" y="697.0" type="line"/>
      <point x="566.8" y="793.6666666666666" type="line"/>
      <point x="204.73333333333335" y="793.6666666666666" type="line"/>
      <point x="340.4666666666667" y="951.2" type="line" smooth="yes"/>
      <point x="461" y="1080"/>
      <point x="543" y="1177"/>
      <point x="543.1333333333333" y="1268.6" type="curve" smooth="yes"/>
      <point x="543" y="1410"/>
      <point x="465" y="1487"/>
      <point x="311.1333333333333" y="1487.0" type="curve" smooth="yes"/>
      <point x="156" y="1487"/>
      <point x="73" y="1405"/>
      <point x="74.93333333333334" y="1220.0" type="curve"/>
      <point x="172.33333333333334" y="1220.0" type="line"/>
      <point x="170" y="1342"/>
      <point x="216" y="1398"/>
      <point x="313.6666666666667" y="1397.8" type="curve" smooth="yes"/>
      <point x="396" y="1398"/>
      <point x="441" y="1345"/>
      <point x="440.53333333333336" y="1268.0666666666666" type="curve" smooth="yes"/>
      <point x="441" y="1192"/>
      <point x="365" y="1132"/>
      <point x="286.1333333333333" y="1035.9333333333334" type="curve" smooth="yes"/>
      <point x="92.2" y="790.3333333333334" type="line"/>
    </contour>
  </outline>
</glyph>
<glyph name="threesuperior" format="2">
  <advance width="641"/>
  <unicode hex="00B3"/>
  <outline>
    <contour>
      <point x="86.93333333333334" y="922.0" type="line"/>
      <point x="87" y="778"/>
      <point x="170" y="686"/>
      <point x="325.8" y="686.0" type="curve" smooth="yes"/>
      <point x="495" y="686"/>
      <point x="569" y="774"/>
      <point x="569.0" y="917.0" type="curve" smooth="yes"/>
      <point x="569" y="1005"/>
      <point x="510" y="1084"/>
      <point x="417.4" y="1108.2666666666667" type="curve"/>
      <point x="500" y="1132"/>
      <point x="552" y="1188"/>
      <point x="552.1333333333333" y="1280.6" type="curve" smooth="yes"/>
      <point x="552" y="1413"/>
      <point x="479" y="1487"/>
      <point x="329.2" y="1487.0" type="curve" smooth="yes"/>
      <point x="158" y="1487"/>
      <point x="98" y="1398"/>
      <point x="97.93333333333334" y="1254.0" type="curve"/>
      <point x="194.06666666666666" y="1254.0" type="line"/>
      <point x="194" y="1346"/>
      <point x="225" y="1401"/>
      <point x="329.26666666666665" y="1401.2666666666667" type="curve" smooth="yes"/>
      <point x="400" y="1401"/>
      <point x="457" y="1359"/>
      <point x="457.1333333333333" y="1269.6666666666667" type="curve" smooth="yes"/>
      <point x="457" y="1188"/>
      <point x="432" y="1140"/>
      <point x="325.8" y="1139.0666666666666" type="curve" smooth="yes"/>
      <point x="274.5333333333333" y="1139.0666666666666" type="line"/>
      <point x="274.5333333333333" y="1064.4" type="line"/>
      <point x="325.8" y="1064.4" type="line" smooth="yes"/>
      <point x="433" y="1067"/>
      <point x="473" y="1003"/>
      <point x="473.06666666666666" y="917.6666666666666" type="curve" smooth="yes"/>
      <point x="473" y="828"/>
      <point x="417" y="774"/>
      <point x="330.8" y="773.9333333333334" type="curve" smooth="yes"/>
      <point x="221" y="774"/>
      <point x="183" y="821"/>
      <point x="183.06666666666666" y="922.0" type="curve"/>
    </contour>
  </outline>
</glyph>
<glyph name="acute" format="2">
  <advance width="1024"/>
  <unicode hex="00B4"/>
  <outline>
    <contour>
      <point x="356.46666666666664" y="1248.9333333333334" type="line"/>
      <point x="411.8666666666667" y="1204.0" type="line"/>
      <point x="710.1333333333333" y="1479.7333333333333" type="line"/>
      <point x="607.7333333333333" y="1550.2666666666667" type="line"/>
    </contour>
  </outline>
</glyph>
<glyph name="micro" format="2">
  <advance width="1064"/>
  <unicode hex="00B5"/>
  <outline>
    <contour>
      <point x="276.5333333333333" y="1052.0" type="line"/>
      <point x="-7.466666666666669" y="-416.0" type="line"/>
      <point x="96.66666666666667" y="-416.0" type="line"/>
      <point x="198.6" y="110.93333333333332" type="line"/>
      <point x="191" y="31"/>
      <point x="245" y="-20"/>
      <point x="346.06666666666666" y="-20.0" type="curve" smooth="yes"/>
      <point x="428" y="-20"/>
      <point x="532" y="37"/>
      <point x="651.8666666666667" y="175.33333333333331" type="curve"/>
      <point x="657.8666666666667" y="175.33333333333331" type="line"/>
      <point x="629.6" y="0.0" type="line"/>
      <point x="724.2666666666667" y="0.0" type="line"/>
      <point x="928.2666666666667" y="1052.0" type="line"/>
      <point x="815.6" y="1052.0" type="line"/>
      <point x="671.6" y="308.0" type="line"/>
      <point x="558" y="143"/>
      <point x="464" y="82"/>
      <point x="361.5333333333333" y="82.46666666666667" type="curve" smooth="yes"/>
      <point x="242" y="82"/>
      <point x="212" y="183"/>
      <point x="248.66666666666669" y="371.0" type="curve" smooth="yes"/>
      <point x="380.6666666666667" y="1052.0" type="line"/>
    </contour>
  </outline>
</glyph>
<glyph name="paragraph" format="2">
  <advance width="961"/>
  <unicode hex="00B6"/>
  <guideline x="0" y="901.0" angle="0" identifier="27539Lsr1A"/>
  <guideline x="0" y="555.0" angle="0" identifier="e34wUdCmXR"/>
  <outline>
    <contour>
      <point x="480.0" y="-146.0" type="line"/>
      <point x="480.0" y="1456.0" type="line"/>
      <point x="303.4666666666667" y="1456.0" type="line" smooth="yes"/>
      <point x="190" y="1456"/>
      <point x="102" y="1327"/>
      <point x="102.06666666666666" y="1140.2" type="curve" smooth="yes"/>
      <point x="102" y="954"/>
      <point x="190" y="824"/>
      <point x="303.4666666666667" y="824.4" type="curve" smooth="yes"/>
      <point x="378.0" y="824.4" type="line"/>
      <point x="378.0" y="-146.0" type="line"/>
    </contour>
    <contour>
      <point x="695.3333333333334" y="1459.0" type="line"/>
      <point x="695.3333333333334" y="-146.0" type="line"/>
      <point x="797.3333333333334" y="-146.0" type="line"/>
      <point x="797.3333333333334" y="1459.0" type="line"/>
    </contour>
  </outline>
</glyph>
<glyph name="periodcentered" format="2">
  <advance width="475"/>
  <unicode hex="00B7"/>
  <outline>
    <contour>
      <point x="139.33333333333334" y="749.0" type="curve" smooth="yes"/>
      <point x="139" y="696"/>
      <point x="174" y="654"/>
      <point x="237.66666666666669" y="654.2" type="curve" smooth="yes"/>
      <point x="301" y="654"/>
      <point x="335" y="696"/>
      <point x="335.26666666666665" y="749.0" type="curve" smooth="yes"/>
      <point x="335" y="802"/>
      <point x="301" y="844"/>
      <point x="237.66666666666669" y="843.8" type="curve" smooth="yes"/>
      <point x="174" y="844"/>
      <point x="139" y="802"/>
    </contour>
  </outline>
</glyph>
<glyph name="cedilla" format="2">
  <advance width="1024"/>
  <unicode hex="00B8"/>
  <outline>
    <contour>
      <point x="440.0" y="42.0" type="line"/>
      <point x="399.0" y="-135.0" type="line"/>
      <point x="512" y="-144"/>
      <point x="549" y="-162"/>
      <point x="549.3333333333334" y="-228.0" type="curve" smooth="yes"/>
      <point x="549" y="-303"/>
      <point x="475" y="-343"/>
      <point x="342.46666666666664" y="-345.6" type="curve"/>
      <point x="347.26666666666665" y="-421.06666666666666" type="line"/>
      <point x="557" y="-421"/>
      <point x="660" y="-341"/>
      <point x="660.2" y="-226.0" type="curve" smooth="yes"/>
      <point x="660" y="-137"/>
      <point x="592" y="-87"/>
      <point x="501.4" y="-72.06666666666666" type="curve"/>
      <point x="535.2666666666667" y="42.0" type="line"/>
    </contour>
  </outline>
</glyph>
<glyph name="onesuperior" format="2">
  <advance width="548"/>
  <unicode hex="00B9"/>
  <outline>
    <contour>
      <point x="91.46666666666667" y="1262.3333333333333" type="line"/>
      <point x="259.26666666666665" y="1334.5333333333333" type="line"/>
      <point x="259.26666666666665" y="697.0" type="line"/>
      <point x="364.8" y="697.0" type="line"/>
      <point x="364.8" y="1486.0" type="line"/>
      <point x="334.73333333333335" y="1486.0" type="line"/>
      <point x="91.46666666666667" y="1370.0" type="line"/>
    </contour>
  </outline>
</glyph>
<glyph name="ordmasculine" format="2">
  <advance width="859"/>
  <unicode hex="00BA"/>
  <guideline x="0" y="1975.0" angle="0" identifier="Jnt0R9CyOf"/>
  <outline>
    <contour>
      <point x="141.8" y="1043.0" type="line"/>
      <point x="142" y="814"/>
      <point x="230" y="691"/>
      <point x="431.8" y="691.0" type="curve" smooth="yes"/>
      <point x="630" y="691"/>
      <point x="718" y="814"/>
      <point x="717.8" y="1043.0" type="curve"/>
      <point x="717.8" y="1124.0" type="line"/>
      <point x="718" y="1353"/>
      <point x="630" y="1477"/>
      <point x="429.8" y="1477.0" type="curve" smooth="yes"/>
      <point x="230" y="1477"/>
      <point x="142" y="1353"/>
      <point x="141.8" y="1124.0" type="curve"/>
    </contour>
    <contour>
      <point x="249.06666666666666" y="1124.0" type="line"/>
      <point x="249" y="1301"/>
      <point x="317" y="1381"/>
      <point x="429.8" y="1381.4666666666667" type="curve" smooth="yes"/>
      <point x="543" y="1381"/>
      <point x="611" y="1301"/>
      <point x="610.8" y="1124.0" type="curve"/>
      <point x="610.8" y="1043.0" type="line"/>
      <point x="611" y="867"/>
      <point x="543" y="784"/>
      <point x="431.8" y="783.8" type="curve" smooth="yes"/>
      <point x="319" y="784"/>
      <point x="249" y="867"/>
      <point x="249.06666666666666" y="1043.0" type="curve"/>
    </contour>
  </outline>
</glyph>
<glyph name="guillemotright" format="2">
  <advance width="1031"/>
  <unicode hex="00BB"/>
  <guideline x="0" y="98.0" angle="0" identifier="MTEldNnfdj"/>
  <guideline x="0" y="443.0" angle="0" identifier="G9bQni2n1K"/>
  <outline>
    <contour>
      <point x="109.6" y="153.0" type="line"/>
      <point x="226.86666666666667" y="153.0" type="line"/>
      <point x="468.5333333333333" y="528.2666666666667" type="line"/>
      <point x="468.5333333333333" y="572.6" type="line"/>
      <point x="226.86666666666667" y="949.0" type="line"/>
      <point x="109.6" y="949.0" type="line"/>
      <point x="346.5333333333333" y="551.0" type="line"/>
    </contour>
    <contour>
      <point x="549.6" y="153.0" type="line"/>
      <point x="666.8666666666667" y="153.0" type="line"/>
      <point x="908.5333333333333" y="528.2666666666667" type="line"/>
      <point x="908.5333333333333" y="572.6" type="line"/>
      <point x="666.8666666666667" y="949.0" type="line"/>
      <point x="549.6" y="949.0" type="line"/>
      <point x="786.5333333333333" y="551.0" type="line"/>
    </contour>
  </outline>
</glyph>
<glyph name="questiondown" format="2">
  <advance width="951"/>
  <unicode hex="00BF"/>
  <guideline x="0" y="-181.0" angle="0" identifier="apukwP5ffL"/>
  <guideline x="0" y="921.0" angle="0" identifier="5ZPZZL8Rim"/>
  <outline>
    <contour>
      <point x="589.7333333333333" y="1075.1333333333334" type="curve" smooth="yes"/>
      <point x="590" y="1128"/>
      <point x="561" y="1170"/>
      <point x="508.8666666666667" y="1170.0" type="curve" smooth="yes"/>
      <point x="457" y="1170"/>
      <point x="429" y="1128"/>
      <point x="429.06666666666666" y="1075.1333333333334" type="curve" smooth="yes"/>
      <point x="429" y="1023"/>
      <point x="458" y="980"/>
      <point x="509.93333333333334" y="980.2666666666667" type="curve" smooth="yes"/>
      <point x="560" y="980"/>
      <point x="590" y="1023"/>
    </contour>
    <contour>
      <point x="767.1333333333333" y="53.0" type="line"/>
      <point x="661.8" y="53.0" type="line"/>
      <point x="661.8" y="33.0" type="line" smooth="yes"/>
      <point x="662" y="-139"/>
      <point x="598" y="-227"/>
      <point x="478.73333333333335" y="-227.06666666666666" type="curve" smooth="yes"/>
      <point x="359" y="-227"/>
      <point x="302" y="-133"/>
      <point x="301.6" y="20.933333333333337" type="curve" smooth="yes"/>
      <point x="302" y="169"/>
      <point x="344" y="249"/>
      <point x="433.33333333333337" y="362.53333333333336" type="curve" smooth="yes"/>
      <point x="536" y="494"/>
      <point x="568" y="573"/>
      <point x="567.7333333333333" y="728.0" type="curve" smooth="yes"/>
      <point x="567.7333333333333" y="738.0" type="line"/>
      <point x="461.4" y="738.0" type="line"/>
      <point x="461.4" y="728.0" type="line" smooth="yes"/>
      <point x="461" y="630"/>
      <point x="448" y="539"/>
      <point x="356.4" y="425.4" type="curve" smooth="yes"/>
      <point x="264" y="314"/>
      <point x="195" y="208"/>
      <point x="195.26666666666665" y="20.933333333333337" type="curve" smooth="yes"/>
      <point x="195" y="-193"/>
      <point x="300" y="-328"/>
      <point x="478.73333333333335" y="-328.0" type="curve" smooth="yes"/>
      <point x="658" y="-328"/>
      <point x="767" y="-196"/>
      <point x="767.1333333333333" y="33.0" type="curve" smooth="yes"/>
    </contour>
  </outline>
</glyph>
<glyph name="AE" format="2">
  <advance width="1565"/>
  <unicode hex="00C6"/>
  <outline>
    <contour>
      <point x="269.26666666666665" y="413.5333333333333" type="line"/>
      <point x="328.93333333333334" y="495.73333333333335" type="line"/>
      <point x="863.0666666666666" y="495.73333333333335" type="line"/>
      <point x="863.0666666666666" y="413.5333333333333" type="line"/>
    </contour>
    <contour>
      <point x="12.0" y="0.0" type="line"/>
      <point x="97.13333333333334" y="0.0" type="line"/>
      <point x="813.8" y="1353.2" type="line"/>
      <point x="813.8" y="0.0" type="line"/>
      <point x="1497.7333333333333" y="0.0" type="line"/>
      <point x="1497.7333333333333" y="99.13333333333333" type="line"/>
      <point x="922.4666666666667" y="99.13333333333333" type="line"/>
      <point x="922.4666666666667" y="701.2666666666667" type="line"/>
      <point x="1392.8" y="701.2666666666667" type="line"/>
      <point x="1392.8" y="800.7333333333333" type="line"/>
      <point x="922.4666666666667" y="800.7333333333333" type="line"/>
      <point x="922.4666666666667" y="1356.8666666666666" type="line"/>
      <point x="1487.7333333333333" y="1356.8666666666666" type="line"/>
      <point x="1487.7333333333333" y="1456.0" type="line"/>
      <point x="766.0666666666666" y="1456.0" type="line"/>
    </contour>
  </outline>
</glyph>
<glyph name="multiply" format="2">
  <advance width="901"/>
  <unicode hex="00D7"/>
  <outline>
    <contour>
      <point x="198.86666666666667" y="286.8666666666667" type="line"/>
      <point x="776.6666666666667" y="975.6" type="line"/>
      <point x="703.1333333333333" y="1050.4666666666667" type="line"/>
      <point x="125.33333333333333" y="361.46666666666664" type="line"/>
    </contour>
    <contour>
      <point x="712.0" y="275.8666666666667" type="line"/>
      <point x="788.4666666666667" y="354.1333333333333" type="line"/>
      <point x="192.33333333333334" y="1061.4666666666667" type="line"/>
      <point x="115.13333333333333" y="983.6666666666666" type="line"/>
    </contour>
  </outline>
</glyph>
<glyph name="Thorn" format="2">
  <advance width="980"/>
  <unicode hex="00DE"/>
  <guideline x="0" y="901.0" angle="0" identifier="i9jYwjBDP4"/>
  <guideline x="0" y="555.0" angle="0" identifier="T8KKW8oxop"/>
  <outline>
    <contour>
      <point x="170.0" y="1456.0" type="line"/>
      <point x="170.0" y="0.0" type="line"/>
      <point x="284.26666666666665" y="0.0" type="line"/>
      <point x="284.26666666666665" y="310.8" type="line"/>
      <point x="523.1333333333333" y="310.8" type="line" smooth="yes"/>
      <point x="778" y="312"/>
      <point x="902" y="457"/>
      <point x="902.2666666666667" y="743.4" type="curve" smooth="yes"/>
      <point x="902" y="1029"/>
      <point x="779" y="1167"/>
      <point x="523.1333333333333" y="1167.3333333333333" type="curve" smooth="yes"/>
      <point x="283.2" y="1167.3333333333333" type="line"/>
      <point x="283.2" y="1456.0" type="line"/>
    </contour>
    <contour>
      <point x="523.1333333333333" y="1062.6" type="line" smooth="yes"/>
      <point x="728" y="1061"/>
      <point x="787" y="928"/>
      <point x="787.2666666666667" y="745.0" type="curve" smooth="yes"/>
      <point x="787" y="563"/>
      <point x="728" y="417"/>
      <point x="523.1333333333333" y="416.6" type="curve" smooth="yes"/>
      <point x="284.26666666666665" y="416.6" type="line"/>
      <point x="284.26666666666665" y="1062.6" type="line"/>
    </contour>
  </outline>
</glyph>
<glyph name="germandbls" format="2">
  <advance width="1177"/>
  <unicode hex="00DF"/>
  <outline>
    <contour>
      <point x="312.0" y="1092.0" type="line" name="hr00"/>
      <point x="312" y="1315"/>
      <point x="406" y="1434"/>
      <point x="565.6666666666666" y="1433.6" type="curve" smooth="yes"/>
      <point x="704" y="1434"/>
      <point x="765" y="1351"/>
      <point x="764.6666666666666" y="1208.4" type="curve" smooth="yes"/>
      <point x="765" y="1146"/>
      <point x="746" y="1083"/>
      <point x="696.6666666666666" y="1015.0" type="curve" smooth="yes"/>
      <point x="654" y="956"/>
      <point x="600" y="893"/>
      <point x="599.6666666666666" y="798.4666666666667" type="curve" smooth="yes"/>
      <point x="600" y="679"/>
      <point x="720" y="594"/>
      <point x="817.9333333333333" y="519.3333333333334" type="curve" smooth="yes"/>
      <point x="923" y="439"/>
      <point x="957" y="373"/>
      <point x="957.0" y="302.0" type="curve" smooth="yes"/>
      <point x="957" y="161"/>
      <point x="884" y="80"/>
      <point x="755.0" y="80.4" type="curve" smooth="yes"/>
      <point x="643" y="80"/>
      <point x="576" y="160"/>
      <point x="575.6666666666666" y="289.1333333333333" type="curve" smooth="yes"/>
      <point x="575.6666666666666" y="304.0" type="line"/>
      <point x="464.0" y="304.0" type="line"/>
      <point x="464.0" y="283.8666666666667" type="line" smooth="yes"/>
      <point x="464" y="96"/>
      <point x="560" y="-20"/>
      <point x="753.0" y="-20.0" type="curve" smooth="yes"/>
      <point x="975" y="-20"/>
      <point x="1067" y="84"/>
      <point x="1067.4666666666667" y="282.0" type="curve" smooth="yes"/>
      <point x="1067" y="429"/>
      <point x="1020" y="506"/>
      <point x="897.9333333333334" y="597.7333333333333" type="curve" smooth="yes"/>
      <point x="788" y="680"/>
      <point x="705" y="755"/>
      <point x="705.0666666666667" y="816.0666666666667" type="curve" smooth="yes"/>
      <point x="705" y="859"/>
      <point x="755" y="925"/>
      <point x="796.6" y="975.9333333333333" type="curve" smooth="yes"/>
      <point x="852" y="1044"/>
      <point x="875" y="1125"/>
      <point x="875.1333333333333" y="1215.0" type="curve" smooth="yes"/>
      <point x="875" y="1419"/>
      <point x="777" y="1534"/>
      <point x="569.6666666666666" y="1534.0" type="curve" smooth="yes"/>
      <point x="332" y="1534"/>
      <point x="203" y="1374"/>
      <point x="203.0" y="1092.0" type="curve" smooth="yes"/>
      <point x="203.0" y="0.0" type="line"/>
      <point x="312.0" y="0.0" type="line"/>
    </contour>
  </outline>
</glyph>
<glyph name="ae" format="2">
  <advance width="1344"/>
  <unicode hex="00E6"/>
  <outline>
    <contour>
      <point x="195.60000000000002" y="287.4" type="curve" smooth="yes"/>
      <point x="196" y="456"/>
      <point x="280" y="523"/>
      <point x="434.33333333333337" y="523.2666666666667" type="curve" smooth="yes"/>
      <point x="613.4" y="523.2666666666667" type="line"/>
      <point x="613.4" y="325.0" type="line" smooth="yes"/>
      <point x="613" y="172"/>
      <point x="491" y="75"/>
      <point x="369.93333333333334" y="74.6" type="curve" smooth="yes"/>
      <point x="255" y="75"/>
      <point x="196" y="138"/>
    </contour>
    <contour>
      <point x="90.0" y="301.2" type="curve" smooth="yes"/>
      <point x="90" y="69"/>
      <point x="196" y="-20"/>
      <point x="353.1333333333333" y="-20.0" type="curve" smooth="yes"/>
      <point x="468" y="-20"/>
      <point x="587" y="41"/>
      <point x="678.7333333333333" y="172.93333333333334" type="curve"/>
      <point x="744" y="52"/>
      <point x="837" y="-30"/>
      <point x="994.8666666666667" y="-30.0" type="curve" smooth="yes"/>
      <point x="1135" y="-30"/>
      <point x="1236" y="42"/>
      <point x="1296.6" y="159.6" type="curve"/>
      <point x="1208.1333333333334" y="208.2" type="line"/>
      <point x="1155" y="125"/>
      <point x="1097" y="67"/>
      <point x="984.2" y="67.13333333333334" type="curve" smooth="yes"/>
      <point x="799" y="67"/>
      <point x="725" y="210"/>
      <point x="724.8" y="478.0" type="curve" smooth="yes"/>
      <point x="724.8" y="574.0" type="line" smooth="yes"/>
      <point x="725" y="854"/>
      <point x="808" y="985"/>
      <point x="970.8" y="984.8666666666667" type="curve" smooth="yes"/>
      <point x="1119" y="985"/>
      <point x="1183" y="851"/>
      <point x="1182.3333333333335" y="616.9333333333333" type="curve" smooth="yes"/>
      <point x="1183.1333333333332" y="604.9333333333334" type="line"/>
      <point x="669.4666666666667" y="604.9333333333334" type="line"/>
      <point x="669.4666666666667" y="511.06666666666666" type="line"/>
      <point x="1290.0" y="511.06666666666666" type="line"/>
      <point x="1290.0" y="560.0" type="line" smooth="yes"/>
      <point x="1290" y="922"/>
      <point x="1175" y="1082"/>
      <point x="968.4000000000001" y="1082.0" type="curve" smooth="yes"/>
      <point x="892" y="1082"/>
      <point x="793" y="1060"/>
      <point x="688.4666666666667" y="957.9333333333333" type="curve"/>
      <point x="611" y="1073"/>
      <point x="520" y="1082"/>
      <point x="439.0" y="1082.0" type="curve" smooth="yes"/>
      <point x="253" y="1082"/>
      <point x="148" y="955"/>
      <point x="147.86666666666667" y="770.0" type="curve" smooth="yes"/>
      <point x="147.86666666666667" y="765.0" type="line"/>
      <point x="251.0" y="765.0" type="line"/>
      <point x="251.0" y="770.0" type="line" smooth="yes"/>
      <point x="251" y="886"/>
      <point x="303" y="987"/>
      <point x="434.33333333333337" y="987.4" type="curve" smooth="yes"/>
      <point x="566" y="987"/>
      <point x="613" y="881"/>
      <point x="613.4" y="720.0" type="curve" smooth="yes"/>
      <point x="613.4" y="610.6666666666666" type="line"/>
      <point x="416.8" y="610.6666666666666" type="line" smooth="yes"/>
      <point x="210" y="611"/>
      <point x="90" y="501"/>
    </contour>
  </outline>
</glyph>
<glyph name="eth" format="2">
  <advance width="900"/>
  <unicode hex="00F0"/>
  <outline>
    <contour>
      <point x="187.86666666666667" y="1489.6666666666667" type="line"/>
      <point x="574.3226666666667" y="1387.0226666666665"/>
      <point x="705.0" y="1103.8213333333333"/>
      <point x="705.0" y="635.0" type="curve" smooth="yes"/>
      <point x="705.0" y="535.0" type="line" smooth="yes"/>
      <point x="705.0" y="271.1093333333333"/>
      <point x="632.6013333333334" y="65.73333333333333"/>
      <point x="458.1333333333333" y="65.73333333333333" type="curve" smooth="yes"/>
      <point x="271.1586666666667" y="65.73333333333333"/>
      <point x="194.53333333333336" y="250.11599999999996"/>
      <point x="194.53333333333336" y="468.0" type="curve" smooth="yes"/>
      <point x="194.53333333333336" y="709.3786666666667"/>
      <point x="268.94933333333336" y="880.8666666666667"/>
      <point x="448.8666666666667" y="880.8666666666667" type="curve" smooth="yes"/>
      <point x="566.6080000000001" y="880.8666666666667"/>
      <point x="705.2666666666667" y="786.6813333333333"/>
      <point x="705.2666666666667" y="614.0" type="curve"/>
      <point x="772.8" y="613.0" type="line"/>
      <point x="772.8" y="793.9"/>
      <point x="655.5266666666666" y="978.0"/>
      <point x="429.06666666666666" y="978.0" type="curve" smooth="yes"/>
      <point x="198.94399999999996" y="978.0"/>
      <point x="85.0" y="769.3213333333333"/>
      <point x="85.0" y="468.0" type="curve" smooth="yes"/>
      <point x="85.0" y="186.15333333333336"/>
      <point x="206.14399999999998" y="-20.0"/>
      <point x="454.1333333333333" y="-20.0" type="curve" smooth="yes"/>
      <point x="695.3333333333334" y="-20.0"/>
      <point x="815.2666666666667" y="209.29066666666665"/>
      <point x="815.2666666666667" y="535.0" type="curve"/>
      <point x="815.2666666666667" y="633.0" type="line"/>
      <point x="815.2666666666667" y="1148.2746666666667"/>
      <point x="634.7986666666668" y="1476.3906666666667"/>
      <point x="219.66666666666669" y="1581.0" type="curve"/>
    </contour>
    <contour>
      <point x="715.2" y="1427.0" type="line"/>
      <point x="660.0666666666666" y="1507.8666666666666" type="line"/>
      <point x="272.26666666666665" y="1171.4666666666667" type="line"/>
      <point x="328.1333333333333" y="1090.3333333333333" type="line"/>
    </contour>
  </outline>
</glyph>
<glyph name="divide" format="2">
  <advance width="917"/>
  <unicode hex="00F7"/>
  <outline>
    <contour>
      <point x="367.1333333333333" y="1032.7333333333333" type="curve" smooth="yes"/>
      <point x="367.1333333333333" y="983.064"/>
      <point x="398.17066666666665" y="945.0"/>
      <point x="457.6666666666667" y="945.0" type="curve" smooth="yes"/>
      <point x="517.788" y="945.0"/>
      <point x="549.2" y="983.064"/>
      <point x="549.2" y="1032.7333333333333" type="curve" smooth="yes"/>
      <point x="549.2" y="1083.1173333333331"/>
      <point x="517.788" y="1122.0"/>
      <point x="457.6666666666667" y="1122.0" type="curve" smooth="yes"/>
      <point x="398.17066666666665" y="1122.0"/>
      <point x="367.1333333333333" y="1083.1173333333331"/>
    </contour>
    <contour>
      <point x="367.1333333333333" y="321.73333333333335" type="curve" smooth="yes"/>
      <point x="367.1333333333333" y="272.064"/>
      <point x="398.17066666666665" y="233.73333333333335"/>
      <point x="457.6666666666667" y="233.73333333333335" type="curve" smooth="yes"/>
      <point x="517.788" y="233.73333333333335"/>
      <point x="549.2" y="272.064"/>
      <point x="549.2" y="321.73333333333335" type="curve" smooth="yes"/>
      <point x="549.2" y="371.76"/>
      <point x="517.788" y="411.0"/>
      <point x="457.6666666666667" y="411.0" type="curve" smooth="yes"/>
      <point x="398.17066666666665" y="411.0"/>
      <point x="367.1333333333333" y="371.76"/>
    </contour>
    <contour>
      <point x="57.0" y="624.6666666666666" type="line"/>
      <point x="860.3333333333334" y="624.6666666666666" type="line"/>
      <point x="860.3333333333334" y="735.7333333333333" type="line"/>
      <point x="57.0" y="735.7333333333333" type="line"/>
    </contour>
  </outline>
</glyph>
<glyph name="thorn" format="2">
  <advance width="923"/>
  <unicode hex="00FE"/>
  <outline>
    <contour>
      <point x="153.86666666666667" y="-416.0" type="line"/>
      <point x="260.26666666666665" y="-416.0" type="line"/>
      <point x="253.86666666666667" y="109.8" type="line"/>
      <point x="250.66666666666669" y="109.8" type="line"/>
      <point x="311.23466666666667" y="24.933333333333337"/>
      <point x="398.036" y="-20.0"/>
      <point x="515.8666666666667" y="-20.0" type="curve" smooth="yes"/>
      <point x="719.0106666666667" y="-20.0"/>
      <point x="838.0666666666667" y="201.79999999999995"/>
      <point x="838.0666666666667" y="510.0" type="curve" smooth="yes"/>
      <point x="838.0666666666667" y="542.0" type="line" smooth="yes"/>
      <point x="838.0666666666667" y="850.2"/>
      <point x="719.0106666666667" y="1072.0"/>
      <point x="515.8666666666667" y="1072.0" type="curve" smooth="yes"/>
      <point x="398.036" y="1072.0"/>
      <point x="292.36133333333333" y="997.8693333333334"/>
      <point x="246.53333333333336" y="916.9333333333333" type="curve"/>
      <point x="246.53333333333336" y="1536.0" type="line"/>
      <point x="153.86666666666667" y="1536.0" type="line"/>
    </contour>
    <contour>
      <point x="259.4666666666667" y="227.4" type="curve"/>
      <point x="259.4666666666667" y="822.4666666666667" type="line"/>
      <point x="292.52" y="896.3453333333333"/>
      <point x="375.99733333333336" y="974.8666666666667"/>
      <point x="492.6666666666667" y="974.8666666666667" type="curve" smooth="yes"/>
      <point x="653.1093333333333" y="974.8666666666667"/>
      <point x="729.9333333333334" y="819.756"/>
      <point x="729.9333333333334" y="574.0" type="curve" smooth="yes"/>
      <point x="729.9333333333334" y="478.0" type="line" smooth="yes"/>
      <point x="729.9333333333334" y="232.24400000000003"/>
      <point x="650.6346666666667" y="77.13333333333334"/>
      <point x="487.33333333333337" y="77.13333333333334" type="curve" smooth="yes"/>
      <point x="360.65866666666665" y="77.13333333333334"/>
      <point x="288.23199999999997" y="164.95600000000002"/>
    </contour>
  </outline>
</glyph>
<glyph name="kgreenlandic" format="2">
  <advance width="839"/>
  <unicode hex="0138"/>
  <outline>
    <contour>
      <point x="258.4" y="1028.0" type="line"/>
      <point x="149.86666666666667" y="1028.0" type="line"/>
      <point x="149.86666666666667" y="0.0" type="line"/>
      <point x="258.4" y="0.0" type="line"/>
    </contour>
    <contour>
      <point x="778.2666666666667" y="1028.0" type="line"/>
      <point x="652.9333333333334" y="1028.0" type="line"/>
      <point x="375.53333333333336" y="591.8666666666667" type="line"/>
      <point x="214.06666666666666" y="591.8666666666667" type="line"/>
      <point x="214.06666666666666" y="498.5333333333333" type="line"/>
      <point x="418.2" y="498.5333333333333" type="line"/>
    </contour>
    <contour>
      <point x="715.0666666666666" y="0.0" type="line"/>
      <point x="854.6666666666667" y="0.0" type="line"/>
      <point x="436.6" y="599.8" type="line"/>
      <point x="372.4" y="510.5333333333333" type="line"/>
    </contour>
  </outline>
</glyph>
<glyph name="OE" format="2">
  <advance width="1576"/>
  <unicode hex="0152"/>
  <outline>
    <contour>
      <point x="593.6" y="1483.6" type="curve" smooth="yes"/>
      <point x="268.51599999999996" y="1483.6"/>
      <point x="115.0" y="1220.9333333333334"/>
      <point x="115.0" y="769.8" type="curve" smooth="yes"/>
      <point x="115.0" y="685.6666666666666" type="line" smooth="yes"/>
      <point x="115.0" y="231.31733333333335"/>
      <point x="273.30533333333335" y="-27.6"/>
      <point x="582.6666666666666" y="-27.6" type="curve" smooth="yes"/>
      <point x="687.4546666666668" y="-27.6"/>
      <point x="778.0813333333333" y="-14.293333333333333"/>
      <point x="860.0" y="0.0" type="curve"/>
      <point x="1508.6" y="0.0" type="line"/>
      <point x="1508.6" y="99.93333333333334" type="line"/>
      <point x="939.7333333333333" y="99.93333333333334" type="line"/>
      <point x="939.7333333333333" y="700.4666666666667" type="line"/>
      <point x="1403.6666666666667" y="700.4666666666667" type="line"/>
      <point x="1403.6666666666667" y="800.7333333333333" type="line"/>
      <point x="939.7333333333333" y="800.7333333333333" type="line"/>
      <point x="939.7333333333333" y="1356.8666666666666" type="line"/>
      <point x="1498.6" y="1356.8666666666666" type="line"/>
      <point x="1498.6" y="1456.0" type="line"/>
      <point x="882.0" y="1456.0" type="line"/>
      <point x="798.116" y="1468.6853333333333"/>
      <point x="686.9533333333333" y="1483.6"/>
    </contour>
    <contour>
      <point x="223.06666666666666" y="685.6666666666666" type="curve" smooth="yes"/>
      <point x="223.06666666666666" y="770.3333333333334" type="line" smooth="yes"/>
      <point x="223.06666666666666" y="1155.628"/>
      <point x="334.88533333333334" y="1380.0"/>
      <point x="594.6666666666666" y="1380.0" type="curve" smooth="yes"/>
      <point x="665.4186666666667" y="1380.0"/>
      <point x="739.5853333333333" y="1372.9426666666666"/>
      <point x="831.8666666666667" y="1357.6666666666667" type="curve"/>
      <point x="831.8666666666667" y="99.0" type="line"/>
      <point x="735.744" y="84.08133333333335"/>
      <point x="679.8933333333333" y="75.2"/>
      <point x="594.1333333333333" y="75.2" type="curve" smooth="yes"/>
      <point x="336.13866666666667" y="75.2"/>
      <point x="223.06666666666666" y="297.5133333333333"/>
    </contour>
  </outline>
</glyph>
<glyph name="oe" format="2">
  <advance width="1438"/>
  <unicode hex="0153"/>
  <outline>
    <contour>
      <point x="192.4" y="574.0" type="line" smooth="yes"/>
      <point x="192.4" y="823.776"/>
      <point x="271.0413333333332" y="984.8666666666667"/>
      <point x="450.33333333333337" y="984.8666666666667" type="curve" smooth="yes"/>
      <point x="629.6253333333333" y="984.8666666666667"/>
      <point x="709.3333333333334" y="829.8506666666666"/>
      <point x="709.3333333333334" y="574.0" type="curve" smooth="yes"/>
      <point x="709.3333333333334" y="478.0" type="line" smooth="yes"/>
      <point x="709.3333333333334" y="229.29599999999996"/>
      <point x="621.0493333333334" y="67.13333333333334"/>
      <point x="450.33333333333337" y="67.13333333333334" type="curve" smooth="yes"/>
      <point x="279.6173333333333" y="67.13333333333334"/>
      <point x="192.4" y="228.22400000000002"/>
      <point x="192.4" y="478.0" type="curve" smooth="yes"/>
    </contour>
    <contour>
      <point x="764.5333333333333" y="867.8666666666667" type="curve"/>
      <point x="659.656" y="1053.7693333333334"/>
      <point x="544.1746666666666" y="1082.8"/>
      <point x="459.93333333333334" y="1082.8" type="curve" smooth="yes"/>
      <point x="224.89733333333328" y="1082.8"/>
      <point x="85.0" y="889.5066666666667"/>
      <point x="85.0" y="542.0" type="curve" smooth="yes"/>
      <point x="85.0" y="510.0" type="line" smooth="yes"/>
      <point x="85.0" y="162.49333333333328"/>
      <point x="218.92933333333332" y="-30.0"/>
      <point x="474.33333333333337" y="-30.0" type="curve" smooth="yes"/>
      <point x="548.9266666666666" y="-30.0"/>
      <point x="667.596" y="17.598666666666645"/>
      <point x="762.2" y="183.13333333333333" type="curve"/>
      <point x="854.392" y="18.670666666666676"/>
      <point x="971.5613333333334" y="-30.0"/>
      <point x="1068.6666666666665" y="-30.0" type="curve" smooth="yes"/>
      <point x="1231.7893333333336" y="-30.0"/>
      <point x="1326.9893333333332" y="41.769333333333336"/>
      <point x="1387.2" y="159.6" type="curve"/>
      <point x="1298.7333333333333" y="208.2" type="line"/>
      <point x="1245.4906666666666" y="125.29866666666668"/>
      <point x="1195.1813333333334" y="67.13333333333334"/>
      <point x="1082.8" y="67.13333333333334" type="curve" smooth="yes"/>
      <point x="897.6120000000001" y="67.13333333333334"/>
      <point x="815.4000000000001" y="211.16133333333335"/>
      <point x="815.4000000000001" y="478.0" type="curve" smooth="yes"/>
      <point x="815.4000000000001" y="574.0" type="line" smooth="yes"/>
      <point x="815.4000000000001" y="853.256"/>
      <point x="901.2693333333334" y="984.8666666666667"/>
      <point x="1052.6" y="984.8666666666667" type="curve" smooth="yes"/>
      <point x="1212.6853333333333" y="984.8666666666667"/>
      <point x="1274.0053333333333" y="851.4333333333333"/>
      <point x="1272.9333333333334" y="616.9333333333333" type="curve" smooth="yes"/>
      <point x="1273.7333333333333" y="604.9333333333334" type="line"/>
      <point x="760.0666666666666" y="604.9333333333334" type="line"/>
      <point x="760.0666666666666" y="511.06666666666666" type="line"/>
      <point x="1380.6" y="511.06666666666666" type="line"/>
      <point x="1380.6" y="560.0" type="line" smooth="yes"/>
      <point x="1380.6" y="921.9786666666666"/>
      <point x="1273.6013333333335" y="1082.0"/>
      <point x="1036.6" y="1082.0" type="curve" smooth="yes"/>
      <point x="957.808" y="1082.0"/>
      <point x="865.0333333333333" y="1048.4093333333333"/>
    </contour>
  </outline>
</glyph>
<glyph name="Schwa" format="2">
  <advance width="1297"/>
  <unicode hex="018F"/>
  <outline>
    <contour>
      <point x="94.06666666666666" y="1182.1333333333334" type="curve"/>
      <point x="157.0" y="1132.6" type="line"/>
      <point x="271.3466666666667" y="1330.8306666666667"/>
      <point x="425.74" y="1419.0"/>
      <point x="580.7333333333333" y="1419.0" type="curve" smooth="yes"/>
      <point x="905.9960000000001" y="1419.0"/>
      <point x="1065.036" y="1183.168"/>
      <point x="1066.7333333333333" y="756.3333333333334" type="curve" smooth="yes"/>
      <point x="1069.4133333333334" y="351.1173333333333"/>
      <point x="928.636" y="65.46666666666667"/>
      <point x="626.6" y="65.46666666666667" type="curve" smooth="yes"/>
      <point x="391.6533333333333" y="65.46666666666667"/>
      <point x="252.53333333333333" y="225.91733333333332"/>
      <point x="252.53333333333333" y="497.1333333333333" type="curve" smooth="yes"/>
      <point x="252.53333333333333" y="574.3333333333334" type="line"/>
      <point x="590.3333333333334" y="584.7333333333333" type="line"/>
      <point x="1078.6666666666667" y="576.7333333333333" type="line"/>
      <point x="1078.6666666666667" y="671.3333333333334" type="line"/>
      <point x="135.73333333333335" y="671.3333333333334" type="line"/>
      <point x="135.73333333333335" y="578.0" type="line" smooth="yes"/>
      <point x="135.73333333333335" y="185.7373333333333"/>
      <point x="305.32933333333335" y="-30.0"/>
      <point x="618.8" y="-30.0" type="curve" smooth="yes"/>
      <point x="989.712" y="-30.0"/>
      <point x="1180.7333333333333" y="315.2653333333333"/>
      <point x="1180.7333333333333" y="789.0" type="curve" smooth="yes"/>
      <point x="1180.7333333333333" y="1211.4573333333333"/>
      <point x="1018.9346666666668" y="1519.0"/>
      <point x="594.3333333333334" y="1519.0" type="curve" smooth="yes"/>
      <point x="421.47333333333324" y="1519.0"/>
      <point x="219.57999999999998" y="1396.0866666666666"/>
    </contour>
  </outline>
</glyph>
<glyph name="florin" format="2">
  <advance width="704"/>
  <unicode hex="0192"/>
  <outline>
    <contour>
      <point x="546.5333333333333" y="877.7333333333333" type="line"/>
      <point x="325.33333333333337" y="877.7333333333333" type="line"/>
      <point x="325.33333333333337" y="1125.2666666666667" type="line" smooth="yes"/>
      <point x="319.616" y="1297.8586666666665"/>
      <point x="374.152" y="1383.0666666666666"/>
      <point x="495.4666666666667" y="1383.0666666666666" type="curve" smooth="yes"/>
      <point x="531.6466666666666" y="1383.0666666666666"/>
      <point x="554.264" y="1378.2413333333334"/>
      <point x="595.0" y="1356.5333333333333" type="curve"/>
      <point x="624.6666666666667" y="1453.1333333333334" type="line"/>
      <point x="550.9666666666667" y="1496.46"/>
      <point x="529.0200000000001" y="1487.0"/>
      <point x="489.26666666666665" y="1487.0" type="curve" smooth="yes"/>
      <point x="303.4533333333334" y="1487.0"/>
      <point x="210.73333333333335" y="1361.732"/>
      <point x="210.73333333333335" y="1125.2666666666667" type="curve" smooth="yes"/>
      <point x="210.73333333333335" y="877.7333333333333" type="line"/>
      <point x="52.733333333333334" y="877.7333333333333" type="line"/>
      <point x="52.733333333333334" y="790.4666666666667" type="line"/>
      <point x="210.73333333333335" y="790.4666666666667" type="line"/>
      <point x="210.73333333333335" y="111.0" type="line" smooth="yes"/>
      <point x="205.016" y="-177.27866666666665"/>
      <point x="161.0466666666667" y="-335.3333333333333"/>
      <point x="-13.599999999999994" y="-335.3333333333333" type="curve" smooth="yes"/>
      <point x="-32.36" y="-335.3333333333333"/>
      <point x="-91.5" y="-330.37333333333333"/>
      <point x="-111.6" y="-322.3333333333333" type="curve"/>
      <point x="-125.6" y="-420.0" type="line"/>
      <point x="-88.07999999999998" y="-433.4"/>
      <point x="-55.13999999999999" y="-437.0"/>
      <point x="-13.599999999999994" y="-437.0" type="curve" smooth="yes"/>
      <point x="217.59466666666668" y="-437.0"/>
      <point x="325.33333333333337" y="-281.62"/>
      <point x="325.33333333333337" y="111.0" type="curve" smooth="yes"/>
      <point x="325.33333333333337" y="790.4666666666667" type="line"/>
      <point x="546.5333333333333" y="790.4666666666667" type="line"/>
    </contour>
  </outline>
</glyph>
<glyph name="schwa" format="2">
  <advance width="867"/>
  <unicode hex="0259"/>
  <outline>
    <contour>
      <point x="781.8666666666667" y="542.0" type="line" smooth="yes"/>
      <point x="781.8666666666667" y="892.3653333333334"/>
      <point x="636.6533333333334" y="1082.0"/>
      <point x="371.33333333333337" y="1082.0" type="curve" smooth="yes"/>
      <point x="252.1626666666666" y="1082.0"/>
      <point x="145.93866666666668" y="1029.1106666666667"/>
      <point x="60.0" y="904.1333333333333" type="curve"/>
      <point x="136.73333333333335" y="838.4666666666667" type="line"/>
      <point x="211.416" y="938.52"/>
      <point x="291.82666666666665" y="980.6"/>
      <point x="371.33333333333337" y="980.6" type="curve" smooth="yes"/>
      <point x="563.668" y="980.6"/>
      <point x="665.9333333333334" y="824.2040000000001"/>
      <point x="665.9333333333334" y="542.0" type="curve" smooth="yes"/>
      <point x="665.9333333333334" y="510.0" type="line" smooth="yes"/>
      <point x="665.9333333333334" y="226.81333333333333"/>
      <point x="566.9866666666667" y="71.4"/>
      <point x="399.93333333333334" y="71.4" type="curve" smooth="yes"/>
      <point x="252.712" y="71.4"/>
      <point x="168.224" y="179.51066666666665"/>
      <point x="167.86666666666667" y="429.73333333333335" type="curve"/>
      <point x="168.13333333333333" y="444.93333333333334" type="line"/>
      <point x="717.0" y="444.93333333333334" type="line"/>
      <point x="717.0" y="543.0666666666667" type="line"/>
      <point x="52.733333333333334" y="543.0666666666667" type="line"/>
      <point x="52.733333333333334" y="492.0" type="line" smooth="yes"/>
      <point x="52.733333333333334" y="141.45599999999996"/>
      <point x="176.5" y="-30.0"/>
      <point x="402.06666666666666" y="-30.0" type="curve" smooth="yes"/>
      <point x="650.592" y="-30.0"/>
      <point x="781.8666666666667" y="159.6346666666666"/>
      <point x="781.8666666666667" y="510.0" type="curve" smooth="yes"/>
    </contour>
  </outline>
</glyph>
<glyph name="primemod" format="2">
  <advance width="600"/>
  <unicode hex="02B9"/>
  <outline>
    <contour>
      <point x="253.33333333333334" y="1502.0" type="line"/>
      <point x="201.33333333333334" y="996.0" type="line"/>
      <point x="264.6666666666667" y="991.0" type="line"/>
      <point x="383.6666666666667" y="1502.0" type="line"/>
    </contour>
  </outline>
</glyph>
<glyph name="doubleprimemod" format="2">
  <advance width="788"/>
  <unicode hex="02BA"/>
  <outline>
    <contour>
      <point x="253.33333333333334" y="1502.0" type="line"/>
      <point x="202.33333333333334" y="1009.0" type="line"/>
      <point x="265.6666666666667" y="1004.0" type="line"/>
      <point x="383.6666666666667" y="1502.0" type="line"/>
    </contour>
    <contour>
      <point x="553.3333333333334" y="1502.0" type="line"/>
      <point x="502.3333333333333" y="1009.0" type="line"/>
      <point x="565.6666666666666" y="1004.0" type="line"/>
      <point x="683.6666666666666" y="1502.0" type="line"/>
    </contour>
  </outline>
</glyph>
<glyph name="apostrophemod" format="2">
  <advance width="600"/>
  <unicode hex="02BC"/>
  <outline>
    <contour>
      <point x="211.46666666666667" y="1117.0" type="curve"/>
      <point x="236.13333333333333" y="1089.2666666666667" type="line"/>
      <point x="341.4573333333334" y="1146.44"/>
      <point x="432.6666666666667" y="1283.7626666666667"/>
      <point x="432.6666666666667" y="1411.8666666666666" type="curve" smooth="yes"/>
      <point x="432.6666666666667" y="1491.4626666666668"/>
      <point x="376.6733333333334" y="1546.0"/>
      <point x="317.26666666666665" y="1546.0" type="curve" smooth="yes"/>
      <point x="255.44799999999998" y="1546.0"/>
      <point x="210.66666666666666" y="1502.0813333333333"/>
      <point x="210.66666666666666" y="1441.0666666666666" type="curve" smooth="yes"/>
      <point x="210.66666666666666" y="1379.6946666666668"/>
      <point x="261.02666666666664" y="1335.6666666666667"/>
      <point x="331.6" y="1335.6666666666667" type="curve"/>
      <point x="312.48266666666666" y="1247.8519999999999"/>
      <point x="257.20533333333333" y="1158.1826666666666"/>
    </contour>
  </outline>
</glyph>
<glyph name="circumflex" format="2">
  <advance width="1024"/>
  <unicode hex="02C6"/>
  <outline>
    <contour>
      <point x="552.6" y="1516.0" type="line"/>
      <point x="469.93333333333334" y="1516.0" type="line"/>
      <point x="239.6" y="1203.0" type="line"/>
      <point x="347.6" y="1203.0" type="line"/>
      <point x="511.26666666666665" y="1413.3333333333333" type="line"/>
      <point x="675.9333333333333" y="1203.0" type="line"/>
      <point x="785.9333333333334" y="1203.0" type="line"/>
    </contour>
  </outline>
</glyph>
<glyph name="caron" format="2">
  <advance width="1024"/>
  <unicode hex="02C7"/>
  <outline>
    <contour>
      <point x="472.93333333333334" y="1183.0" type="line"/>
      <point x="555.6" y="1183.0" type="line"/>
      <point x="785.9333333333334" y="1496.0" type="line"/>
      <point x="677.9333333333333" y="1496.0" type="line"/>
      <point x="514.2666666666667" y="1285.6666666666667" type="line"/>
      <point x="349.6" y="1496.0" type="line"/>
      <point x="239.6" y="1496.0" type="line"/>
    </contour>
  </outline>
</glyph>
<glyph name="breve" format="2">
  <advance width="1023"/>
  <unicode hex="02D8"/>
  <outline>
    <contour>
      <point x="765.7333333333333" y="1504.8" type="line"/>
      <point x="713.5626666666666" y="1382.7706666666668"/>
      <point x="625.8266666666666" y="1303.3333333333333"/>
      <point x="513.2666666666667" y="1303.3333333333333" type="curve" smooth="yes"/>
      <point x="402.49333333333334" y="1303.3333333333333"/>
      <point x="314.47999999999996" y="1384.2"/>
      <point x="262.6666666666667" y="1504.8" type="curve"/>
      <point x="195.33333333333334" y="1469.4" type="line"/>
      <point x="243.752" y="1315.6573333333333"/>
      <point x="360.34799999999996" y="1197.2666666666667"/>
      <point x="513.7333333333333" y="1197.2666666666667" type="curve" smooth="yes"/>
      <point x="669.7986666666667" y="1197.2666666666667"/>
      <point x="784.7493333333333" y="1320.7506666666668"/>
      <point x="830.6666666666666" y="1469.1333333333334" type="curve"/>
    </contour>
  </outline>
</glyph>
<glyph name="dotaccent" format="2">
  <advance width="1024"/>
  <unicode hex="02D9"/>
  <outline>
    <contour>
      <point x="422.8" y="1312.4" type="curve" smooth="yes"/>
      <point x="422.8" y="1265.232"/>
      <point x="455.36266666666666" y="1226.0"/>
      <point x="512.0" y="1226.0" type="curve" smooth="yes"/>
      <point x="569.2626666666667" y="1226.0"/>
      <point x="601.9333333333334" y="1265.232"/>
      <point x="601.9333333333334" y="1312.4" type="curve" smooth="yes"/>
      <point x="601.9333333333334" y="1359.5679999999998"/>
      <point x="569.2626666666667" y="1399.8"/>
      <point x="512.0" y="1399.8" type="curve" smooth="yes"/>
      <point x="455.36266666666666" y="1399.8"/>
      <point x="422.8" y="1359.5679999999998"/>
    </contour>
  </outline>
</glyph>
